<mxfile host="app.diagrams.net" agent="Mozilla/5.0 (X11; Linux x86_64) AppleWebKit/537.36 (KHTML, like Gecko) Chrome/132.0.0.0 Safari/537.36" version="26.0.11">
  <diagram name="Page-1" id="3KnbIZWZEqm_voTDg8zL">
    <mxGraphModel dx="1259" dy="754" grid="0" gridSize="10" guides="1" tooltips="1" connect="1" arrows="1" fold="1" page="1" pageScale="1" pageWidth="2000" pageHeight="2000" math="0" shadow="0">
      <root>
        <mxCell id="0" />
        <mxCell id="1" parent="0" />
        <mxCell id="qBCmXweArAfsTmJJ2IWV-1" value="" style="whiteSpace=wrap;html=1;aspect=fixed;fillOpacity=0;" vertex="1" parent="1">
          <mxGeometry x="350" y="40" width="760" height="760" as="geometry" />
        </mxCell>
        <mxCell id="qBCmXweArAfsTmJJ2IWV-2" style="edgeStyle=orthogonalEdgeStyle;rounded=0;orthogonalLoop=1;jettySize=auto;html=1;" edge="1" parent="1" source="qBCmXweArAfsTmJJ2IWV-3" target="qBCmXweArAfsTmJJ2IWV-5">
          <mxGeometry relative="1" as="geometry" />
        </mxCell>
        <mxCell id="qBCmXweArAfsTmJJ2IWV-3" value="Redis" style="shape=image;verticalLabelPosition=bottom;labelBackgroundColor=default;verticalAlign=top;aspect=fixed;imageAspect=0;image=data:image/png,iVBORw0KGgoAAAANSUhEUgAAASwAAAEsCAYAAAB5fY51AAAACXBIWXMAAAsTAAALEwEAmpwYAAAgAElEQVR4nO2dB3Rb133/0TSjaZo4tgBRgwvvAQQJEnuQAEGCe4PUooadKEmTunGaVs1o/W/i1m4z6iZpEyVpEqdp0rpu06pJbQOSbGpRe+9NUSLFAYAbIEBRIiny9z/3go+CZA1SAvjefbifc77nZB2HfHj48L7fu/f3k0goFAqFQqFQKBQKhUKhUCgUCoVCoVAoFAqFQqFQKBQKhUKhUCgUCoVCoVAoFAqFQqFQKBQKhUKhUCgUCoVCoVAoFAqFQqFQKBQKhUKhUCgUCoVCoVAoFAqFQqFQKBQKhUKhUCgUCoVCoVAoFAqFQqFQKBQKhUKhUCgUCoVCoVAoFOECjY2/O5BbljVgr1g5YKt8acBe+dqAreJ/BmyV7wzayrcP5pW/OWArf2Mwr+IH/bkVL/Rby0v8tvKFfP/cFAolQegrqFw8mF/5x4P2qt8O2CoDg/ZKuCs2LhV3klcBAzjlOP25Zef6c8u/P2Atr0DS4/t3olAoIgIkL79v0F5VM2ivfHPAXjUxmF8FOHaUuQsLJzeS/tyyrn5r2TcC1nI5378nhUIhGKiq+tBQfvX6IUf1pRlJRScGwoqkDPpzSycHrGWeAXNpGd+/N4VCIYiQo0o26Kh6cSi/2jfkqAaUeAsLxzodS9mJAWvpenA638/3taBQKAIl6KhlBguqNw45qm5wouJFWNPpt5S291tKXgw6HE/zfW0oFIpACDpqTYMF1a8POqpvDxXU3CUqPoU1YC2FAUspDJhLQ/3mko1DhuI0vq8VhULhqZA+lF/lGiqo3o4lFR2hCWs6fZaSyX5zsWfQUmqjNw2FkiiF9MLa9UMF1RffIyqBC6sfpwT6zTjHB0zF6+m2CApFhAyVlT01VFi7YaiwxjtUWAtDhQ+QFTnCisRUfK3PXLLBry3/CN/XmEKhPCGBApd8sKB241BB7UhEVFxEIqzp9BmLhvtNxRsHzQUp9KahUAgjUFBnDBTWvj5YUDtxt6jEKax+UzFOn6lorN9UtGnAVGLl+zOgUCgPASSS3wk6a8sChbWegLMOAs77iUrcwrorBuf+fkOhC10XeuNQKAIBGhs/iArpAWfthYiouCS4sIxFXFr7jEUbvKa63+f7s6JQEpaBqqqPDRXVbgg467rvFhUV1j3CwukzFvX16Z2v9hvsS/j+7CiUhCHgbEgPOF0bA07XSKCoDnCosGYjLOgzoBTe6tMXvu7XOnP4/iwpFNESKKw3BIpcrw8VuSYCRS6IhApr7sJyRqVwf7+W1rkolBgW0uvLAsV1njuSis5jCKu0AYbQf5c4NayHCMsJfXon9OmcZ/p1hc+3O52/R29dCuVxCunF9esDRfXnA8UuwImRsAIVK2Hi3EUY/dkvIVD/LBWWnksh9OkLenp1Ba90W0oX0JuWQplVIb1+Q6DY1RUorodIYisslNFfvgGY8QkYP3AERv7m2zDkrEvcFdaMsKajK7jVpyt4fcBQmEVvWgrlHoaKa9KCxfWvBktcgTuiip+wArWrYWrkBkQz6euB0X95HYLLPjG/wsqvguEv/gWMfOeHAhJWJL26gsleXYGnR++gjQUplICzQR8oqX89UFI/ESypB5T5EBbah3XzjU13CeuOuaZg/NhJGPnrb8NQkSsuwhqsWAmhr30Dbm3dDlOhMP6/Hfn+TwUnrD5dwUx6NI6Tvdr89WAyfYDeuZSEYqhsmSNQXO8JlDRMcaKab2EF6tbC1Ojo/aXFuWtgEIst0PjpJxZWYOV6GPn+T2D86AmAiYm7/n+mbt2CwbLlghZWrzaSHo3D16vJfyWooY0FKWIvpJfWrw+W1J8LljZAsIQLP8JC9apb//vWQ4X1nlXXN74LQyX1sxOWoxqGP/9luPn6/8Dt650P/cffenurwGpYDxZWJA7o0eaHezWO1/q0jgy+7y0KJWb02+s/OlRSvyFYUt+JRcVFAMJC9aqpsbHZSYtbDYXCWDDBT37+PcIaqmqE8Ne/Cbfe2QFT4ZFZ/zODn3qBOGHhaBxoxTXZq8n39GY78unXhkIsI87GRYHShleCpcsCd4lKQMLCq6y3t85JWHfMNQUTp87CyLf+EUZ/9iuYOH8Jr8TmysTZCwJ8Szh7YUWnR2M/3pudTwdoUMhhqGK5LlC67PVAWcN4sHQZRCJcYQVXfeo9NaX5JPw33xaNsHo1+dCbkw+92fa2Xo3jxYDO+XG+70cK5cGF9LIGT6Bs2VSwbBngECAslLF3dvAiq8lAENe6RCes6fTk5A/3ZNs3etX5qfRrQ+EdMD3/gWD58sZA2bKjM5KKDiHCGn7u+cd6nHtSRn/1nwLdOBobYUVihx61fbwn277Jn+XI5fuepSQg/fX1Hx0uW7ZhuGx553D5cgiWoZArLLzK2rV3fm01OQlDDZ9ICGH1ZtuhZzp+tX2/X21rBEnj7/J9H1MSoJA+XL78leGy5UNIVFxIFlZw7WfxUR20030+Gdt9QMBHc+InrBlxZeVd7cmybfCaTLSxICW2DFWt1A6XLX8tWL7sZrSoSBUWOppz43s/xm/o0Ns+Pgh/83sJLawetQ3Hr7YFe9R5GweUeUvp95byRITKljmC5Ss8wYoVU8PlK94jKqKEVeSC8Je+DmNNO2Hq5i0QAhNnzkPoa38HA/bKhBXWTLJsY/7MvNd7VHka+rWlzBp4+eX3DZevcA2XrzgyXLECZkKosIb/aAPc+s3bMDUUAKEy2T+AD14PVa5MXGFhaeXh+LNy9/tVeXSABuXB9Dob/2C4csWG4YrlHXeJikBhDTd+GkZf+xXc7uwGkpgaG4exHXsg+EcbElpYPTPiymvpUeVu6EzO+zD97lIw4RJX0nDlyleGK1cMDlfeR1SECCtYuwZufPufYOL4Kd7qUrFk4lILjHz7n2DQUZOwwupByUSx9vpVua94M0xS+rVNUIbLViiDFSs2BitX3ByuXAmRECasknoIf+UlGGvaJZi6VKxBZxdv/vf/wVD9cwksrFwcf6b1ll+V+7pPYVXz/f2hzBOhqkZHsHKFJ1i5cuqOqMgTVviLfwnjzfvgdtv1SH2Kh42f88rkJN4rFnzhK5HVVkIKKxfHp8qd8qms2/0qs4uKQ6yF9KoVrlDlqsOhqnslRaaw7lfDCqKfc93nsMxG/upv4cZ3fwQ3f/WfuOg+1rwPb2O43d4xp04KQuR2RxeM/OjnMFDSkJDC8qu4WFFO+TJzn29PowM0RFFID1U1Ph+qWnUlVLUKIhGvsObUwK98Bd40GnrhKxD+q7+DG9/5IYz+4j8ictuxB3diwHILBEEwTE3B5FAA/1zjp8/BrS3bIPDc84kuLEDxKa1+v9LySqc67xm+v3eUORIuX75wuHrlK6GqlYN3REWF9dij6tHgin/7dez9Ewrj1RJa+Y3tPQS3PE0w+sb/wo0f/wuEv/FdCH31r/EbQ9zxtGIF9FvveRRM0EdC/32E5c+IxKe0hP0Zlte6VWYVFYfACVY0KkLVqzYOV60cDVXfKyoqrMcWVn4V7jQ66fXPWUq3r1yFkVd/AKEXX8EdSAPrPgdD1athwF5Fd7rHQVj+DAuOL8My6cswe3qUZjpAQ4iF9OHqxk3DVasmQ9WNgGVFhTWnw8+zGaQa+vJLcxZW+GvfJHDMF/nC8nNRopiP+5Qm2liQ/0L6aleoetWhiKSiQ4U1124Ns538PL7/8KxlNTkwFNlHJTJheXPscFZhhNOMAXxISoIXlgVJC7wKU7tXYXqxPU1HGwvOF/7yT3wkVNv4fKhmVUuo5l5RUWHFW1iBFeth6ubNWfe7InOQ6v2F1ZaVB4fTNLBloQI8MhZns4yF/SnZcD0rT/DC8k3Hy5pCPta80cuYaGPB+BbSG18JVa8ewKLiQoU1r8JCGf3F67NYXk1BYMUniReWX5MP5xUm2LlENSOpB2XHIhVcVBixkIQsLJ8iEq/CPOllTZ5u1mCL2xc30Qi6GhWh2tUbh6tXj4ZqVkMkVFh8CmuwyPXIc4rj+w4RPKq+ENrVNjiSfvdqarbZkqSA42ka8KltghaWD8cUCWvc71eYaGPBxyVU1+gI1zZuCtWsvh2u5URFhSUIYaEC/J9/7aHCQgV60oTl1zrgvBKtpjLnLKn7RwF7lmRBe4aVAGGZcLyM8ZqXMW7wa7UfienKQ7SF9LrVrnDt6gNIUtGZN2HVrIbwH34Rbrz0Lbj503+Fsbe3wsSRE3C79RpM9vTCVDh8Z2Ly1BT+95P+HvzfT5w+B+MHjsCY5124+c+/gJEX/xZCzz0/vYlUXMJCg1RR19D7Pg329Eb+N4QIK7Ka0j7Wamq22bYoA86xRtQiWdDC8uEYwcsagj65YWOXQpPMtxcEB1RVfWikdvX6cO2ay+HaNRDJ/Agr/OkvwOh3fwhjW7fDZEcXPrMWa6ZujWGhjb21BW783Xdw+xcxCCuABrGOvrcAP/rTX75nVL3QhOXXFcB5pTmGq6lZPi4uZOFQSjZ0IxkJWFg+FMYIPrlxzMsYNvnkeosk0QlVNcrCtWteCdeu7g/XcaKKr7DCyz8Bo6/+AMZ374epgUHgi8nObhjb3AQ3vv4NfAaQRGGhac+jr/3b3b/Y+AQEatcIVljt2TY4Io/vamq2j4s7F6vgitIsbGExd9ItN+zvlhsSr7FgsGoNG6pdszFUu+YGFhWXeAmr/lkYfflVGN+xR5BtWNBh5PFtu7C8AuXLiRLWoLMWbl/vnPldxrY335GVQITl1xfC+Qy0msriWVL3zztJSjgl14I/U9jC8jIG8MoN4E3Xt3rT9Ru8i0U+QCPkWp0fdq15M1S7ZjJct/aOqOIkrJEvfBXG39khSEk9CNQqBnVYCNY/S4aw7JUQ2vD/Zn7+4S98VTDCup5jhyNyHWxZqORdSrPJ5oUs7F2aBV1Kq7CFNZ2udH1/d5phrURshfSQa82KsGvNwbBrLeBgWcVPWDe+/DWYOHkGSAbVhm79z5u43iV0YaGgXlWoiwL+z3kUlt/ghAsqC+yY59pUrLNtkQouMHpBCysSPXSl634iIR1obPxwqG7t58OuNVdmRBVnYY185k9g4tBREBXj43Drv38LwapGQQsLFeBHvvVPMGir5EVY1zX5RK2mZputC5VwLCUbfJlWwQrLm66Hy2k5X5aQSKhunXTE9eyLobq1vrBr3d2iipewalbDrZ/9CmBsDMTKZG8fhP/s/wlWWDhYVvMnLL+xCC6orPP+po+fKGD3kkxoY02CFNbVFO3YeYn6gxJSuFn7LDPiWrcxXL/uxkg9EhWXOAur4TmYmMOBXKK5fRtGf/jzhBfWda0DjjA6Abzp4ydNSUo4m64TlLBQDi7KqJIInZHa1bqR+rW/CbvWTiJRcZkXYS17Dm6fuwiJBtrnlGgrLL+xGC5kJspqip1VNi9UwAFUpM8wC0JYx5dkvSARKmgvRrhh3TfuFdV8Cmu8aRckJJOTEP7S1xJCWB3aAjjC6BN2NeWZZXYuUsEVxsDvCmuh+lmJUAk3PPudkYZn3yOq+RLWjT97ERKZ2xdbRCusHlMxXKSrKZj1SkvGwq7FmXCFMfImrOtpOti6MKNUIkSGG9bYww3PTvEprLHfvA2JTrB+neiE5TUWwe5kNe8rFnLeIOaAV8l/Dev4UjV4FrBFEiEy0rDut1hWPAprfHszJDp4j5bIhMWlU18IJxRGeGdRBu9iEFp2odUUflsojKL7lVQNXuUJUljg/NTvhevXTfItrFv/8u+QyEz6e6c3lIq7hoW2L7SobbA3JYd3UfC+mkrVgDdDWPuwzqVkw1auvihEYV20FlfMyIpHYYVXfxqmRsgeCPokoDmCibYPq1NfACdYIz57x7dA5icKvJpqVZgEtdO9W26AC6kaaL539StEYV0wOD8vBGGhjP7tP+CeVInG2LbmhN442mcuhhZ1nmhXXVunV1M+lbDOEnYzejiTnA3bH/QHQ4jC2puhWyYUYaHc/O6PACZuQ6Iw1rQLAqXLElpY0enSoVWXAd5NyhDFm75WpVFw3Rq65AY4nZwN7z5qa4kQhYV+qIHKlYIRFj7s/OIrMNU3AGJmamwMRn/4WqSDAz2a856zhL3GImjJyoX9qTl4QyVxq6lM4fXDak/Xw+ElWbBltr+PUIV1SpsvKGGhhBs/DeNbtsWlYyjfTBw7CcOf+LygDz/ztcK6X3sZr64QziiNsG2xSpirqYWR1dS1DJMgO45eTdfBwSWZ+Oec0+8mVGFtTcqAvorlghLWTMeGP/kqTOw9gM/dkc7E8VMQ/upLRLSXEZKwuH5YqBXy1ew8OJCGVl0CWU2lacGXJcye7hfTtNC8+AkerYUqLPTD7UjJhoGqlYITFtfAL/zcH8HYG5twN0+imJqC8YNHIfSFrxLTwE+owopOt64AziiMuM/UvIpqejV1VWkR5NQcr8IEZ1M1sH1RDN68CllYKO8uVsFVWzmWkNCExbVIDq/4JNzc+DOYOHFauMX5qSl8iHv0xz+H4VWfJqtFMiHC4nq696JVlzoXDuBaV/xXU351niDnEnYxRjiZkgPvxrJ/mNCFxWVHshouW0pguG6N4IR11wCKVZ+Cm9/9IUwcOAJTt/htm4wm6aCxYDd/8gsIrfkMsUMoSBNW9Igvr9YxverKiNmbvt1Ls+BqhlWwk5/bWQMcTY7a7BnLkCKsmb8qizIAFeTRW0QhCuuuMV9o/uDzf45XX+M7dkdGfMVTUDdv4lXerX//NYz8xd/gDqKkj/kiXVjcXMJevROuZlnxqguN4ZrrI1/TIiWcYfXQq+EklS84YbUxBji4NCu+tTzShDXzlyZJAYczLeArrheusO6T0LrPwo2/fBlGv/8TuPXr3+JRYLdbWmEqEHz04+TYOEwNBvD4LlQsRzMI0TaEkb94GULrPvfeYaoimEsoFmFFj6r3oenPChPsWPzwvlvbF6tgb4oarmflQa/GMR3hCatVboB989VDjFRhRWcvo4c2NFkFCUngwsKTnysekHKU5RBa/kkIrf4MhNd/HsKfeiHyOFezOiKke1PK5Z6pz1RYghUWji6SdnUeHEnXzPTiQquTAynZ0JppgV4tJymH4ITlU1rgfLoOdsz3wXExCIvLjhQ1XLIUQxAJiGBh3S/BMhQqrIeusNCgipWfgtBXXoIbG1+Dm79xw83/2wzDn/+SYIXVpyvA8Wny4ZLSDF4kIG1BRFYCFFa30gKn0zTwLl9nLcUkrOg3i6e1DhioWEmFJcJHwqGSZTD8mT+B8Cuvwuiv/gvGdu6F21fbYGp8/AHFvSkIvfiyoIWFEhFVgSCF1ak0w4mUnPgU0hNdWFy2JCngWJYVekrr6QqLQGEFln0SD1C98Y8/xqul8aMnYbKn77FeSExcbKHCegxhXVMY4eBStSA2xYpeWNHZy+jgen4lfSQUmrCK62F4/QsQfumbMPrzf8MHrycuXYGpG6MQSyZ9PVRYcxBWK2uEfUuz+BfUPdksZU2SRBAWl+Y0DVyxlEAQnQ2kNax5E1agbi2E/uQv4MY/bISb//UbGD94BCa7ffN2LvPm//wfFdYjhOVX5cJFxgA7BXo+0i1jxpslzvdLEklYXJqWZMI5vQOGKlfQonsMhRVc8UkIf+nrcOOHr8Gtt9+B8WOnYHJgEPhksn8ABsuWUWE9QFheVS6cSdfivV58S+lReWtBukqSiMLigl4nozpXb0k9fUs4W2GVLYfQp74AIy//PYz+7Fcw1rQTbl9uhamb/O7sfxDDf/41wb8l5KPo3qWywok0DVHdVd9awJgliSwsLqi/0X7WAO32CrqtYVpW6Mwh6uSANqfeenML3kWPViskcevtrYLeh8WHsNoyzHAoOVs4hfQ55M2n2RSJ0OBDWNHZnaaB1txSGEb7rBJwH9bw2s/CxPlLQDqT/h4YLGmgwpqWVavSLMhCumeWcUuZaxIhwrewoutcZ3UOGEK7zxNIWOjANPFMTcHwF/9S8Dvd473C8mfZ4BJrhF3zdXRGFsdImQ0SIYKeU3m/OFHZmqSE4+pc6Cl2iV9YFSsBJskfuoH2bZFwNCdewvKqbXBGroMm0cxcZHYL8g0hoilJ+xG3jJ3i/yK9t851UGmEroJq8QqrpAGmhkNAMre7vTBY5EpIYXVl5cGJdC3+I8v398UTO1n9N3KCRKhslin1/F+kh6c5XQOt1hIYrhSZsIpcMPr9n5I72mxyavrsYHlCCeu6ygqHUcNAGTnDMTyPipTdtlmqLJQIHfdC1sb7xZplti/Nggv6AhhCr/pFIiyU8Ia/gomjJ4gT181f/1bw7WViKayrKgvsS1bz/j3wxCjoycotY972PCO3Skhhq0zB8n3h5hrUWPBktg360X4uEQhr5o3hc38Et/7rf2EqFAahc7ujCwaddaIXVk9OPrQoTbiPO9/3vSd2mfTIWI8gj948ik0Sye+6pUyfAC7iY9a5DNDlqBbVxlF0lOnG934Mt9s7QJBMTkHwj79ERAO/xxWWLycfzrAGaCJ8oKvnnuM2bhn7rx4po5SQjEfK/DPfF/NJs1eug2vWUggiGREurJld7uhx8csvwXjzPkHNZxz9918T03F0rsLqzrbDSblOVIV0t5S96ZEyP3Y/zaRKxAD6RdxSZoTvCxuLbE/OgouGQggg+ZAurKgMr/sc3PzP/+X9reLttg4YLKwTnbA61HlwNF0rskI6E/ZI2e9slqUtkogN9wLm2elnWxBDInWuPOhHtSERHX4OVK6EG9/9Edxuu86DrW7D8Ge+SFRP90cJ62pmLuxLEU8h3YOn/Shubl3I/sO7H0t+RiJm3FJ2jVvGBvm+4LEMaix4VGUGX2GNKIQVHdRCZmweHxdHf/EfxA2huJ+wenUF0JJhgWYx7EiX3QmaSXgqJRu6WCN4GVPYx5pe65ZbMiRiBi0f0fOuR8qO8v0BxDp707XQllsmGmHNtJlZ+4dw8434Pi7evnIVBgtriBaWf3qCDpqQw/e96IlhmpKUcCZVA93cmPrpUfUoXtY06WUNHi9jypeIma2LFDKPjH3FLWOH+P5AYh00KPaivhCGyhpE1cAvULoMRr71j3D7WntsbTU+AcFP/jGRY75QvBoHnGT0RLV28cwi25KUcDo1B4+nvzOu/m5hRWKMRG487mP168Ep0GM3seCtBaqPooOQHhnj5fsDinWaFqvgFNrPVVQnCmFFBz8u7tqH605PyuhPf0nkXMLOHDsck+tmxnqJJTuSMuB8mha8ijuj6mclLCYSL2Ns8zKGF9vTdB+XiJWtCsWHPDJ2vVvGXuH7A4t10A19NMMMvoJq0QiLS3DZJ+DmL9+AqeDwY8lq4nIrDBbUECWsa+o8PPUZ7dPj+96KZXYuUmFRIUlxo+ofR1hcuuX64W65YaOXMYlju8P9eFkieZ97gcLlkTEn+P4A45F9cn1kP5dIhBU9gGLkm9/DI7pmzfg4BJ99nojJz70GJ7RkWqGZ4B5UngekebEKLsn1d42qj4WwvIwBvHIDeNP1E93phje607QGiVgZLl224Lyx8D+a0zXjfH+g8ciu1By4bCiEodJ6cQgrKsMvfAXGdu195OMi6hUv9FH1vYZCuKiyPHIUPamiamGmRcUlHsKaTrfcMNUt1/98QGH9mEQsBBrWpIfr1r4arlsb5EbVdztr4WCGifcPOB5pWpwJZ3Js0F/sEo2wZmYRrlwPN9/YdN/HxfGTZyL/O4EKy6cvhJOsQXSFdA9a5S/NgquscWZU/XwJKxI9dKTqzpxXqz8oIZkb9WvNIde6/w7Vrb3NiWom06Pq/SUuPGRCbLUDFHRU41imBXz5VaIRFpehknoY+fsfwMTJs3C7sxv3lEedXx86qp4nYXVrHXCM0YuukL55WlTXkKimR9XzJSxvuh4up+T8l4Q0QCL5nZH6tbUjrnXNYdc6iOQeWUUJK1y3Bqe/fBmc0thhy0Lx/fVDMj7A6uF6bmlCjKoXirCu59jhcJpWdH8MNy9k8bTndoV5ZlS9EITVnqad2veU5mkJCUBj4wdH6tetH6lfd36kfh2gzEVYXAYrVsA5fQE+JsP3jRGPNKdmQ4vJiTuHUmHFXlh9piK4os6DZhH1oPJwopIp4FBKNnQg+UyPqheSsFAOL1KtkggZtKEs7Fr7p2HXWh8nqicRVrg2kqHKVVhc7y4Wp7jQAI0z2TYYcNbRFVYMhIVEdTHTCjtEdnTGg0oLaAtNSg50Ivlw4+oFKqzjS7K/IBEqQ42NT43Ur2u+V1SxEFYkq/Eor0umIti2VHw3Ir4Zk5RwAg2KLaimj4SPISy/sQjOZJjgXRGuyLeiIcKpGvBmWPGoejyuXuDC2iNTrZQIEXj55feN1K/bMdLwLMRTWFyGqxvxLMKdqdm830jxrHN15pXTGtYshNWtL4RjrEGUNc93k5RwEu1KR5JCU6Az84gQ1rVULaARgBIhEl62dh2W1TwJCyVUExFXu70Sdsu1vN9Y8Upzag60GJwwhIrqtOh+l7Cuax1wOF18hXQUNPLrTLoOfFnTouJCiLAOoAPighVW/dojfAjrThqhq7Aaj/Xi+0aLV7YvzYQL2nzcBz2R3xKiVVVrtg32puTw/pnEI9uQqOQ68KujJJVFlrBOJ08/+QhRWB21tU/PyIpHYXHxOWvhsEg3oaJsXaSEE5lW6EEbNxNIWP3WErikzoMdIq1f7kDn/FgDnv7MjasnTVid6Xo4GP2iQ4jCOm8qXickYXHTnv1FdXA004L3qfB9M8arseAh1gCd1jJRC6vXXALnMq3QJNI3xDvROT+F6Y6k1OQJqyNdB8eXqvGLgbt+PyEK65y+4LNCFBaXvtJ63OpYTEMB7s2eNA20Gp0w5KwVjbC6jUVwXGEU3Y50LruXZMJlJCpuZD2BwrqaroUD6AzmgxYFQhTWjjRNtZCFFckqGChfBud0DnhHpH+pUXagQbEaO+7sSaqwOvSFcFiuE+3KGImqVWm+IyoChU++GfAAAB3zSURBVHUlTQt7Z9N1VYjCQj+Ut7hO8MLCqVoFgfIVcMlYCNtEuKmQC9qHdCrTCr32KmKE1aqxw95UcRbS8Tm/5GxoU1nxqPree2VFgLC8jBHOpWpw879Z/+5CFdYhlYUYYXEJVq6EVksJbnfM9w0dr6DHqSMKI3jRfi4BCqsvtwwu5dhgp0gL6UhUB1Ky4XpmbtTIerKE1cUY8WCKd5Me49FcqMJCP9z1ghqihMUFzR5EDfd2pYhzE2p0nesqqnMJQFi91jI4lyXeQjp6nD2UkgMdWdGiIktY1+UGOJp8n0K6WIS1NSkDOgpriBNWqOrOaPq2vHLYky7eTagou5Kz4ZImHwYKquddWF5LsagL6ehA8uE0DXSpbdMj6/OJE9Y1uR4OLMmMTQ1RyMLichwNH61cQaSwuHTmV8JBhXg3oaK8iwZoZFnx42I8hTWQVwmtWgfsT9eIckf6zDm/dC10Z3OichAnrMvpOtgT666rJAgLBd2Yh1Qm6HLWECksLr7CajxEVaxfNC570nLgYo4dfEheMRBWv60C2lFHT6VZtI99KKhbKRr/5UUS0kaLigxheRVmuJCug12L4jRnkRRhRQed87tqr4BQHXnCQvUtNDS111kHJ9W5ojxce2+2L8mEo0oTXNTYoc1YBD15FQ8VVr+9ErosJXBF64AzmRY4kK6FrY9ToCXtQDKjB1+OY3pkvYMoYXUrzHA6VYMHqMb1WpEorJkvAho+iprVVa8iTlhcUF/2Uzk22CLiTaj3C1phoq0SSGa7ktWwc2kWbFuiEvVm3AcdSD6rMECPlhNVAVHC6lSY4ERKDmydrz+8JAsr+izcKa0d+itWECcsLgOlDXBWkw/viGxkOc2DDySjEfVITn26SEgSVhtrhEPJavxSYF4/YzEIK/qvNpqU4y12EScsnPIVMFTaABf1BdAk0n1EiR40+utihnlaVIUzsiJFWK2MEfbxuUFaTMKKzl5GD232SgghGREkLG40faB0GVwxF8HOFPFuQk2k7ELn/FQWPK4eB8uKDGH5VFY8NDVuhfS5RKzCiq5zXTIXwXBNI1HC4oKGpbZZy2B3mob/m4Vmztdg91I1tGTm4nH1M7IiRFjdGVY4naaFprkcnaHCis1FQFNy0JivgfLlRAnrjriWQ6etHA6yBv5vGppHXoM96Jxfti0yth7LihxhdWZY4ESqRpgvQKSMUiLmFdb9ej4dVpnB66wjTljcePoOKi7BnvPbn5pzR1RcCBHWdaUZT8+Z90L6LOOWMeObkpM/LEkkYUVnL6OD6/kVxAmLi89Rhfc3ibVtCilB1x8dn+nQOKDPUHS3rAgQVqvChCc8830dZ5MtCxmNJFGFxWVHSqTOFUCyIUhYOKXLoKewBk5mWRNiE6qQgs4v4nN+WgceWd+HQoiw/Fl5cJk1QDNh22jcUtYoSXRhRZ+FO63Nh/6y5UQJK5IG6HPWwtkcG7wjwhl6QhPVMXR8RleARcWFBGGh0V7n5HrYTuA94paxU/+3JHOBRGjwJazoGxL1bveXuIgSFpfBIhdc1DmgKdYHTxM86HgQEpVPXxgZXR8lK6ELqyszF06kaeEdks+wSplDEiHCt7Cis581QLutgihhcRkqrocrRiduc8z3dSQ56EDyKYUR/AZnRFRcCBDWdZUVjqZqYItAC+meOeRtqbxOIkTQq0u0/OP7AkWnOVUDLeZiCFatJEZYwZJI0MzBK8ZC2EU3oc7pM0dnHdGY+l5T0d2iIkBYrRkW2M/H0RlZvML8o0SouBdnSPm/QPdP05JMOKtzwGDFcmKEFSypx0HiajMXw26R9jmPVbYtVsG5DDP0ISmZI6PrSRCWP9uOp+Y0i2u2QMAjY16QCBn3ArlFABfqoUFv5FCdq6eojhhh3RFXPXTklsEBRs/7dRSaqC5kWqHPNC2p6AhYWD05NrjAGmE7YW/8PA+LlOl3S5mX3nwq7eMSobM5SZnL+wWby4FrpQE68iuJEhaXblsFHFEaRd9Q8GHZtTQLLmXlQh8Sk+U+shKosLxqG5xM15FdSJfdG8brlrJfbkrSfkRCCu9IUxfzf+Hmnua0HGi1lkSkRIiwInGBP78STmRaRNsb/X7Zk6yG1mw7DFhKcfpxhC+szqw8OJqmFddnJWXb0aPfVoXiQxISccvYFt4v4pPUubT5MFjaQIywcIpc0GOviohLiOfIYnjOrzXHDgPWiKhIEVZbZi4cSs0R1WrYLWWubZayzx+XmD4gIRmPjP0rvi/mkwY1FkQj7fuKXcQIi0tfQQ2cyc4T1VTr/WkaaNcVwIC1bDrCF1aPxgEtGWZoXiKurSluKXNqs0zR+LJE8j6JGNgkU/+BR8q08X1hY1bnUhigy1FFjLC4DBTW4FH1TUvILOii1/pIVB36aFEJX1g92ny4oDTBDjEV0mW4mH5ws5SpBYnkdyRiA50bcsvYQd4vcozrXFfQfq5yMoQVKKrDGSyshRZ9ATGbUPGBZLkOugxOGMgti4QAYXlz8uE0a8B7wPi+hp4YZteijMEjS7K+LhE7m59RZrll7BG+L3iss31pFlzQOXBLZBKEFXBGMuSshWvGImhOzRbugWS5DrqNRTCQWz4d4QurK8cOR9N14iqky1jcTvmKXH9nVD1jPOVjTevBRHjN6mGg51y3lF2Dnnv5/gDi0VjwpDoP+opcRAgrOh2WYtiXphXMOT80AdpnLoGBPE5UwhdWuzpPdIX0zTIWDizJwhOfo0fVY2FNx8sa/F7W8Epnct4zEjHjljEOj4z18P2hxPxDRoNilUbozq8iRlgBZ2Qs/XVzMRyQ63i5bqgrJhqu2oOkg0TFRcDC6tUXQovKit9WiuseZuHgkixoY4x3jaq/n7B8rBHHKzeGfXLja93pZpVEzETqW8wmoZ05jEX2pmvhmqUEC4kEYXHpspbBEaVpXvpyoVraebTZM7cMBvMqYABH2MLq1RfgiTk7CH2B4XmEqNpZw12j6mcjLB+SG2MEL2Oc9DIGT7dcXyYRM54kJscjZV53y5gJvj+4mH8pk7PwyK8Akg8BwuLSl18FF3Js0JySHfPV1CFGB236Ahi0VdyJwIXl0xbAGYURmhaJa2/bloUsHE3Ohk7WNDOq/nGFdUdcBuhO1x/vStevB6fz/RKx8mZSWrpHxm70SNlRvj/IeDQWPIX6hDvriBBWJDUwVFADvbYKuKxzwGGFAXag7gFzaOeMGhHuSc2GkxlmaDMUwoCtEgZnInxhoU6kx+TiK6RvRf3ikKgUpplR9bEUllceSVe6vsObbvjT42It0IfrV5f1VS7fdc5QOCXGCcpogMaRDBPu5U6KsO7NgKMauq0l0KovgMtor1GOHc6pc+GsOhcu5tjgitYB7QYn+HPLYdBeBYP2yrtDgLDas+1wKE0jul777yxU4Gk63UrzXePq4yWsGXHJdZf8KbpsiRiA55//QLh29XMh15pTM2PqXWshWL0aLpmLoUlkO4S57EF1LmsJccLCcVS/J4P5Ve8NYcJqycoVXSHdg1b4qIFhmga8WFCRUfXzKSyvXA+dqdpAX6ppsYRUehsb/yBcv25DyLWuI1pUM5keVT9cuxpa88rwoAm+P/h4BD1m4f1cJS4qLB6E1WtwwsVMK+wUVw8qQNmWlAGn0zTgU1lmRtXzJSxvuh4uJ+eclJDGjfq1S8L1a18dca0NhF3rIJIHC4sbUR+aFtcugW54fNI0LVbBmRwb9BfV0RXWPAirx+CEc0oTNIlsR7pnWlTn0nTgy4iMqp8Jz8LqStdBU5JWLiGB4dp1yhHXuo3h+rU3R+rXAcpchDWT2jVw3V6FH6n4vjHiEVTgRXUub34VfSSMg7C6dYV4EIXYCukeGQs7F6ngPNrsmYkEFRlXLyRhoRxZpP6UROgrqpH6tZvC9eumOFE9qbC4dBfWwEGlifcbJV4bUffJdXANnVukNawnFtZ1jQMOp2tFV0j3yFjYvTgTLjOGmVH1OAIV1oml6j+WCJVQ/XPqcMOz/ntFFSthcROf/cUuOJZpEdXxiOjsSsmGFqMTF9Zp0X1uwrqaY4P9aeLsgb8biYo1zoyqJ0FYO5IULokQ6a//w4+GG9a1jTQ8C/EWFpe+0gY4mWMT7QRlXOfKzoP+ghr6lvAhwuo1FcPFrFxRFtJR9i1Vw1V0nIkbV0+IsC6laACNAJQIkZGGZ7+KZTWPwuLG1A+UL8cToMXadRPtGD+mMoPXXkm3NUQJq8dUDOdUFmgSUdPC6APJ+5LV0BYtqixyhNWdpoddSRnCFBZq7jXsWtfNl7AiacSjvM7pHSDGTaj4Jl6ogAOsHtqtxQm9D6vb4IQTCiMWufg+YxYOJWfD9QxLZAr0vbLKEr6wuuV6OMhNMReisNqdlekzsuJRWFwClSvhktEJ25aK8xEBBfW3ajEUwpAzcYTVqS/AvbPEWEifEZXKetfIetKEdTlVAzui/5AIUVgXTEWfFZKwuPH0wcpV0GothZ0xPtQrpGxfkgnn0H4uVOcSqbDadA7cNpnvax23c35pGuhEEooWFUHC6k43wPmUHNh5vz1uQhTWiWzHJ4UoLC7DVaug3VYBu9PFedPjGz9JCScyrdCD6lwiEFaftRQuqfNgp0iPaiFRHUvTQjeSEjeynjBhdcmNcCY5G7Y97NFciMLaviSrDIlIqMKKZBUOGixxUGHk/YaNa52L0UGntZRIYfVaSuFcplWUhXSUd1ADQ7kOvEg8nKgIE1aHXA/HlqqxdB/5OwtRWOiHasuvJEJY3LRnsYsLZU+aBloNTiwkoQvLby6GUxlm/IXm+7rFI++ic35yHfiz7dCbY4fee2VFgLDa5Xo4slQNW2Rz2P8oVGHtlmshjMREiLC4+J21cFRlFmUhl8v2pZl49Ncgko/AhNVpLITDjDgL6SjbFmXAWUYPPUhS0yPrSRNWS5oO9nFv/eYaoQoL/XDnjU7ihBXJSugtduEhqmJ8VR49KPaEygI9tkrehdWmL4T9Iq4povmEFxQm6JmRVD5RwvIqjHA+VQu7Fj3hFiEhCwvljL4AS4k0YXGTnvtLG/DYetQ9k++bPl5BB4GPKozQlVs6r8LqzyuHyzk22LVUnK2DUHYuzrwjKjyynixhdbNmOJOa8/BCupiEhbIjNRuu2isgVLeWOGFxGSpbBhcNhdAk0uMeXFAf90uafOh3VMVNWN2mYtw2WWzDRqOze2kWtGRYpiUVHTKE1cEa4XhyduyfMEgQFhf0ZT9nKIRATSNxwuISqFiODyJvI2SC8pPMCTzMGuCSNh968iqeSFiol/t1oxNOZ1piPthCiKJqzbRCr9YRCWHCameNcCQ5e26FdLEKiws6nHxMnQu9ZcuIE9ZwZWTKc7B8OR5ZL9aGgvfrjHqI1cOZrFzct73TXAxeSyn40R4pWwX02CrAay2FTlMxHjhxIScPjimMsDdVA++IbNrM/bI/JRvasvLwuPpIyBJWq9wA+5dkwuZ4iYpkYUXvETqYYYLOwhrihMUFiasttwxvGeD7S0Mz/weSkajQ9Gc0rv6OrMgQli/DApfkOmh+0kJ6oggrOmjXeautHNe5SBJWdDrtlXBQYaDiELk88Tm/VA10ZNuxqLiQIixfhgXOp+tgOx81RLEIi0vT0iw4ZyiAQNUq4oQ1XI6yHHyOajiaYRZtQ8FEDXpcOpKuhS5NPvTpCqdDjrC6lBY4kZKDx33xdh3FJqzoPUKnNHbor1hGnLC49Dpr4aQ6V5T9wxMp+JyfXAfdGgf06QsjIUhY15VmOJqSE79C+lwiVmHdXecygreoljhhcelD4srKFW1DQTG/KT3O6PGo+j69846sCBHWNdYEB5eq419In0PcUoVTImZhvafOlVcGoRqyhIUSLFsO/cUuOKuxi7ahoFiCzi+eYg3gRyJCY+uxrMgQli8zFy4xBmh+3KMzcYxbxkxsXaSQSRJFWFy2J6vhkrkIhqtXESUsbjz9YEk9XNQ5oGkJFZeQsm2xCs4qTdCDhIRExYUAYfkzrXjE1/b5fOM3Z2GxU+9+LPkZSaIJi8vWRRlwSmODfrSfiyBhcRkqaYArxiK8x4nvmymRgw4ko6GqvUYkqKK7ZSVwYXVn5sLpNC0eR8/3dZxN3pIqDJJEFVZ0neswGsrgrCVKWDilyyBQ0gBtlhJoFuk4KqEGTdW5mGnBkkJj6/tQCBFWh8oKR1NziHuhs2Uho5EkurCisxcNH80rx4+LpAgrkgaczrwyPECV7xtLzNm5NBNasnKxpKJDgrDQ1BzU630zge133FLmlnvx4t+XCA0+hcUFPWZdMjkhWLWSKGFFi+sgSzehxvKe2J2shivqvJmx9aQIy6+24YGpewhvD+2Wsr+VCBEhCIvLu4tVcBp1HyhdRpSwcEoa8OzBo0ojkX9RhSQqNAF6RlSECMuvzoPzrAG2i6A9tFvK3nw7ic2WCBH06hK9EeD7IkVnS5ICjmZawF9UR5SwIqmHHkc1nMy0inaqdTyyP1UD7eiPFRpbf6+sBCwsb5YNzsj10ERIId3zyDBjm2WKRolQ2bwoPY3/i/TwOlc7OrdIkLC49BXWwJlsm6gbCj5J0CbJA2ka6NAWRETFhQBhdWTm4hFfpBXSPQ+JW8Y0e2TpOomQeXuhIo/vCzWbNKfmQIupCAIVK4gRFkqguB4GCuvggjYfP/LyfR2FEPQlP4zO+envERUBwmrLtMKhFDIL6Z4HRcrudy9kSiUk4JayRt4v2BzStDgTt0EeLFtGjLC4DDpdcEFrh20i74T60APJ6PgM2ppgKYV+SwkxwmrNMMM+ce3Bm0SFdfT9l5DE9qeZp9APL4ALOPfe5pkW6HHWESOsSFwwVFQHLfpC2JFM9pukOZ3zQ8dnjE4YsJTikCAs1Nv9gsKIh1LwfQ09MTxy45Yy//HWMwq1hFQ8UuYg3xfySTai7mP00JZXRoywcIpcMOSsg2umYtidKs5NqGhH9+kMM/SYimHAGhEVCcLy5eTDGdYATaLqvsqMuWXMzzcvVDIS0nEvYJ7l/4I+edDu8yuWEggiIREgrOh0WEvhAKPn/RrGImhgBRJVr7kEBqxl0xG+sDrVeXA8XSeqcXFutAFUxr725tNsikQsvCyRvM8jZXfwfXFjFTRAA9e5SuuJEVYkddCVVwZHFGgvl4LIA8nn0PEZJKcZUQlfWO1ZeXAoNUdUhXS3jBl2S5lv/zaJWSgRI+7FGVK3jD3O94WOZdBfymNZVvAX1hAjLBxnHfhsFXAsw0TElwiJ6iI6PmMth4HcskgIENbVzFzYlyKqQjp4pMyAR8r89ZtPpX1cInaakrQf8UiZ76LnXd4vfAyDGwsqDNCZX0mMsLj02CvxxGchbkLduTQLLmXboB8JKRfJSvjC6tEWwMUMs6gK6Z5IOxifZwH7lU0y9R9IEo3NsrRFHhn7ClpW8v1BxKXOZS6GYBkZwuLS56iCM+pcQWxC3ZWcBS05dhjIK49kRlbCFZZfUwBnFUZoEsD188Qwbil73SNlNmxKTv6wJNFBj4kRcbGDfH8wsc72pVlwQZePG/SRIKyAMzKWvt9RDedzbLw0FNyTkg2tGgcM5FXckZXAhdWtscNxuR53JuX7nvPEVFTMNSSqrQrFh/j2hOBAy0x0cdwypovvDyrWQQM00PAJ1MudBGFxGSyogcs6R9y3ROD9bgoDdBiLYNBWAYNYVsIX1vVsGxxK0xBRA/TMSVTsWY+MXb9JIvldvr0geDZJ1B9EF8sjYy/z/cHFp86lh678SiKEFZ2u3FI4oTLHbCMqqpftS9PAhew86Mstj4iKi8CFdU2dhwem8n0/xT7MSXQoGSSS3+HbA0Rug3AvULg8MvYo/x9k7LMnXQtXzcUQQCIiQFhDhTUwVBCJ31YOlzT5+A3jnrScR7bjRcdlti/JhAPpOjilMsNVnQP6beUwaK+EQRsXYQurR++EiyoL7BDgMIeYnPNboHDx/Z0XDW4Z4/DIWA/vH2y86lx6B+7nToqw3hNHNfTbK8GXWwbdlhLoMBXhoH/dg2SDxJRfBYN2lMq7I3Bh+fVOPIhimwh6UHnuiVvKbncvZG18f79Fy9syJh+JS2i9tWI1QOMEqnMV1hIprHuDBXVvCBKWT1cAJ1mD6ArpnsiZXo97gdzC9/c5YUCN6z1S5nV0yFIAN0DMGwseyTCBD9W5qLDmXVgdGjscTtOKrpDuQZ0TZMymzc8os/j+/iYsbyalpXtk7EaPlB0VwA0RlzrXNUsxXWHNg7DacuywP1WUhfQx9MfdI2WUfH9fKdOgs0xoL5dHxgb4v0FiH/Rm7oLOAUPFLvpIGENh9RmL8bScZnH1oAIUt5QZQX/Mtz6jSKaiEChvLVB9NLKXi/XxfcPEI02LVXBKnQd9hdW0hvUEwuoxFsO5DDM+n8j3Zxr7MCEkKnSShO/vI2WWoJ25eC+XlGnl/waKz0bLI0oTnqBDi+6zF5bP4IRTCqMYC+ngkTL96Clj81OpT1NREMpxiekDkU2ozAXeb6g4BQ1ZvYb2c9G3hA8UVqfOAUcYHZHtdB4tKrYXiWrrM4qP8f19o8QItHMXb0KVMod4v8HilF0p2XBJVwBDaOsC3daAhdWmzYf9aeLstEoPJCfYJlQx7uVCQVNzzmTnQX9BTULuw0IrqtZsmygL6RFRMVc3S9nnmyXO9/P9XaLMI5tlSj1+3Stjb/N9E8atsaDKjJv0JYKwes2luBOpOAvp+NHvDD2QTJFslSlY9FYFjc7m/aaMQ1Dd5gCjg3ZLsSiF5TcVwymlSRA9vOIRt5Q5gMoZ9EAy5S7Qa2C3lH11ev8KiDHNqdnQYijAk3RIF1a30QnHCe1LP6vQA8mURG8oyGX7kiw4l2PDjfpIE1abrgD2p2t4v4bxPJCMJqXTbytlToi5oWB0nQv1ckc93YUsrP68MmjV2GG3SAvp3IHktxYwZvo1pTwRYm4oGN2vCtW5Oq0lghJWr7UMLqpzcS8tvq9RPOKWMeP4EP+CtEz6NaXEpaGgW8Ye4/tGj2eaU7Lhsq4At0fmS1g9llI4lWEWbSGdO5D8toxV0K8pZV72cqFaA/83fvyyAzUW1OTjOtd8CavTWARHWAM+esT37x/PA8meZ5RL6deUMu+IfRMq13sdTYluNxfHRVionzvq675LbMNG7wo9kEwREGJuKHhvtwgkrxadA3ptFY8lrAFbJV5Jnc204n7wYl1NRR9ITogJyRTyeDspQy7mhoL3Owa0N00DR5VGOKvOhYsaG7RoHdCqL4ArWgdczLHDOXUenM60wiFGBzuXqsUtqBlRsT2bZcyL7sWLf5/ve5JCkSR6Q0GaB4qqHW2FaU5L+z36NaEQB2r5IeaGgjScqJjzaOsLPZBMEU1DQXTC3iNjO+iXXDyic0vZ0/RAMkW0JEJDwYTI9Dk/eiCZklhTrUXcUFCUoQeSKYmOmKdaiyHTe+w8m5OUuXzfKxSKYBB7Q0FSDyRvlrImvu8NCoWAhoLMLQF8aRMu3IHktxakq/i+FygUYnA/zaROb0K9wfeXOBGC/0BImdfRHwy+P3sKhVgSoaEgr5EyYfSH4a0FqiV8f9YUihgbCnbz/iUXQdwyZhi1xH73Y8nP8P3ZUiiibyjolrEtfH/pSYxbyvTRA8kUyjyTKA0FY5gOvEKlB5IpFH7ZvFBehjY1CkAKwouUaaMHkikUAZIIDQXnICp6IJlCIYG3F8q1idBQ8H6hB5IpFEJJqIaC9EAyhSIO3l4oT5reyxUUpagWMqV8X2MKhRKvhoJS1s+7aGJwINnzjNxKbxIKReQ0JWk/gsTlkTGdfMvncQ4ku6Wske9rSKFQeGoo6JYxFwUgo0cOHt0ilWfQm4RCSXBmNqFKmcOCevSTMrfcMva1N59mU/i+RhQKRYAIoqHg9IHkd6Spi/m+HhQKhQBQh02PlHlrum40XyuqPreU+ZvNT6U+zffvT6FQCMTzjHIpHgoqY7riJioZexxNFdqUnPxhvn9fCoUiki4RkToX+xN8Pu+JBIV24DO7kQjfekah5vt3o1AoIge9sXNL2TUeGfsNj5T9jVvKnHJLmWtuGTsUaTPMjk4PkL0UOZjN/AvaSoEOam9/mnmK75+fQqFQKBQKhUKhUCgUCoVCoVAoFAqFQqFQKBQKhUKhUCgUCoVCoVAoFAqFQqFQKBQKhUKhUCgUCoVCoVAoFAqFQqFQKBQKhUKhUCgUCoVCoVAoFAqFQqFQKBQKhUKhUCgUCoVCoVAolDnz/wEkrUJFMEjr9QAAAABJRU5ErkJggg==;" vertex="1" parent="1">
          <mxGeometry x="409" y="85" width="50" height="50" as="geometry" />
        </mxCell>
        <mxCell id="qBCmXweArAfsTmJJ2IWV-4" style="edgeStyle=orthogonalEdgeStyle;rounded=0;orthogonalLoop=1;jettySize=auto;html=1;" edge="1" parent="1" source="qBCmXweArAfsTmJJ2IWV-5" target="qBCmXweArAfsTmJJ2IWV-7">
          <mxGeometry relative="1" as="geometry" />
        </mxCell>
        <mxCell id="qBCmXweArAfsTmJJ2IWV-5" value="Daily Cron Job" style="shape=image;verticalLabelPosition=bottom;labelBackgroundColor=none;verticalAlign=top;aspect=fixed;imageAspect=0;editableCssRules=.*;image=data:image/svg+xml,PHN2ZyB4bWxucz0iaHR0cDovL3d3dy53My5vcmcvMjAwMC9zdmciIHN0eWxlPSItLWRhcmtyZWFkZXItaW5saW5lLWZpbGw6IHZhcigtLWRhcmtyZWFkZXItYmFja2dyb3VuZC0wMDAwMDAsICMwMDAwMDApOyIgZGF0YS1kYXJrcmVhZGVyLWlubGluZS1maWxsPSIiIHZpZXdCb3g9IjAgMCAyNTYgMjU2IiBmaWxsPSIjMDAwMDAwIiBoZWlnaHQ9IjMyIiB3aWR0aD0iMzIiPjxwYXRoIGQ9Ik0xMjgsNDBhOTYsOTYsMCwxLDAsOTYsOTZBOTYuMTEsOTYuMTEsMCwwLDAsMTI4LDQwWm0wLDE3NmE4MCw4MCwwLDEsMSw4MC04MEE4MC4wOSw4MC4wOSwwLDAsMSwxMjgsMjE2Wk0xNzMuNjYsOTAuMzRhOCw4LDAsMCwxLDAsMTEuMzJsLTQwLDQwYTgsOCwwLDAsMS0xMS4zMi0xMS4zMmw0MC00MEE4LDgsMCwwLDEsMTczLjY2LDkwLjM0Wk05NiwxNmE4LDgsMCwwLDEsOC04aDQ4YTgsOCwwLDAsMSwwLDE2SDEwNEE4LDgsMCwwLDEsOTYsMTZaIi8+PC9zdmc+;fontColor=default;" vertex="1" parent="1">
          <mxGeometry x="569" y="85" width="50" height="50" as="geometry" />
        </mxCell>
        <mxCell id="qBCmXweArAfsTmJJ2IWV-6" style="edgeStyle=orthogonalEdgeStyle;rounded=0;orthogonalLoop=1;jettySize=auto;html=1;entryX=0;entryY=0.5;entryDx=0;entryDy=0;" edge="1" parent="1" source="qBCmXweArAfsTmJJ2IWV-7" target="qBCmXweArAfsTmJJ2IWV-9">
          <mxGeometry relative="1" as="geometry" />
        </mxCell>
        <mxCell id="qBCmXweArAfsTmJJ2IWV-7" value="Scraper" style="shape=image;verticalLabelPosition=bottom;labelBackgroundColor=default;verticalAlign=top;aspect=fixed;imageAspect=0;image=data:image/png,iVBORw0KGgoAAAANSUhEUgAAAyMAAASwCAYAAADohpWmAAAAAXNSR0IArs4c6QAAIABJREFUeF7snQe4FtW1/n9Rem/SkSKoFJEuRZTeQRARFHvFqDE9uSn33txoYm6i0URjYuwFFRQEqdI7UlS6IEoRpEhvgqD5z8vM+V8klO+c85W956z9PD6EMN/std+9Z2avvd71ru9gzRCAIsAlQG/gcqASsBGYAowHPgKOGFCGgCFgCBgChoAhYAicAYGiQGOgJ9AGKA2sA8YBU4FPgWOGoCFwIgLfMTjyNALnAvWBnwEDAf395HYIeBn4Y/RC+SZPI2aDNwQMAUPAEDAEDIGTEdD+4VLgP4HuQIFTQLQHeBj4O7AP+JfBaAgIAXNG8u46qAk8ArQHSp5lLcgB2Q28AzwIfJJ3YbORGwKGgCFgCBgChkCEgPaRzYBfBpGPK6JIyJnAOQqsB14D/gTsNyQNAXNG8tYa0ElFPeDugHo1CCiVg+HrZGNYQOX6B7DC6Fs5QNB+YggYAoaAIWAI+I1AIaAVcAdwzWkiIWcaoaIiG4AngaHBvmSLRUr8XhC5sd6ckdyg589vFT6VE6KXxp1A4SSYfgB4MQq3rgK+TsI97RaGgCFgCBgChoAh4C4C+YFawE8jerdyRHLT5JRoD/EYMALYZU5JbuD087fmjPg5b9mxujzwF6BTFD49Jzs/Psu1om+J96nENL2YNifx3nYrQ8AQMAQMAUPAEHAHgepRzkePgOZdPMlUfyW1iwL+OPC0HXC6M+npsMSckXSgnP4+5HDUAe4FBkdOSKrnWqcZb0enG1LfEi/UmiFgCBgChoAhYAj4i4Do3UpMHxLRsUqkeCg65FwZieaMBXamuD+7vQMIpHqD6sAQ85QJms+LIwfk9oBCVTEDo98bqW+9AHwQKGuY+lYGJsG6NAQMAUPAEDAEcoGADjUbAt8NnINrI6GbXNwu2z8V9Xt+lFMyIRLRyfZN7Ad+IGDOiB/zlIiVmss/B/K7N+cwMT2RPrJzzcHgNGVkcKpxP6Ckd2uGgCFgCBgChoAh4D4CErf5fUCbujGIUOQ2JyS3o1VOidgWP4ko4SYHnFtEHfy9OSMOTko2TcqiY10XnCCcl2QOZzZN+bfL9dKQIzImCrlKfcsiJblF1X5vCBgChoAhYAgkFwEJ3Wg/cV8UCSnn2H5ChZcXRnuJaSYJnNzJz/TdzBnJ9AzkrH/Nm+qEqFCh1LH0v11v24A3AxWOl4JK74stOc316TL7DAFDwBAwBPIAAqJjSW3z1kjyv5JjTsjJUyCnRJXcnwFE31JhZmueI2DOiF8TqJeGksduiaqmV3D8pXEqdJVTomJHKp4oB0UKGtYMAUPAEDAEDAFDIH0IaD+hPcSPInq3IiE+ta+CSu/vBbkkD0Q1z/R3a54iYM6IPxNXOYqCKBKik4tkSvSmGwXRt1R1VRXdfxdpjBsPNN2zYP0ZAoaAIWAI5EUEqkaJ6fdEiek+7wW/BOYGtUn+K6JxmVPi4Yr2eQF6CHeOTJbjcRugnJD6ObqD2z/6HBgFSH1rkeWUuD1ZZp0hYAgYAoaAtwioWKHoWFLHqu35oebJk6ADzklBtOepiMZl+akeLVNzRtycLEU9ygBdg5fF/wQb9Roxe2mcCnUluquiu14kKnxk9C0316ZZZQgYAoaAIeAPAtpP6FBTyliKhFTzkN6dHbRViFlKno8Eh7irAYuUZAe9DF1rzkiGgD9Dt0WAm4IIwX9GdULy2hwdDrTNR0QhVzklRt9yb42aRYaAIWAIGALuI6CckDuAn0cSvXlpP6EDTRVi/k2UU2J7CYfXa15amA5Pw3HTJMuraulKTm8ASGYvLzfRtyQJ/M9IfcteJHl5NdjYDQFDwBAwBBJFoCxwd7SfuCAPMCvOhMsXwETgf4FliQJo16UXAXNG0ov3yb0J/5JAjyCU+ItAZeqiQGUqX2ZNcqp3OSA7Au3zV4HnosJHR52y0IwxBAwBQ8AQMAQyj0CWOlZ/4N6oZkheP9Q8cVa2Aq9HksCibxkVPPNr9v9bYM5IZiZDuBcOTvx7BxGQ30YvjcxY4k+venEop+Th4LRnvb1I/Jk4s9QQMAQMAUMgZQhoP6Ec036ROqVYFtZOj4D2Ek9E/60z0Rw3loo5I+mfh2KRkoUSyS4BCqbfBG97VKREIdfRwF+Bpd6OxAw3BAwBQ8AQMARyh0Bp4K5IIUt0LGNWJIan9hKbg2KPw4A/BZS2LYn9zK5KFQLmjKQK2W/fVzgXBfpG2t6NgxP+QunpOpa96EWigonDgacj+paFXGM51TYoQ8AQMAQMgRMQ0H6iVCT3PySgHl0M5DeEcoSA5H8/C2SOX4nKC3xqkZIc4ZjrH5kzkmsIz3qD4kD7iF6kl4ZhflbIsnWBckj+HkgX/gNYA1hOSbbgs4sNAUPAEDAEPEAgi47VObD1v6McUw/M9sZESQL/HngZUH7J195YHgNDbWOcuklU4lhP4CdAi4DLWSB1XSX5zpVKwRaV/fCmKVKyK5LxU07JWm8sN0MNAUPAEDAEDIEzI6D9w83A94ELvaJjFcwHR7whLihSsilKcv8zcMAWZnoQMGck+TjrpSF1rAeA5hE9K/m9JPuO+c6B9o3hxi5Qpyos+xRenghzVsA33qjqZtG3VPDoL4FU8sd2upHshWL3MwQMAUPAEEgTAsoxleT/bUH9rYbe0Lu/8x1odync3RsqlYOZH8IzY2HD9jTBlutuxLBQnbOhERVctHBrKUTAnJHkgVsiomPp5KKtN3VCihSAS2rBLd2gQ9N/R2PMXHhpIqzaCF95c7qhcXwZvUSej3JKjiRvqu1OhoAhYAgYAoZAyhBQnRDRsX4Z1R1LWUdJvbGiIA1rwj19odUlcM4JW8z9h+DFCfDOXNi43adDTh1q/iFguIyLclUVPbGWZATMGck9oMKwVVQxvEvub5emO+jkon41+On10PRiyHcGOfKjx2D2MnjoZdj0hW810cUDfSOaH/FAvQnzpGklWDeGgCFgCBgCbiCgD3GvyAnR6aBqh7jftAu6sCo80B/aN/22E3Ky9XsPwBtT4cm34bA3KZ7aNyi5XcpbOuC0w80kr0pzRnIOqCT0LgsS0n8TVApvBigy4j6esvCyunBHT2hyERTNhqjXrn0wcwk8MRI+k8KuN00nGTsjSWBVYdVJhzkl3kyfGWoIGAKGQKwREL37qignpFFQLbyIN6OtVBp+Phha1oeSxRLbBX39DezYA+Pfg8ffhENf+TJcGfoR8FSkvnXYF8Ndt9P9zbN7CEqiVzSsO6MTDD8S0wvkg0tqwm09oF3jM0dCzob54a9g2FR4Yxp88rlv2/rdJ1R0XwXYy+Rs823/bggYAoaAIZAKBETHktrm/cDl3kRChMRFVaFfW7i+MxTMhbKw2BavTYYJ78EmnRl60XTAuTDKTZ0U1T/zwnBXjTRnJPGZ0dOmSMgPIyckF09f4p3m+spzz4FqZeGBAWFOSKEk+k679sPoWfDMeNixF/7lVbBBcmGjgEcAOSVeJcTkel3YDQwBQ8AQMAQyhYA+xN0DtaYfA629cUK0YyxXEgZ3hMFdoITOZpPUPt8BL02AEbNh78Ek3TTlt5FTsijaR4wN1FO9MTzlyGSzA3NGzg6YOJuVomRoRUSkbuEHbrUqws8GQ4u6ULgAKE8k2U1KW7v3h5GSp9/xKdwqJOQ9SbpvepDw/rOgiNRqK3iU7AVi9zMEDAFDwBCIEFBOiA41/xhI0ftFx9L+4d6rYGCH0CE5JwXpLKJvbdsFz46B16aB/u5HE31rSXCo+auAOTPFVDyzP2kp2J1m3whHf6GcEJ1YiI7VP1BTKOyond82K/+50KAm3NAZOjaFwgXTZ7ZONuSUvD0btogN5VXbH0VKngQ+NPqWV3NnxhoChoAh4DICCiFcCXwXkNCNH8wKIVq2OPRqCdd1hpo6l01TW70Rhk2DCQtgh3RovGhySmZF9K0ZwF4vrHbASHNG/n0SFD69NJBwuydyQpSY7ke7oBLc0hV6X55eJ+RkdJRHMvRdGLcAROXyqynMOhz4G/C+nXD4NXlmrSFgCBgCDiGgQ8w2Ud0xSfWm8XQwlygULQidmoZ5phdXz+XNcvhzUb8/3gQvjIdJi2HfoRzeKO0/k0yYIiRPBGqrE40Gfnb8zRn5NkZyPF4BOnkTCZH9pYrCf90C7RpB4UJukMj0EvliD/zpdRg917ckd6GqOiVTgSFBdGyzqW+d/WViVxgChoAhYAgcR0B7q4uAZyO1zSQma6YB4ZYXw2/vgCrngfJOM92++SYsK/DQSzB9aaatyU7/ipToUPNWYI3RwE8PnTkjoY53Y+DugPPXT+lZ2VlpGbtW/M0Lq4R0rC4toJRSWRxsckoUblXhRKllHPRGwi8LTMWHxwTB6r9GiWqW6O7gMjOTDAFDwBBwAAHRr0Tvvhfo7U3FdAEninebBnBr9zDPNBU5IbmdIOWQrFgHQyfD5EWw3xsxTIV0dLgpwZx5Vqfk3xdCXnZGlEjWALglUFMaGCWp5/ZRSc/v5YQM6gjdLoOynrDIjn0NKz6F58bDzKVwyLuaQbuiOiX/MKckPcvcejEEDAFDwBMEFPloEdG7pZJV2hO7w8hHk9pwcze4shEU8CCd5euvYeFH8OxYWLAaVG7AjyYa+Ajg74Ga2ntGA/+/ScuLzoicEEU//hu4IVLHcn8ZKxJSrDDc3St0RIr7UxPpW+BKfeujDfBfz8GqjXD0a/ex/7aFOuEYHalvfW5cUN+mz+w1BAwBQyBpCEjopkZA6/4D0MOrSIgiH2WKwUN3QOsGfjghJ0+bIiWrtZ94AVZt8Gk/kbWP+GnAytli+wg3sguS9lZI4Ea1ozoh10ojIoHr3bikShm4sQv0uwJKFo/HrClSsmQtPDEC5q8COSl+NUkCi771qCW6+zVxZq0hYAgYArlEIEui9yeAEtOTWHAjl5Yl8nOJ3dzdBzo3gyKFEvmF29d8dQyWfwpPj4YZS33aT0jhZ3zgxD4MfOA2yKm1Lq9ERpRIdiMwGJAshB/jrl4erm0f0rGqlEtNnZDUrq+z3/3glzB/Jbw2BeYs9+klkjW27dHLRPStBRZ2PfuU2xWGgCFgCHiKwIk5pn2B87waR7Xz4Oau0Lk5VCgdvz2F6N8zP4Q3psK8VT4VYlZ05K1I8EClBfJc82NTnrNpUfi0AnBHpO2tl4b74xUdq1wJGNQOBneF0sVzNnrffvXVUXh3Ifztbdi43adwaxbS4oK+EUVKPga8IbH6tlTMXkPAEDAE0oyAEilqAfcBNweJyP58mLP2FFdfDjd3h7Il0wxdBrrTfmLBR/DIG7B2Myhy4kdTXRIpsEkSeBMgieA80dzfnOdsGs4H7o8ckVI5u0UGflWyCAy4Eu7sAyWLxu/UIhFIjx6D91bC/7wAG75I5BeuXaPMfOWUPBTUqVlmUn6uTY/ZYwgYAoZAwggoEnJhUAT355HQjV+cpuKFQU7IPf2gVEwo3glPnbbyx2Du8tApWbPJpxIDooG/EOUiySmJfYubM1I1OrW4LUoqc0AgO4E1JCfkpi7QvSXUqpw3nZCTYVKNkmnvwxvTYfm6BEB07hLRt1TsSMUTRd/6xjkLzSBDwBAwBAyB0yHQJGJVKDG9ohfMiqyRSCHr+o4woB3UqeqmTG+61p3SUffsh+kfwOtT4cNP0tVzMvpZe4L6lpcboURBiIMzokSy8tGphaIhUrZw3wkR8hXLQKcmcHsvqFAGzonDdCS69BK8bt9BeGkCvDMvpG/5l+iusKvoW8opWWH64gnOu11mCBgChkD6ERAdq2aUX6qCt9pb+NMUCWlVH344AM6v6EbBQpfQ238IpiyCFyaGkRKpcbnfZORO4M/RXmJ9HA83fd79ynblgdwUTMx/esXhLJQ/pGM9MMBfid50P8DigL42Gf76Fhw44lO49USkhkb0rdWW6J7uBWT9GQKGgCFwWgR0gFklygn5gUoAeoVVvnOgaR3471uhloZh7YwIyAkZPhX+OQY27/Ip0V1OyYOBw/yi4j34uhM6xeT46ozICVHFdNUJuSCYHCWru99U4VR0rL5tQzpWPgV1rCWMgKq5b94B78yBVyfDFwo6eNUUMFbxxHejRPdFXllvxhoChoAhED8ElJguB+SqyCFxn1lx4hxc3gDu6AmX1o6HTG+61pf2Ezv3waSF8Pw4n3JUFSmRSM6rEQ1cDor3zSdnRLaqNkj/6PSiLuDHbr5scejQJKxwWqsSnOuH2c6u7m++gc93wqvvwug5sENS3d41vUBGAk8DS42+5d38mcGGgCHgLwL6COsg85ZI9l/hBH/2QzrYbFwnzAtR1fQ41ArJ1FqSU7J7P4yaDa9MCg88/Sh7porRyiN5HBgOSPHHC97Zqabah4dPNqpieu9AG+GXkbxeppZt4v3KavE3OzaFB66BSv7UWEx8kA5cuW03PDUSxi4A5Zf42bKk/FaaJLCfE2hWGwKGgBcIZNGxrg9yS/8HKOCF1VlGKjG9VkW4tQf0v9Ir070wVnXPnhsLI2bB1t0+5agqUqLCiW8Du32kb7nujOhFcSdwD6DChX7QsaTrLTm923pCjYpGx0r1W0j8z43bwlCrXiJHdWDgVdM5jDhnk4OXyH8BckqsGQKGgCFgCCQPgRLBYc8vIrGbat4wK7LGL4bF9wdAl+ZQqljyULE7fRsBieTs2BuyLp4cAYe8KRmmmiRySp4CngMO+TS1rjojqsozMKoVIo1vP04vCheA7pfBwPZQryYU8MN38mnBntFWaYqv3givTYWxc+FLL+sF7QDGAX+J6FteDiI2a8oGYggYAj4joD2OKFgqfqwcUyll+ZUTUrks3NAZ+rUNiyDrsNNa6hE4TgffER5wvjYFdnlDB5f39EEg8PQkMAqQ4c4Tz1xa1bKlDNAlckJaesPhLFUUWtaFIX3h4vPtZZH618SZexAHdOkn8I9RsGA17P8y0xblpH9xP5VP8jywxHJKcgKh/cYQMATyKALKCakO9AV+5p1Er3ZD5UtDn9Zwe8/QCbGWOQS27ITnx8KkxbBF6luZMyUbPWsPIZGcR4FJkXhONn6e3ktdckYuj06DL/Xm5ELo9WoJd/WB2ios5BKc6V1ITvamcOuKdfDYMJitEh9eNiXCjA9k/L4fUBY3ezkCM9oQMAQMgfQi8MPgRPhHQX2nSt4cap6Izx3d4Yaulmua3jVz9t6k4Pn3kfDqFF8cEo1JvPVlEUVRhZidTHJ3Zfd8Y5Du/UhUN+TsCyLTVyiJTMUKb+oGDWtBAb8kyTMNX9r7//JIGCl5ejTMWwlf+3GscQJOMlhJaTrd+EMUKXHyhZL2ubUODQFDwBAIEZDk/83A7ZFSll8f5iIFQtl/UbKqW66ps4tadPD1W2HEzLCi+6Ejzpp6kmGiiMyPDjal4OlUc8EZqRCEUj9UPXKnkDmVMcUKQbML4Zbu0KKuSfQ6P2EnGaiXyMwlYaGjFevhq2O+jUD2KlLyUvCxfTnihR72cRBmsyFgCBgCSUAgSx1Lapv3AvWScM/03kL7inaNYHAnaHShMSzSi37uelu1AYZOgqkfwI59ubtX+n6t/fZg14RyMu2MqH/Jmt6avnnIQU/S9L6sLny3b6jtfY5f+W85GHG8f6LEtEmLQqWMNZ/7VH31xHk5EMn4/SpIztxkFd3jvWRtdIaAIfBvCBSNIiEPBAXggvLjHtUJ0VDy54NGteD710ITc0K8Xd/KUf3kc3hkKMxZBUe80JwRXauPS6UEMu2MSDVrdSBFpuiIe02qFa3qwo8HQe0qUNAPUS/3gHTQIr1ADh0OaVsPvghbxILyrom+peOY6YEz8mtAiTFG3/JuGs1gQ8AQyAYC0rWV2qYS02toW5+N32b+Uu0r6laFX90M9WtCIdtXZH5SkmDBV0dD+pbqlIyeByo54G6T7G/9oOjneldMzLQzUjnaQJVyBZDjdujEolkdGNwZ2l5qLwunJicFxuw9CBPmw7DpsNyZZzO7A90TUBSGBR/nF4ITj/dNfSu78Nn1hoAh4DACWcWPewJDAlGPyxy29dSmaQSNa8PN3aBDE8s19W4CEzRYzIvFa0L61owlcNDZnBLlV4ny7UQzZ+TkaShdDP5jMHRrYZEQJ5ZoGo3YewDenB7WKfnsizR2nNSuFCl5C/gT8JFFSpKKrd3MEDAE0o+AihX2iNSxGnlT/DgLJ6lsVq8Ad/WCLi2gWOH0I2g9ph8B5aS+vxr+8iYs3+Aifev3kcJW+rE5RY/mjJwMikKoZYrDL28ITy8KF3RiosyINCGQRd8aNx9+8wIcdTrUejpQRN+Scsa0SDnjEx+KHqVphq0bQ8AQ8AOBQhGv/XcRHUu1Q/xqJQrBL26Eri3CvYQVLPRr/pJh7bFj8MkWeOhFeE9ZCc40c0ZOmAo3aVpZBtauDP0uh96XQ4XSzqwgMyQNCMgp2fQFjJoFI2fBpp1p6DQlXSgZZmRQefjFSNZP1VmtGQKGgCHgKgKKhPSKIiGqO+afE1KtHFzbAa5qAxVUy9lankZg30EYMxceehWOqeyHE82cEW+cERmqk4wa5WFgh/B0o3I5J1aRGZFGBDZshdemwNuzYbdErLxsom+pTsmfgYUuqWh4iaYZbQgYAslGoAjQBfguoCLI/vGZypeCHpfB9aoV4qYuT7Inze53BgQOHoaZH8Krk2Dxx6BCzO40c0a8ckZOXDiF8sGdveGmrlC8iIVc3XmoUm+J3iGHv4LfPAfjFrjI/0wUAxVXkfqWNPk/BbwstpLoYO06Q8AQcB4BcaHbAI9HCj+Zpo9nH7AC+eDKhvCHIVCksG8iw9kfr/3izAhI3ve9leF+YdMuV9EyZ8RbZyTL8IploGtTuLZjKPlrLe8gIPrWms/glXfhnXnwpbesJ0n7TQiqFj8JzLA6JXlnCdtIDQFHEFCdkK5BIdefBDWTlJiuHBG/mpQ3e7eEm7vDhdWsYKFfs5d8aw98CTM+hKffCWuPHHWGknWqsZoz4r0zkjWACqWgdyvodwXUqmIvouQ/2u7eURriyz6B16eCkt2PeBtgUE7JZOCJYGMwD/CiYpO7C8MsMwQMgbMgoMjH1cBdQFsv6VgqhNyxCdzUBRrWDssBWMu7CEg5a/w8GD4D3l8DXztFxzrdvJgzEhtnJGsgku5TovvdV0HlsvZiykuvJGmKfxqcgPzyn7BmMxxyVlP8bLOiEM+4IFn0t1HtH28HcraB2r8bAoZARhBQTogS0rUJEi3Lvx286Fg1K8JDd0C9mnDuORkB0jp1BIH9h2DRanj4FVi/3RGjEjbDnJHYOSNZAypaCDo3gRu6wCUXJLwi7MIYIPD117ByPTwxAqYv9XlAom9NAf43ipQ4HWf2GWiz3RDIIwjI6VBC+q+B1l7SsTRRKoR8Vx9ocwnk80/gK4+stfQMU/mjs5bA42/Buq0uKWRlZ/zmjMTWGckaWMki0LpBGMK9tI6dnmTn8fD9WnFGF34EQyfD7GWuqWdkB11pGcspUU7JHMspyQ50dq0hYAhECHQH7g5EM9oFSn4lvUNFhLL6NeCGztChKZRUmou1PIuAZHnHzIFh02DJp3DMyzpkWdNnzkjsnZGsAYq+1blZ6JTUr2kFFPPSG+zosfDk5C8jwkQ2cUr9bCqeOBr4C/BBVEzRz5GY1YaAIZAOBLLoWL8EOgW0LP8qB+vbfX4FGNwRBnaEgvnTgZv14SICSv9QnZBFH8GTI2DlRvAiJeSsYJozkmeckayB6nTl0lrw40HQvO5ZV4hdECMElFMy7QN4fDis3uzzwETXGgv8T+SUeH0k5PNEmO2GgMMIKCfkV0B/Vely2M7Tm1a6KAzpA4M6QaECXg7BjE4iAjOXwMOvhlXU49XMGclzzkjWgIsWhAY1YVBH6NwcpMhhLW8gsHs/TFkMz4wNOaZ+Np0H7QGmAo8Fp56z/RyGWW0IGAJJRqB5JNErOpYqA/vniBQpAHf2gr5toVJZqyOW5AXi3e2mLobnxsGydXA4liKT5ozkWWcka+AKATepA7d0g2YXQ6li9uLz7k2VA4O1lT/4JbwzB16ZFJ60qG6Jn21/pL6lnJLFgBLfrRkChkDeQUAV0htHEr3XAH4mVJQtDn1aw43dQidE32dreRMB5XwuXg0vvwtzlvuc85nI/JkzkuedkROXSc0K8N1+oWa5VW5N5AGKxzV66Q2dBK9Ohu17QXQuP5voW28Bj0b0LW+rQPoJv1ltCKQdAaljNQR+AAzyUqJXkEn9UsWLh/SD6hXSDqJ16BACqpj+wcdhTsiC1Q4ZllJTzBkxZ+SkBSaZwAsqwaAOMKC91SlJ6fPn0M0VFdm1D0bMhL+9DYe83ccfT/GLKrk/CCx0CGUzxRAwBJKHQKWoTkiPQGnvvOTdNo13UuCjV0u4rSfUqWrf2zRC72RXs5bCUyPDxPQvvf0G5wRac0bMGTnNuvnOd6B6+VBGsEsLKF/K6Fs5ecR8+42iIlt3wYgZ8NZM+HyXbyM40d69QS2BdyP1rUXAYZ8HY7YbAobA8eKEioTcAQwGinuZEyJFrCsahvToS61qep5e1wcPw3srYOiUvEDHOt1UmzNizkgCr4Hzz4NrO0CfNnBeSTjHKr0mgJr/l3y+A54eDZPeh517fZYQFO9sKPBPYIE5Jf4vTRtBnkNAUlIXAncCtwRUzBJeIlAoP1xSI4yEtG/qY2q9l7A7afShwyEd69mxMHelzzmbyYDXnBFzRhJcR4qUlCwMN3WFO3qb1nmCsHl/2Tf/gm274Nkx8OoU35PolNg+HfgxsMr7ubEBGAJ5AwElUfwB6Bs5IX5mdZcpBo/eB43rmExv3li3px/lwlXwp9dh+Qa/KqZLhbVzU3h7brJn0JyRtDkjks5VNfSd+30+YQ5PciqUDpPcb+oG55e3SEmyH0sX76dqrx9vgjemwqg5cOiIi1YmapNySiQJrET394A8Rc5NFCS7zhDIIAIKv9cB7gGu91bkHjGdAAAgAElEQVSiVwBeXA3u6g1XNoJiEv2ylicR+PIIzF8Bz08IIyK+FB/Wnq9sCbi9B/RoCeu3ws0PJ3sKzRlJmzOinIs3fxMmCL8zNx5Fa8qVhP5toUcrqF0FlPxuLd4IKNF9ySfw4gSYvQz2ea2iK+PfBJ6PnBJVeLdmCBgCmUNAOSG1o3yQWwNqZZXMmZKLnsUkqFM5rBNyTTso6afScC4QsJ9mISAnRBXTJaE/Y6lfdKwaFaDHZXB9ZzivVDiiBavgxt8le37NGUmrMzL50ZDetPcAjJoFT4yCfQf9jpQIwAL5oE8r+N41UL60Jbon+zF18X5KdF+1AR58AZZ6Fmr+dzzlhEwI6pP8FPgU8Fbb2MWlYjYZAgkgoPPXMsDPgNt0FpvAb9y8RJXSv9cP+rcL63ZZy5sIiOK8dhP88TWYtcyffZ6exMIF4e5eYa5wmZPSs8wZSfl6rgysCKo5R+5fkvtTZCTLGdGttVBVCXvSQvjrW7BDdds8b6WKQuv6cPdVFinxfCoTNl+h5hWfwpMjYfYKv059vj1ISQIfAESG/U0guCn1rViWuk14bu1CQyD1CGjrUyOQ4/4h0F8kYMBPhRTlhAzuDNe2B7EGTOgl9avHxR6O6pu4Hh4bHrIIfKI0aw0P6QM9W4VOyKnWsDkjKV916XVGThzO9t3w9iwYPRc+3pzygaa8g4L5Qm7hgHbQULKFRt9KOeaZ7kCFmmZ+CMOnw/yVcORYpi3KTf+SBB4dbJJeiJwTkwTODZr2W0Pg1AjUCoQkBkZ5IVW9lOjVuFQ1vXMzuKU71FTpE2t5EgE5Ie+vhjemh4fMX6kGryetZsWw3k2/K6DKWUr2mDOS8knNnDOSNTTJp741A16aBDskparDWo9b4QJw2cUhfevCalbQyeOpTNj0r47CjA/hT2/Axu1xUN8aBfwvsBzw2sNKeA7tQkMgtQhot6N8kCFRVMRPdSxRWa5oAD8cCOdXhHP8HEZqpzoP3F3iLms+gyfEDljqz0HccWJkCRjYDq7rFFLsE2nmjCSCUq6uybwzIvPlgKgIzrh58Ogw2H0wV4Ny4sfKKalfHf7jBqhf0xLdnZiUFBohH1pOybJP4DfPw5rPU9hZym+t0Sgyshi435ySlONtHcQXAeWB6Bm6N8oP8ZOOde53oF1D+OlgqFYBzvVzGPFdZmka2dffhE7I716GJZ+C2AG+tBKF4f6rQ4GFYkWy50ibM5LyWXbDGTlxmCo6N34+jJgFa73e0IWjUvJ+49owuBO0aQhFC6V8Uq2DDCOgvKiJC8Jq7svX+R4p2Q2Mi9S3ZlikJMNry7r3BQHlhFwXFSuUUpafu3c5IVdeCjd3g6YXWaTfl9WXbDtFx1q8Bl6bDDOWwJceKcNXLw/9LoderUNHOifNnJGcoJat37jnjMh8nct+sRvenB46JZ99ka1BOXlxvnOg+UVwa3doXheKmFPi5DwlyyitYSnIjZ0Hz4+PwxpWnRLllPwVeN+ckmQtFLtPzBCQGIxqhNynahve5oQo8nFpbbi9O7RuYN+rmC3ShIcjOtbK9WHF9JlL4JBHTojqhPRoERasVp04SU/ntJkzklPkEv6dm87IiebrYXhzWsjH3x+TnNpSReB3d8IVl0L+/AlPll3oKQJawyNnhnKHe2NR1mNmxH/fAHiUsejp+jGzfUCgeJSY/heJhPpg8GltrBIwy/771vD7ZC1vIiDqvAr+/vZFWLDaLwxEkR/cMczbTdahrzkjKV8D7jsjWRBs3Qnj5sOwabBuW8qBSXkHUtu66HzofwV0vwxK61tmLbYIKFIisYbXJ4f0rc93+T7UPcBE4B/ANN8HY/YbAjlEQInpUse6O4qEqIChn00FC2/rCZ2aQgkrWOjnJObSah2cqVL682PhvY/ggEcHwOVKwNVtQ3UsKbzlJhJyMozmjORyYZ395/44IxqLvPWtu2DkDBgxOw7Ul/CBuagqXNcRereGon4fqp19yeXxK1Rr57Ntoaz10Cmwx3uxBuWUjAX+Biw0+lYeX995Z/iiY90QFStsCPir5X5+eRjUIfz+JKoulHfmOW+MVHurjzbCixNg0iK/nBDVCeneAgZ3gRqVUiOuYM5Iyp8Dv5yRE+GQctErE+GZcaH6lqpj+97E0/2P68N6JaVVfCcXHEffscgL9u87BI+8BmPfC1/+vstawzvBkcF/BSfFq4AjUfZXXphJG2PeQEAv5JJAJ+CJqFihnyPXt6Vk0ZDOck8/U3v0cxZzb7UiIRu2hjkhOuD15RukQ1yJAfVtE9KxtJZT2cwZSSW6x+/trzOSFSnZtS+kb70+NR7qW/rcVS4L13WAvlfAeTqAsxZbBCSVuG0XPD0a3p7jl0rJqSdFoZ45wabtzxGNy/PCQbFdeTaw7CFQIKJjqWp6fcDfZD8deg3pBf3bQaVyduiVvXUQj6vldHyyGZ5+B6Z+APs9ymUsVRQGXAmDOkJlrd80CNWZM5Lyde+3M5IFjx6sL/bCuwtg6CT4ZGvKgUt5B/L85ZT0bgmDOkOlMinv0jrIIAJfHYNV60MFuTdn+i4HLCBV0V25JE8BU42+lcG1ZV3nBgHJHkqi945ATa4J4K8MYrFC0K8tXNMO6lRNDZ0lN0jbb9ODgOhYL4wPC/XuOpCePpPRS9GCoRNyTfswJyRfGpmR5owkYwbPeI94OCMnDlF62Epyf3EibP4CjsWAvqVw5B09oVsLqFbetN5T/lhksAPFETZtgwdfhkVr4IBHJ1anhk0jmhxw6n8bSQJ7nySTwdVhXacHgeN1moF2Ee2wgbcSvcJLxd6aXAg/uw5qVgFj/6ZnFbnUi2jtn24J64QMnwGKyPvSJNHbrTncd3VYPT0TzZyRlKMeP2ckC7Ksiu5PjYLNO1MOZFo6kGSdTgbu7A2VVNjXWmwRUA6UTrD++iZMXxqHSIkE6mcF9JaHgk3edMsnie3K9X1gOm7tFZSr/T1wkbfFCrNmQVXTxamvWz09dBbfZz+O9q/fAv8YDaPngXJEfGlFCsLA9mHBzYplkquOlV0MzBnJLmLZvj6+zoigEH1rx16YvAieGQObYuCU6FRLJwVtGsBtPeDi6tmedPuBRwh8eQQWrQ7D6rOXe2T4aU1V8URVclfxxElxGJCNIRYIyAnpC9wDtAD81VrXN+Kyi+HOPtCkTvJqLcRimvPQINZtCQ+z5q+Cnfv9GbjEFW7oFOaEVK+YXjrW6VAyZyTl6yfezsiJ8B35CoZNhTemh+FKn8KUp1sGBfNBr9YwuBPUqgyFC6Z8wVgHGULg669h7nJ4ajQsXwdHjmbIkKR1qwGIvvUo8B7g0dcyaRjYjTKPQGmgbVAF6H6gg9eRkPznQL0acHdvaN/UEtMzv7bSb4FyD9duCqnqomP5FAkpXQzaXwp3XQU1KmY2EnLyzJkzkvK1nHeckSwoDx2GUbPh76Nh+5440F/CkXVqHJ6EXVLLEhNT/thkuIOJ78HfRsHHm+PgVIs3oAjJw8BcwHsvK8Orw7pPDAElossJkRR1K6+dEJ0kS+zkR9dCp+YgOq+1vIWAaL3rt8KL42H4TL++C4UKhDkhd/WBC7QldbCZM5LyScl7zoggFX1rz4GwuM/f3oYt3lfDDheKEt2b1QkTvRpcYCdjKX98MtjB3oPw3kp46GXYqrqDXjcluUvWRZLA4urP9Ho0ZrzrCPQEfhqpYxVz3dgz2lexFNzXHzo2yVxyr9cAxsD4/Yfgdy/B1CXhvsaXJsXQ/pfDLT1COpbLTrQ5IylfVXnTGcmCVVug/QdhzNz/q1MSB/qWTspa1QsTv5pdZFXdU/4YZbCDrEjf8OmwamMcIn0qlqhIyePA/MhJySDA1nVMEJDT0Rq4E+gdOL1+c1qrl4f+V8C1HaC0v+ktMVlb6R+GDlQ/3gQjZ4Le/fsPp9+GnPaoOiFdmsHgznDh+W4fmn7zr7AOmCrTPz8hpyM+3e908PaLZN80p/fLtMheap0RcQDf+p9Q+SkdhWlyOgv63b6D8PYseOndUH0rDhXd5ZRc3gCubQ+tLwkjJ9biiYCcEsk2vjYVNu+Ig1Mi+pYquivRXfQtj7628Vxino5KLz3VB/lxpJLlb7FCnSSXKQ792sDN3aG80l2s5SkEdFi6aXvohLwy2a9ihaqSLnW3W3qG6m6Z3v2eaeFksWdGz4FX3oWNX6RimZkzcgKqqXVG1FGxwjCgLdx7DRQvnIoJTd49tQBV12HSQnhkGOyQ8E8MmooDXVARfjYYWtV33zGMAeQZGYLW7+794fr9rxcgHrXPDwHzgJ8AH2QEV+vUVwSaAn8AWgJFvK4VIkdkUHv4bl8oV9Le4b6uyNzYLdGS378EYxeAqFm+vN+1dnu1gO9eDedXcEMd60zzIJxfnxIqsO7Yn8qDaXNG0uqMZHVWrgT0agkDO0C1ipA/jdUzs/sC+P85JQvhhQmwbmscTppDFC6pCQPaQZfmUKq426cT2Z03uz5EQOtX4gxSj1O0Lw6S1mFkRJXc/xxFSuSkWDMETkZA9CslpD8QOLFdA2fE8ROws0xgsYLQtQXc3hNqVnab0mJrMfkIiCb0yWZ4YwqMne9XxfTihaBnS7iuk/t0LH0zv9gDo2eHKmTrtyV/Lv/9juaMZMQZyepU1WD7tAmdkguquK/8pEThUTNh2IxQvSgOTeFRSUBe1xHaNYLzSsVhVDaGUyGw6QsYNgVGzIYv9sYBIzklY4F/RAnv5pTEYVZzPwbRr0THuhsYoJh87m+ZwTsUKwRXNIQbu0KjOuaEZHAqMtK16Fgbt8LIWfDmDL/qhIief2VDuKELNKjllkTvqSZz224YPx/emBaWfUhfM2cko85IVudSTujTCn40CEqXcP+EXhXdJan6+6GwL0b7n/NKwD19YVAHONfhaFX6XhDx7Ekv3CdHhLKPcciHCiWAVTxRReo+sYru8Vy2CYxKRytVo9yizhEdK4GfOXqJKC11q8KDd0FdJfee46ihZlbKEFCh20dfh9emwVGPKqYrR7VjY/jp9SEdy/X21VEYMRP++lZIx0p/M2fECWckywglNXVoFGpMS97tXIdfvgrlKVKiiu7/fAc2bPeHt3mmB00fwCrlYFA76Nk6FBzQ/2ctXggo5L9hK/xzDExcAAdikROuQSjB/aEoUiI1LmvxR0DFNBQJ+WFQNLN7VDHd35eW3rctL4a7+0DTi92WOY3/2kr/CLW3EB38pfHw7mLY6VG+qoovd1Cds95wYTXI73CdG+XZ7NwbCgAoErJpR0hrzkwzZ8QpZyTLGMm9iV94TTu4uLr7Yekde2HcPBgxK5RUjUurdh70aQ392kLV8uaUxGVeTxyHnJJln4Q5JRMWxsUpkcD+xOCU/JkoYvJlHKfOxoTCty2Au4C+gN8c03znhDSsge2gc3Mo7LfisK3PbCJwPCdkE4yaExZj3u4RlVbqnJfXh4EdoUVdt50QTcuufWEZh2HTYe1mFw6SzRlx0hnJMqpoQejbBu7oDRXKuB0pkc17VKdkDjw1GnalVHkhm2+5XF5erjhc0x4GdzL1llxC6ezPxUtevQF+9wosWweHY1H8/KugnsS7UWXtZVbR3dnVl13D5IRUBP4DuCEQMiiZ3Rs4db0oLWVLwv39whxKc0Kcmp6UG5OlfPjMO+Hm2Kc6IQXzQ5Pa8KProL4Ojh1nsxz+CmZ8CI8Ph0/Tkpie6PIxZ8RpZyTLOCXwdW4GQ66C6hXcPqHXi0V1HiYsgL+NjIt6UTgTxYvAVa1CXftqFilJ9C3j1XXHvoa1m+DPw2DmsjgoxynuLrqWnBHReBYExaXkpFjzDwFRry6K6oRcGyWm+0vHEv4VSsH3B4SKhjpdNkqsf6syNxZLtemViaEojg4wfWlSQG3bIHRCtCdzmY4lTCV/PGUxPDo8FG9xL1fSnJET1n5ZYHWQ/Kc/3WySBG5ZL6zWeWlt9yMlqtapnBKddnz0mZuY5sQqfUDbXgLXdw5pdC7n9uRkfPYbUOLkeyvh9akweykc/SYOqIh8PRl4LoqYxCL8E4eJOcsYdNzaMKqYLjqWamL53aqUgUEdoWcrqHKe32Mx67OPwGfbQUX03p4NG7dn//eZ+oXqlHVrBv3bQfOL3XdCJDA0dk5IoV+2PpM5IWebsVuBF852Ubr+PdMnPHrhj4v02NM15pz1U6QAdGsRntDXruJ+4RzxE/XS0cZOL57MJUnlDO/T/apw/jCf5NoOYbKaOSXJxdeFuymsPXc5/OWtUM5akRP/mxLdlVPyx6AS96IocuL/qOI3An2T6kQSvaJj+b9rV9X0HpeFCb6qmi6KlrW8gYByQrISpl+ZBNv2+DPuIgWh6YVwf3+oV91tJ0SxcEVCZnwQigut+dz1PZe+R5cElNO1riwIF95KlYCPg490UVdAOaMd2vx2agQPXAu1Krsf4j56LCyk89hw2O6RQsbZFoPmoVlt+NUtoXPoMm/0bGOxfz81Agprz1kOD78Ca9Oqv57KGZFnpUruSoAWjetYKjuzeyeMgL6F+hZ9F/iB9xK9GrZoLVe3DSlZPsjXJzxVdmFCCOhA8vXJ8NQ78JVHrxl925vXgd/cEUr0uu48HzoC85bDr58LaW9+HPzOATq6dCjmgjMiG8RdE7dahaP8aFLfal0fbu0BDWq6vxlWnQfxF1+bDGtiUjxRK6VEEWhdLyxieVk9q1Xix9OTPSv3HICp78PLE2FlbJTjRNaeAvwzig5nDxO7OlkI6PtTAxgCKCekOu5XnTrz2BU9FhXr2vZwyQXub+aSNZN2nxCBLbtgxHQYORtUdDZjyrHZnBA5HT0vgwHtocmFbkdCNDRF8EfMCItC6rvkhxMiy3X4r3fdEpfqY7ngjAicItGJ1M+i/BFX7Dr706RE967N4bpOYVVxl2lDWRrXo1VVdRZ8qlDi2YfoxRVS2GhVD27qGvJKC/jj13qBrwtG6tRpwnwYOsUVacRkoCKnRDklf43qlVidkmSgevZ7iI5VMyhYeSNwC1ANcFiW5+wDQu9AHcjcexXUq2m1QhKALDaXaCOsJGltjodNg807/RlaoQLht/v2ntDwAo6vY1eb9kv7DsLUxfDSRFj9GXztzSZK4bH5gRv186gmllMou7bpLw48DvT2zinRtPZuCXdfBTUqhSFyl5t4+G9Mhb+PCqt/uqf0kHP0LqkBPxoY6uebZGXOcXT1l1q7z44BcaDjtXanAjqQEX3LnJLUrD85HEpGvx34iTf04DNhoQTfhjXhVzdBfflX1vIMAlk5Ie/MgcfegiMe6WNoj1S3GvziRmh8odtTJmfv4GGYvwJ++xJs3e22vd+2TotiTZSv+ArgZBKma86IIFT5TCUQ6mNxdySl6M/EizbUpn6o+tTsYrdD5HrAxCudtAhenACfbvUH57NZWiBfmPR2ew/o0NR9wYGzjcf+/dsI6DBqxx4YPx/+OgL2xabGoCIlM4Nieo9FEROb+eQhoGT0e6LvimqG+B0JES6X1oJ7+4VF3+zgJXkrxYc77d4PQyeFypl+bY6hXcNQDEgHhkpUd7nJwRs5A156F9ZvA9XH8qPpKykq1qPAGMBpD8pFZyRrmuWUyF2+LgqjV/GKy6viia3qw41doHldx+lb/4Ltu2HCe/D6NFi3JV70rYurwcD20K1lqKtvLT4IKKK3+QsYMTPkSIsvHY8m2RtFSv4WJBrOsjolOZ5UfePkhNwWUbL0TdG3xe92/KClO7RtBCX90H7xG3CHrN+5L8z9HDkrpGP5kqsgCvvxg9pO0KKe+99iqWNpTyQGyaqNcMwbJ0SRDzkhTwLv6NjOpdyQ0z1JLjsjJ9pcLvgY/wK4GqgKOM6BOgnujo3hjl5Qt7r7p1dHvw4LIr06GT7f6dMpwNm/FrUrw5A+0OYSKF3cfSW0s4/IrjgRAem7S3lr2oew+4A/H+mzz+KoIEL8J+B94NDZL7croqiH1LH0zfh1LCR6tZmrUSHczCnJ12VuvS3B5CKQRcea9kEoea78EF9a4QIhS+F7/cOcJpeLbMqx23swlJaXAukGj+qxhNTeVZET8iLgEWfPL9UQhdQVWpck5veC3JLSvjyLx+0UbajFRaFmtkKTLjc9kFmnAk+Ngs9jc9ocqp5JCe2+fmG9kiIWKXF5KWbbNn20t+6EVyfBCxN8Os0621DFQxN967cuJh+ezfg0/3upiI51byTX6z8dq2RhuKcv9L8SSlgkJM3rKbPdqRjsWzPC+hXb9vp1yNLqYhjSN8wJcd15VhmEt2fB06Nh8y7fDmJXAH8A3gzyDr3kLPsSGTnxZSCpBWXpSZrsvoDGUN4r+lbxwmEhnzt7hQ+o0+pb/4IsSWAlDOsBjUsT7jUrQvcWcEPXkOrg8olNXHBP1ziU5P7RBhg+Hd6eE8owxqOJvjU9om/pT69Ov1I8BVJl1GHVHcBFsaBjlS4GN3eDPm2gUhn3JeRTPMF56vY6EBRFSHSs9Vv9OVjRrvLyS+CGziFF3XVqtL4No2aHWEsdyx86lnhjioSoNIYUGRXG8Uba6+Rn2Udn5MQxKI/kAeAa4Hzv6FvdIklgydm5nsSlU4MXxodV3T/dAjqBjksrWyysF9P9Mqhczj74cZnXrHF8vAn+NhJmL4tTors+RMopkfqgClg5nZyYwiWlb5jUsboFFLafRnmGKewuTbcuXwo6NYEhV0GFMmnq1LrJOALHJXr3RKIyE2HDtoyblLAB2sOo5trdvaFVA7cPWjWovQdg3kp4bBis8wjnsFCunJCno/9icdLmuzOS9Zwop+RO4P6IyuXPuFTop009+MHAMKfE9UriB76EMXPh8bfixsuHEoVhUIfwJLJsSYuUJPwV8uBCOc+r1sOTb8H0Zb6F4M8EsJySuUF0+DdRxMSjUsu5XjeFgwJegyMnxHHua4JjVcRWEvE/uBYqlk3wR3ZZLBCQdKy+rcpV2HXAnyFpD9OkNtx7NbSs5/4eRlHzGUvCb8EKr4ro6gT4M+DPUbHcg/4skrNb6s+m/exjUVK7IiW9gvD8g4E0pnjD/oxPoUypPukkTCFOl50Snd7s2Bs+0M+849upwplXklZMuVLQtRl875qwwrvRt87+9PlyhULyyz4NIyVzV/pidSJ2aveyKEp0n0h4ehbXJi1QUbFEyRIdy3Ft0ASmQe+da9vBoI5wQRX3+fUJDMkuSRABScdKNEYSvZt2gDbLvjTlwUoUptGFYf6lyzsu4TrtfXj6nZCOdcSbV6ScEEW+VaxwfPDe+xzwRtor0aXs8tJJdAynuk5HSqpRcj1QzyunRKcMckZ0Qi/t+OKiQTvc9CKVrKoqv0r+TmpccWmqDNu/bZg0etH5VqskLvOqcejDNG95mOS+eA18GYtIt0amB1D8YUkCK+FdOSZxaZLoFR1LxQovicWgCucP1f0kAd+yfiyGZINIEIGtu+DdhfD6FPhkS4I/cuCyAufCxdXhth7QuZn730XRseavDCumL1LtP2+aHI6lQd29VwMhjn8AqkEV2xZXZyRrwkTfklMiClc1r4pcaWZa1g0VVBrVhoIF3F6Ehw7DxAUhfWv7njjRYKBYIejbBgZ2hFqV3X/5ur1S3LJOTsnU9+HJEfDx53Fat/qQTYuq7s4ITtUOuwV8tqyRfFR34MfByeBl2fqlqxfnzwd1q8L9A6BVPdDfrcUfAZ1x79kPkxaGJ/SfqQSEJ00Uwrrnw23doUsL99esouDKE3xuDCxe6wnIx83UgdIG4Cng+SD9YKdPxufU1rg7I8JFso5S3FKS+yMS2c0pWBn5neTw6lSGnw8OK7q7TBkSfUu81znL4OGhYZ2SuDQ9KYUKQsuL4Rc3QbXz3J6LuOCejnFo3erDtWg1/O5l+HRrOnpNVx+qS7IskHv8WVQ80afwvnboPSM5Y+WExEOH+/zz4Fc3WdX0dD0BrvSjAq1DJ8MzY2D7Xr8OPqqWhV/dDC0ujuhYDm8dVSF9/nL4w9CQQv6VN3QsrVQVkJEQx8jICfHpfZ2rJ83hFZWrcZ3uxwrz3wQMAhp7pb6V79wwUqKCV0oSK6rcTYebnJJx86PqpRt8kss7O6hSDbniUhjUPqwZU9h/yvrZB51Hrth3MFSyefldWLPJrw3Dmacoi771d2CK4yF/yUf1AIYAbWKx8kS/rXc+XNcJerd2P9IdC9AdGcTu/WH09cUJsHqTI0YlYIbW7KUXwE1doUMTEG3Z5SYpZB2EvvIuLPSKjqV3sw6MVKhQlKwvXIY5VbblNWckC0fRt5RPkpUA6U+MXJGRtg1CxSdFSlx/QUh9a8J7oSzw2s89VsE+xSOosHXnpqGDKKfE9aJOqXqLxPG+Bw6F2vNySvySfTzbbCg5RvQtSQLPCqhPLsn2FAts6hjlhLT06rDodKhrQ1elHNzcFXq3gVIaorU8gYA2x9M/CN8hSz71Z8g6+GxQI6wT0qGp+3VCDn4Jc1fAyxNDJ0QRKD+anJBPghSCZ4GXgsOXWIXkszsFedUZEU4au7LDRd/6a0DhKp5d8DJ6vT5yVcvAg3eF4X6X6VsCSjQYvTB+8XQoCRynJuWz6uXgkfugXg335yJO2Kd6LPrQjZkHv381TknuQk3FEj8MpCJvD96ByzNcLEvv4gbAM1HEWoVt/W/5z4UfDoBrO0AxxyPZ/qPtzghE+5y7HH78JOw+5FfF9NJF4OEh0LoBFHD8MRTOK9bBz/8Oa7f6hTNIlldCHK9EB0IxKtyWs0cxLzsjJyIm9a2+wD1AI69O5OSUNKwFN3WBKxtBMcfVtxQpOU6DmRiqb8WpeKI2H5fWhrt6QZML3VdCy9k7I2/+atc+GDYNXpsCW2NVX1Cnc6rk/gTwbsBXVo5JuppeVl2A+wIb2nn13j0TQiqiKjqWVPhURNVa3kBAkRB920QTWrnBHxbAcTpWLbijV6js5jrtWGI5M5fAc+P8ijiFcrwrokKFw4P9pleVFlP9EI5Mq+AAACAASURBVJsz8m2EKwaVLQcCt0TSkapd4k+T5rd06o87JY6fxO0VN38hDJ0CK9f78+JOZDXoqWp2EQy4Ejo2c38uEhmTXROu0Y1b4e1ZMHIWbImVUyInRKpbT0Z/pjJ8Ka7SlQE3+t7oT8dPUBJc/GVLQPcW/1crRJs8a/FHQHlmygl5Yxp8sNafE3rRseSEDGwP7ZtACYnWOdwUpVZOiPYMEhvxp4yAvhxyQl6OckI2O4xyxkyzt+WpoRdlSzklvw7k1SoERRQ9yikBapSHh+6GBjWhQD63aUNfHgm11v/3dVCin5Qw4tRqVIBf3gjNo/we1+l0ccI+lWNR0c8/vQYTF4X0LVEG4tEkPaOK7pLRXRLRuZI1OL1HFXmWqmFrr96rZ5pb5e01rRMqZNWs5Pb7Nh5rNPOj0PP+1dGwgOpPn4LNuzJvU6IWKNexYmn4yaDwsEx7BFeb3jxHj4U4//4lWCbFW2+aos5aGA9FyelSykrWu9QbEBI11JyRMyMlp0Q0AkmtNfWKRqBTOVV0F2WoQzP3k6sPHYHJi0LZQ58URxJ90pTEqrno2croW4li5vp1ohhu3w3PjYXh0+FQbAonCnnllCwMqpv/PlLf+jIX0yHyuZyPX0SRkHjIz537HWjfCB64BupUMyckFwvEq58e+SpUinxmbCjK4lO7oCJ8/1po29B9OpYOKhUJ+fNwWLfVp4NKORyrI+rrGwEN1aNiMplbzOaMJIZ96eCUsF9QiObW6KOq2iV+NIViG10A13WEdo3dpwzt3BcqkEiPfUXM6Fs6kZKD2K05XNUWKkjB1Jr3CCiat2QtjJgB496Dg0e8H9IJAxBdS5XcJQmsyu7ZcUrkhFwe5eJ1ChS89B71vyk3rG1UNb3JRe4rGvqPuBsjEB1LB2bDpsOydaCCqT407fLq14T+baFTcyhfym2rJXYz/X14fRosXuNTnZAsOpaUsV4HpONskZAEV5s5IwkCFV0mrvNVwanhLwMptlrBqaE/J3yiBzWoDvdeHeYzKKfEZcqQEt3HzIXnx8NnX/h0KpLYiqpUGr7bD9o3hjIlQI6KNb8RkKTkxu3w4Iuw+GNQtC8+TWEfOSUPBjVAFkQV3U/3oVVBgobBNT+P6oU4nsCW4CTJCaldGb4/wA+1oQSHZZedAQHRsZQw/cHHYRG9jyVP78n+Mt85oYDCjZ2h35VQ3PHH8Ihob5/Ao2/A+5/4g3NYMV21Qf4R5dwpEuLJInHn6TdnJGdzISekD/AfEQfaLxwrlAw/qD1ahlXFXW56QU1cAH8bGbd6DyHqUi65tWuovlM+HgfHLi+ntNimSMm6z+GPr8Hs5fEq+AnKKfkgolzNOSlSIidExWTFkb4i+NNxbdBsrAbRW1SBWrlf+R3m2GdjSHbpWRBQ5GPmh/D7l+GzXT5tjqFyafjBtdD1Mvcp2sJZOSG/fRFWf+bb+1I8vaeBx4B95oTk/K3i1yY65+NM1S+l29gz0Ni5zbuETNG3RBmS4lOPVu4raezcCzM+hJcnwSqPZBMTWXl6CqueB12awTXtoValRH5l17iOgBIvxXl+YypM+zBuZ2Wib30EzAckK6ao8aVAk+DD7DgPJBsL55IaMLBDqDZUrmQ2fmiXeovAcZrQB6GM94dr4bDSpzxpdauFlGwVKzzPg8dQ3/RXJ8HC1b5FkjcCzwFDo8KFMVPeSf96N2ckOZiXAMSJlgKNPsiKh/qBrahaF1aBO3tDu0gS2GX61r5DMGZOKKO4ZlO86pRoLZYuBv2vgGvaQbXyIKfRmt8IaHPz/mr426hwc+OPJKXfuOfUer3/qpeH3q3ghq5Qspgvb/Ocjth+J1KNEqYXrYJnxsHCj/z5tojiqwOsa66Efm3D9epy0/vww4/hhfEwJyiE/JWCrV400bEUCVGhQuXQfWaRkOTNmx8b5uSNN9V3Ep5dI0ngy7xS3xIyJYuE8pQdm0LRQqnGKnf3Fz//7dnw5Aj4fJc/H45ER60N0fUdYHDnUC5UVd6t+Y+A6hH85U1YvRm0hq25g4CeuSIF4eYucFcf99WG3EHOb0sk0btgFfzhVVjjkTqWFDOVezikL1zb3v050CGMaor94RVYvNZ9e//PQrmqWyN5XqkLio5lLckImDOSZECj2ymer4rC34u40/6QjHUSr0iJqAlXXe72B1mviL37YfqH8Oy4MFISt1aqKLSpB0P6wYXV4ja6vDkeRffmLIW/j4KPYrhmfZzVogXhpq5h1XTJcJvz7+MsZs/mr7+GKYvh5Xdh6ad+0bFqVgil4q9o7Ad9UHTVZ8fAB5/4RsdSYvoTUcFCFTmxE6TsPWUJX23OSMJQ5ejCrDol9wGtvFLf0qnLRdXghs4h/1T0IZfpW7v2hxXdxfNVEpxqQMSplSgMbS+FQe2h0YVuF6qKE+6pGosUefYeDMUZ4rpmU4VdMu+r56pTU7ijF1SvaLTIZGLr6r2kjjVvBbw0MZSO9YU2qW9ynSowoB30bg2ltL1wuImOtXg1vPIuzFsZFof1o8nh0CnRC1FeiP63JzrOfgB8KivNGUnP3CkyokT3H0bFE4ump9sk9XJeiVCGtkvzUIZWL0VXm6gvw6bBCxNCSWBftOATxVPQ97gMBneBuudDEcfpdImOKy9fd+xY+MFWbZ1NO+MnY+3i3IqOdWVD+N41UKuyixaaTclG4OBhWPwRPPV2KB3rS1NxzYpl4NbucH1n92Xg5YRIoldFIacv8QVl2ZmVE6Kk9EeB7T4Z77utDu8qfYf2lPYrsV25JD8CunuVU6KoSNWycH2n8IVYSCqejjadOuvDI0WUv7wFG2L4ThH+9arBAwOgRT23HURHl4lTZmnNKro3fj48MQJ2H3TKvNgYczyrrxnc1hPq1TCZ3thM7BkGomdr2gfwzJiwWKE/CdMg+qBk+Lu18EP6XUIdjw2DJev8or3BTuAvkUyvNgxGx0rzu8GckTQDHnWnyEjLKKekc6S+lRlLsturTmnOrxAmzCmnpExxt+lbqugu+cDnxsLaLX5pxScyN4XyQ9OLQolmyY+67CQmMp68fo3ohVt3wqjZ8Npk2LY3ryOSnPHrMEVV02/oBJfVt+ckOai6fRepY4mOpcK5Sz4B1azypZ1/Xpi32adNmBPicg6TnLsFK0Pam1TIDnlFx9oS5YQMB5QT4o20ly9LOVE7zRlJFKnUXCfd1g4nJLpLItifphemkj67XQZl9cJ0eDlpkzf0XXhzOqzZDF/HLKdEq6ZpbbilR1iYrbTjfGJ/VnnmLN2+B16eAKPmwLY9mbPD554L5g/rKd3eAzo2s5wQn+cyUdtFE5I61vPjYO7KRH+V+esk0Vu1HFzVJqThlnJcole5N0vXwtCpMGmRj3maM4Hrgc2Zn3yzwOHdY56aHM1D2yA0+J9AR+9GXq443NMvTKzTx9/lpg/VtPfhty+DoiZxbKoWPeQq6HN5HEeX98b0+Y5wY/Xy5PhF9lI5m8p1+/n10L0lnGv1elIJtTP3XrEe/vw6zF7p17NS4Fz40UDodwWU9CCldM1n8NsXYOEan4u5jgaucmbt5nFDzBlxawHoKKQR8AtAwuH+ZCcfP9U5D65tFxbs0wvVVfUtBUV27w/lVZ8cCeu2ubUKkmFN/nOheoWQlnLVFVC4gLvzkYzxxv0eEmL4bHtYKGzkLDhibILTTnmlMvCDAXBlIyhR1O2IbdzXbTrGp2dj2afw+JshHevQkXT0mpw+VCdE+UvKCRG7QN9RV9vRY7Doo1CSfOk6v3A+NabTgF7AIVchz0t2mTPi5mxLfevOoB7344DjoYZTAFizIvRpHeaUVC7n9iZYkZK3pocbvJUb46lkVKdyGLXq1Bwql3V7Ptx8Ht2yShsv5ZNMeR/2WKL78ck5LrBRDga2g6vbQVm/GK9uLTBPrFFOiKRjh02HyYv9eXeLznx+eeh7eXhwd14ptwEXHeuDj2H4dJi40Ec61unwnS9tSh1Nuj0BecM6c0bcnWc9JKMAfwomnoxl6aJwSzcY0D489XG5HfwyrPnwyPBQ1SiO1bErlYK7r4IerfygAri8XjJtmxSCREmRcs2C1X4l5yYbuxJF4PqOcEMX9zd2yR57XryfIiGrN8LfRsKUD/2iY5UtDrd0DwVgXM8J0Tfw0y3wx9dgxhKf6Vine0pWAV2imiJ58UlyaszmjDg1Hd8yZiDwurvmJWiZToGkuNXv8rCKeNFC4Oqq0wZv/5cwd3n4At60I8FBenSZaAAqYNmzJdzbD0o6niTpEbQZMfXIV7BuS0hRmaYNQwyFGU4HbIF8cHNXGNw5lD11meKSkcURs06//gZWrYffvggfbQJFtX1ppYqGNW0kK328VpfDdCw5IR9vgodfDSvTHzjsC8rZtVOJ6xIQWpPdH9r1yUfA1W1h8kfq3x1/EBXe8c/y01ksipCcEiXpVSvv9rj2HYSx82DEzPAEOo7qW9XOC52SHi2hTjXj1ru9Is9snU6LZy6B4dNgzvJ455TocKNjE7iuI9Sr6e7hhs/rySXb5XQoV+G1qTBrqV9RQL1jr7kSrr7C/Tohkuhd+klEx1rgU8X0nK5WSRReCSzN6Q3sd8lDwJyR5GGZ7Ds9CPwy2Td14n5KMB3UHvpeEVaWdbnJKRk3D56fCBu2xfPkuURhGNQh5C+rhoyrwgMurxNXbPvqaBjZU6Tk481wVEWFY9JUNb3ZhXB/f2hQy5znmEzraYchB3vJWnhxAkxa7FeugmqD9G0DgzpC1fJuO8zCec1GeGZcKNHrU1HI3D0DCiO3CcqgzsvdbezXyUDAnJFkoJiaezwFDEnNrR24qza8Kth3e0+4oycULuiAUacxQdQXnc6pgNavn4UdMZQE1pugQH5oUw8evgfEwzenxN01eTbLVOBNykK/+Ad8FgO6YYMa8Oh9UKWc1Qo529z7/u+iY4l6+MDjsH47aLPsSxNVcEhvuKFrSId1+R2q2ltbdsJ/PgPvrQapZeW91hMYl/eG7d6IzRlxb06yLBoGDHDXvCRapg3GVa2g1+VQq5LbL3BFSmYtCSkDUhg59k0SgXDkVoqUdG4Wnuo1qOk2v9kRyJw14+BhmLQQhk4O+d8+pZQo36xNgzAvpEVdKFjAWZjNsCQgIKdj0epQvnr+Sr9oQhVLheqRSkyvcp7b3zA5ex9+DK9NCVXIvvQo9yYJy+ykW9wCvJj829ods4uAOSPZRSx910+JkqvS12Ome6pYGnq3hv5XQo2Kbr/QD3wJUxbD0Emh5rpOmeLW5JS0awTXdYJLLgDVLrHmJwKqqzPhPRg6JaRvuZzoLiekbnW4tRu0bwLFCvuJuVmdGAJKmJZc9bBpMGqOX9TC8iVDJ0Q5ITUdP0iTsycBgBcnwrQPQd8waz8D/tdgyDwC5oxkfg5OZYF0cFWQp7Gb5qXYqnznwO094ObuULq429xwhbYXrISfPw07YioJLKrBFQ3g1zdDpbKQz1+16RSvXPdvn1VX57E3Yf9ht5wSrbNyJeCXN0DHpiFt0Fp8Efj6a9gW5BD/97Mwc7lba/FMqGvXpCjdoHZwb/+Q0upyUyTk8x3wh1dh8gf+4JweTH8X29zc9OCXtF7MGUkalEm9UUVgKlA3qXf17WYqXNajBdzYLSwS5TL/VnQYqRm9PAEWr/UN6cTsLZgPGl0Ad/WBlvWNu58Yam5etWMvTJgPT78D2/Zm3saa5eHGrmENHB1AWIs3AkpMf348zF4Wyqn70soWg/7tQiU3Hcy4/E2SE7L8kxDnGUvjUDE9FavkOeD2VNzY7pk9BMwZyR5e6bq6duSMVEtXh073U6UsdGsRqj3Vquy0qew9CDM+gNeVU7I2nvStogWhZV3oczm0awyFjMvv9qI8jXWiFm76AkZMh9FzYfPO9A9Dz7ZoLlJzU60Qlzd36UcnXj2KjiXp2DemwpT3Ye8hf8YnOla/ttCnDVxQxe11KidkxTp4eSLMXAp7DvqDc/otVfK6ktitZRgBc0YyPAGn6b4JoJyRUm6alyGrCheAO3uFHwVtXPI5nMMgidVp78Mjw+DznX7xoLMzvVI5+sl1cEktkPSqbSazg54b1yp/RDkljw+H8Qth36HUUjm0RkRt6d4cHhgQRkJs3bixFlJhhaRiN38BT46EsfP9OaDRmpQilgoVSk5axQpdXqeiDEuF7NkxMHqePziDVGD2AwqJprsa5HSgfSqWvd0zewiYM5I9vNJ1tQrxTAaMnH8qxJXQek1buKk7qJCiyx8IcfSlvvX0aFi6Pl3rJ739yCmsXAYeuCbk+rss05xeZPzqTRoM23fB8+PCZOKDKVDZkQjCte3g7j5Qvozb9Rf8mj03rdUJ/T/fgelL/FJtEiVVKm7KWxRd2OVvjCJOH22Ev48K6Vg+VaaH3cBLwPPARKBCmhfyYqA5fukMphmi9HRnzkh6cM5uL/2BN7P7ozx3vYontr0EBneBi893e/h7DoROidSMRN9yWc0op0hKBalhrVBZRnQGc0pyimRmf3e8CNpn8NpkGPseKB8qt01RzV6tYGAHuKiaJafnFk+Xf6/N8fJ18Mq7IU1o9wGXrf22bcULh++vq9tCnWqguiEuN+XeiI41e7lfOIM4oXJCXgaWA4WiP9P9If8YuMickcwvcnNGMj8HJ1ugObkX+GuaTVOodFVEDVMCvcMcqJOQKZgfrusAA9pD9QqQ3+GA0uGjMGkBPDcePt4UT/qWVrA41qLgXHEpqBqxyyeLaX7QvOlO3PO1m8Ikd3H8c1KPQM9mq3pwz1WhPLTrmztvJsdBQ0VN/eRzeGUSjJwFWj8+NL2vRBVsUx++2w9qVHJbwVE4r9kUysqPmQ8qcOpH04L4AhgTOB8PA58SUrTUJEn2AXBhmoeyCZADFENt/jQjmcvuzBnJJYAp+LmOYqR7/aMU3PtMtxQn43vACOAXwA1AuTTbkPvuBl4Bd14F1crn/l6pvINkLaX1/vgwWPN5KnvK7L3LFYd7rw7rxxR3XAIzs0i53fv6LfDwKzBjWWJcdDmfTS+An1wPjeq4PTazLvcIrN0MT4yAiQsTWx+57zE5d5CMfN/W8INB4aGJy03R9M074NE3woilX03hVRVy/jmw5RSmSwVlfgbKGYgmpn2OJ56zX5OeHWvNGckOWum5VhEJhS+vT093/78X6SsOBN6JclVqAFcDPwAUKfGnqVaB6FtD+obFE11uUt+avRRemgAf6qAohk0b06rloE8ruLkHlCwaw0HmgSGJi75yHTwzNnSkT1fos3FtuLt3WDW9qBUsjPXK2LgtTJieuMgvmpDENqTgdlUbqFUFCjgcTdcC0mGA8g6VE7Jzn0/n+Drk1H7m2SjyceQ0z4P2PXOAy9L8vBxT1RhzRtKM+im6M2ck83NwsgV6KKWkpST2dDapWbQAPjqhU60PhTDvipwjSQ37Q98qnB8GtAt14WtXcVd9SwHig1+G6lsvT4KV6+NJ39LCqlgKBnSAni3D2jHn+rOc0vkwOt2XnJL3VoRrdcEqOHIspF8pb+vGztC1BRQRBdxaLBE4+nW4OX5rBgyfDgeSkFOUDqCy6FgdG4e1q/RNcJk2qNwtqWMJ47dn+SSFrC/aLmBCoJD1SJQLkgiXTLXVMqFsJRqF6GPWMoiAOSMZBP80Xavs8JIMFDwMSuFSE9Cfp2rFgF8BgwEV+3A8s++EIejUS9Vyr+8S0rdclgTWB2jCAvjnaFi7BfT3OLYiBeDW7mHtmApl3N4UxBH/ZI1pxofhiW2v1mHOlsvPVrLGnFfvoxyQLTvDwq6vTQ2dUF+aEtM7NYYHrg2LFbrchPOGrWE9lhckMOVNkxOiQ82xUU7I0mxa/mKQR3JTNn+TjMtbRRSxZNzL7pFDBMwZySFwKfyZjhRXRo5BCrv5t1tvS4COpWNsRUquAX4d6YKn08bc9SV6kJIU7+0Htavm7l6p/LW4wVIwmrUU/jEKVn2Wyt4yd2+pb5UqBlc2hPv6Q9XzMmeL9ZwzBLT9OPIVKFHdRApyhqEPv1KdkH+MDuvQ7E9xHZpk4iHneHAnGHBlmJjusriJxr11Fzz6OsxcBlJg9CetWpGPoUH+xRMBvVtOSE50wZXU/rNkTn+C97oReCXBa+2yFCFgzkiKgM3FbRWBkNxcupMd1GeiShaKisgpuTmib6livD+RkkL5oFPz8CPVoKa7MqPHz5minJIXJsCK9XAspnl2Ki7WrQVc2z6kTxRQgNCaIWAIZAwBRWU3bAsleie8B7s8kujV+6R7CxjUMayY7nLETmImomO9OgnGL/Ap90ZfKCWAKxLyl1w4IVlLfEhQZ+SpDKz3XwK/y0C/1uUJCJgz4t5ykKTHOokNptm0RVHxn+x2qyrx9we5JoMAyeb4s4sscG5Y++D6TnDh+eHprqtN1XXHzgvlHFdsiK9TojdS/yvCehQXV3c/sdTV9WJ2GQI5RUA0IeWEKFdh6GS/6FhyQq5oGBbVlBPicpOzJylk5YOo/pQ/xQrlhIjOLSdEJQgWJAnmbkEC+/gk3Ss7txE97Jbs/MCuTT4C5owkH9Pc3rEMsBFIt+SQksc65tB4rSMRcQcAj0YFjHJ4qwz8TKF7fcB+OigM5bvc9MGavQz+8Aps3OGypbmzrVBUn+LHg9ym1OVulPZrQ8AtBHbshceGwbgFcOiwTzQh6NYMHrgGalR2u06IZvzAl/DQizBhIRzKCaMpY8tGiUIjA8XNB6PE9GSG6qWkJXnfdLd5QOt0d2r9fRsBc0bcWxGiZ6nwRLrnRpK+fXIJh6haUqZQBfn7osqm6R5HzodQrDC0uBiG9IF6NdzlFx+nbx2C+Svg72+HOSWnk1nNORpu/FKVuyURe0dPaFTb6FtuzIpZEScEFAlRTsg/x8CUxbBTOcieNEn0dm4KN3RxP5KqyvSiYz07Fqa+D3sO+uLs6YuzD3g7KIr8WJTTmgoPSvU+tmdg77Msqm8SU7UYP55lfzaKfuCZDCtbAvLU092kBa4ckGS1CsAdEX3r4qh2SbLundr7KKdE9C2pA8kpcTl/QZGScfPgzRmw5NP4qm+J892hMfS9PHROrIBiap8Bu3v8EZAT8vEmGDkThk+Dg6nYX6YIxhJFoE0DuKkrNEk01TFFtpzttqJjCee3Z4f/KTHdn6bwu+hY/4z2JcmMhJyMgijq6wOHR9TvdLa1kTPi1cSkE6B09GXOSDpQzl4fKnb4avZ+kpSrfx9VXk/KzU64iehbUquQ+pbyYPxZc6rO27EJ3N8falV2W35WTolO2/53KGzbE99IiRSbLq0Jv7opPAl1XR0n2U+T3c8QyC0CUuvbdxCeHwuvTIH9qnfrSct/LlxeH34o+mYVOMdh3RThvGtfWJn+rZl+5d6AisdIV/h/AsbE+2laHSWA1RkQ79kcRH0aBWyOGPOe0zSDuejGn41hLgbp2U9Vy+O3GbD5uylUstAXQ46ICjn+BqjnlfpW4YJQvwb8eGCovuXqBlgfv0NH4P3V8MfXYM1mX2gA2V/uqh2jmjF394Kul0GhAtm/h/3CEMhLCOj98MWekCY0Zn5UydsT7Vg9712awZ294YLK7r6DtZ5Emf1sGzw2HOauhL1eSfQqOjAiEKJ5KBLSSaRYYbKeosLAe8AlybphgvfZGkVG9Ke1DCFgzkiGgD9Dt9K7VmHBdDfleegllOqmSImUt1TcqLFX6luqi9GpKQxsH1KFXKZvKadE/G9VSX7/4xirb30Hml8E/dr+P/bOA2yL4mr/v0hHmjTpIB1EqlTpvSoICohi7yXVxLR/ijHxM8XEbuyodOm9N+lFRKmKCNKL9CLi99/b3fcTEfQtz7M7s8/MdXFFwrN7Zs7M7s6Zc5/7huZXQPGwSeiS/bi4+zsPZNEDCkK27IIx82DcQtghcWxLWoE80LIODOgA9aqYrWUj2NuGrT7sTRS9ew9Z4uSvu6msgOpGXwkCgigULXWiNANoEbLjVA+jvcjmkO06c2d5wAUj5i0HUew2iKBbjYBlIdoVLlQBkESOKlmVKRElcNOa8FAfqCaokLQgDW0nTsLUZb5g2Zbd8YVvyf2VSsDd10C7BiAyAtecB1LZA19nQg7ByNkwdCbstmhzrExn46rwYB+oUcFsnRD5WQQAb06D4bNtY8c6BkwB/hERk9XZT2h2YIJXm9Ip5MdWxVIKRiQ27VpEHnDBSESOv4BZnQzogdDmPOwm+euwMZNaf3m9l6D4xZ8AKtgVlGSHmuXh9zf7he7KnJjY9LH84jSs+QR+8yJ8utfEXiamT9kuAhW33tEV+rZzhe6J8aq7i00e+LpW4Qi8PgkGz4Jjoui1BI6lmrCODUCU3qWLmV2nJ5eqJuSvg2DWe3DilE2w2FMelf/8QLRYwoVRZELO91SpXlZ1s2E2sWhdCbwXplFn69seMHT3lLLTJAjTao+5Imy1Jr2MLgOiPDrT2K8Hbg0yQwZXJp6zPiWWeNXlMKCjTw1sMnzr0DGYswqGz4FVG+GMJZuUzLwShC3v1Ry6NoXSYo10zXkgxh5QwPHZXhg+CyYtgc/CPlvKgm/z54bW9WBgR6h5mdmZEA1zcyBWOHGxXX6G40H2QXAsBSOmsRdIRFGyAGE2MYR1CzJEYdp1ts7ygAtGzFoO5QHBtMLeOX0csEmYQG2nDE17j9f8Z564Uh2rakok1Ke6hTu7m08JfOwETFkKb0+HtZ/adKKX8Se2TBHo3Qp6tYQShc3GnWd8dO4K5wHYvg/GzoeRc2C7RTUhouxuXB3u6+nrCGUXUsfQpmBv534YNc+HY4m10J4mdizVYzwDSOA4zML0jHhJYoq/zcgFCfitghEpsL+ZgHu5W2TSAy4YyaTjknRZbeBdD7+ZL0n3v9BtpWvSFp/Oz5SmtdkxEFkSkbw9mRJ58LIS8OfbfA58fXBNbUqMLF8HP38W9hy2B86RGX9qHu7qCjd1hkvyu6AkMz5015jjAW2OwePVDgAAIABJREFUlel8exo8M8auejBBWutUhMfvhgolzfHp+XqS5ueXx8PLk217RwqOJbRF30DDw2xfw0Me8+Z/Qu6kvoIPAs+GbNeZO8sDLhgxazk09oKCeUDYPKWjg5eViaclEkLqAtwLNLNKPFHwrVoV4LaucFVtkJq4qU26A/NW+5mSldKAinErXgja1/fnpay0OV1zHrDMAyqYHjITJiyCXQfsyWyKoldihbd08TMhplNyb93tEwCMX2QXC5lfA6Lv+gveod5Cww4av+9hE8vmGyE/jQpGpLMWdkYm5GGabc4FI2bNj+BJ0yPoktRV7xFDegS202tSNSUqdNcJhorNDE43nDMksW+pluTGjj5NZTaDuy514FkrYMgsWLPZnk1OelfR2b8rcQnc2gX6tgVpybjmPGC6B/YfghFzfMrurZYRUbQWRW97aFTT7CBEmRAFeFKlHz3ftiBENSASK1QQopoQ1YjY1K72mK3GRtDh5wFprbkWkQdcMBKR4y9gNopTAXVFTFai2LWhaSffMzjFkHiiXbvI6qXhkRuhbhWzN8AS7pqxDP49HLbthy9MIVtJwhJtWwf+ercP3XLNecA0D+hZPHQEpi2Hv70FJ0xMYF/Aacp8XF7OZxysXt5saKR0QiQKqbqbZ62CvelkXxS9YoP6MbAKe4+RhA5ZHMEjOAS40fAD2QjcEp5JF4yE5+v0WPp5wPednt8m8jePAP+TyBuGcC/tHFXncj/Qxir4lqAKgm/dfTU0uwL0d1PbyS9g2ToQXnrxBlN7mbV+6S1YrSy8/msXkGTNk+7qRHtAmUqxY705A/YdtKcuRDUhzWv5iumCY5nMMKg5UyZk8HR4Zx7skwaeNU20tOOAfwU6YaoRsbnV9QhsFgAXhzyIaYHumQkkPiEP3QxzLhgxYx7SevFX4NcRdOk24LUI7CbCpGpKWgdBiWBu9qzpXNn9AnfRWbaqZzan/uHjsORDGDwDFq2zrYjzh9eZVk2HBn5B7cVOMPGHHeZ+kVQPnDoN78zx60I2bbfnnFvPUdt6cEN7qFcVLs6dVDdl+eY7D8DQGTBeyvT77fEzKOiY6MkACGKtzXtcNtHVve/5HCDsYj6R+PTwYOD7s7ym3A0y5QF7Nm6ZGp51F70I3BVBr3t51L5jIrCbSJM5ggyJgrmGEZysZH4segprXwZ39IDGNX3RPol/mdi++grmvgfPjvY3SSctgoykx59/uAn6dzDX/+kZg/uN3R7Ytgd+9zIsXmfPOC7OBZdXgId6Q4NqcJHB5IdfnvEzIQpAXp4AR00ikfzeKRcc64hH6LLEq5l8NGDeNLnOMzPrt4xHVKMsRY3MXJyFaz4M2Dt3ZOEe7tIseMDQHU8WRmT3pQoIrolgCMoszI3AbjJMqqZE8K3febzqza2iBFYAUrUMPNAT2jUwu9BdH3TBt54cBqu3JGMeo7ln5VLw5m+hcIFo7Durqe0BBfgPPAlbdtvjB+mE/LgP1KtidhAij35+FAZNhkFT4ahViCYFHVO879mfAy0ywbPi2KSxNik4UAxzfHrgWgCbwjTqbH3jAReMmLMa8gZpVwUGYTfpm6wJ22gS7Wldazepl8tPPFaRdkm0lfhbq4ZEQYmYnjo1ghwG15QIvrV0Lbw5FZastwnmcP5508r5SW+4RxwJrjkPhOiBA4fhtsdh3bYQjWbBVMOqcG9PqFMZ8hkObdzzuf+OEkXv7s/tqb2BtJoQsT2psFuZkTg3fbcnBN/uMMcpFrJGwAdhGnW2XDBi4hrQiYBOPhqE3DlhJPUQbg7ZbljmxLalWhLB31oCqjGxJwivWxEGdobmtc2Gb53+EmavhDemwAdb7IZvKRAc85jZNTxhPT3OTjgeOHEK7v6HH9Cb3FTnVusyuKkjdGhotqBrGhxrzHwYIgIAq/bxkneXALIK00XRGzM87Pcu8neAayN4DATvXh6BXWfSqk1Z/KerXKAxIrXxMJuCEG3St4dpNCJbrTze9V8GMC7DKyvP8ZDYt+65BppfYTYl8JkzsOB9eHokrNsO2hDY1vLngflPm+1n23zq+vv9Hpi2DB58ylwvZc8GVUrBA9dCm/pmB+qqrFAmRGKFL02wiwrZL0yfDTweBCFxqwlJzxp/Bbg1gv2pIPJiJnMtAg/Yc0IcgXNCNnl58BIqFrLdlUAnYF/IdqMyJ8pA0Qf+JhBRNLjS8hwXSdG9Ygm4vxe0VU2JwV0/dhKWr4Pnx8Kqj6Oa68zZFS3puMegStnMXe+uch7IiAf0rNz+uLnPSe0KcL8K06tCfqGJDW7HT8Lzo2HsQth7yCY4lpwqZIQ0v1SgbptYYSIXxT+Bn0YQjNwSgfp7Iv1m9b1cMGLO9ClFqHRs2CJ+Yq5QSlSiSanUcgYF7lJd7RDUmNgz/vpV4LpW/illoXzmsj+d+gLmrfYLRld/DKcsEU/8862+MrtrzgPJ9sC89+C+J+G0QYfgqltTQXr/ttC2PuTS69LQJsV0KdOPmu8LFn66x9COnrdb+u4q+Hg6UE5X7UKqNwUi/4iAfOZB4JlUd35U43fBSFSe/65dbYgVGITdhnkMEgPwC+VSsYl9SwXuD3iZKcG47KJRqloKbusGreqazQAluNbsFfDaZFizxXxF9z/dAv3s4j1IxYc3FmN+7A0YNMOMoXxNnlHKpxlvf6XZ5BnymIrRpy6BVybCLpVZWNPEJ6yCdG1+x3rsj5ac0oTi34HAqx59sb7NYba/ePug34dp0Nn6xgMuGDFnNdwAvB1yd3QUpxMZMU6lelNGqh7w/wK+8bBfhJn3v+BaJS+B+6+FXi3MzZJohFJ0X7URHnsTNhlM6e6CkcyvR3dlxjxwy99g0dqMXZOMX1crA4/cAPWrQW6DMyEau/SOXp3kE2ZIMf0rFYpY01Z7IoW/8L4zC1McjnWhCese6J6F/Q1+NjiUtGYhxamjLhgxZzZ/FRSthdkjncaoduLvYRo13JZ4dFVTcn+g+XKJ4f39pnuqdahSBq5vDd2awSX5zO26gpJ318Drk2HlJvjSIIiK9F5e/SU0q2Wu/1zP4uGBI8fhhkdh42fRjCdHNqhbGW7uDFfVgryG83rsOwQjZvuQrG17QRAtO5rgV8qEPOnR1s50Qcj3TpoOBZcCYXPavwXcZMdyil8vXTBizpyKwk9YyTDbF8DNwNAwjVpiS6cyzYC7g0L3Ipb02+9mrfLQvx20rg9FxWZsWNMmYud+mP8+/HM4HDKoZCl3DljwjPnFuoZNqetOJjwgmFG/P8KOA5m4OAGX6D3x6B1QrZzZhBg79sPUpTB0BmyxqiZEheiLgBc92v7xyg0nYNbifotqgLJHYdfPTgR6YL9alpXrwwUj5kzbG57Wh7CSYTa9GFWrsiBMoxba0hH534KgJOzTmqy5q0RB+NWN0KmhGYruglOo2PTZ0TB5MRw0kDSmbDGY/IT5ePmsrQx3tQkeiDoYkQ9UJ9KtMTzc3687U2bQlKZas+GzfKrwAwa+Ky7sJ6V6RZuvomhR9Vol9x7x9FcIRJjDTu2LQEii0wal6SOeiRDNG/TWCXHUZpqaHojzhdk7vd2viLHgYSJ9KRB1Fe+j8mtPGEmYVgPTDRcYrmpKKpSAmzpA16ZQUOzGITZlQYTrnv8evD0TNm0zm1Xr+lbw59vN2pSFOF3OVIgeiBqmdfZQC+SFxjXgrquhRrlog3Gp0Q+bBSPngrIi9tSECG2gTIh0QuYGmRBrsGQhrvzvM3VpoIQuIegw25oAou2CkTC9HthywUgETr+ASeFJG4fcnUNAJe/0RirsrqXPA4JvtQhEmaTPohenPe3y8tCtiR+UlEwy8kyq0mu3wMwV/h8b4BWqs3nj1z5sxTXngWR74MxXoAL2pQYpr6uOpE096NvGL2bPGyJaRtDNSYtg9ALYZJUOr2pCVJAuOJb0QqySe0/2Ms/g/QsDHwIlMnhdVn+uBVc+hZlFs+q/LF3vgpEsuS9hF2se9PDVSNgd03ejnYFNBSWuZcwDmrPq3snXI0BPIH8EIk0Z6/HZvy6WHx7qA52bgBTHEwXN0Anm0eOwYgO8OA4++MQs/YQf8li/NvCHW+AigwUlf2gM7t/t8sCfXoPBs8zrc/aLoHZF+GV/qFHB1xpJxo5BmdMjJ2DKYnhqJOy1ah8vEhh9u//odEIStoSlrKnoPGzVWXFDS3Ta0SwnbCrTf6NkvFrSb939Ms0DmodPgqg8TK98FKQlDaoeDnP4CbGlGpKSXtHbHzyca2+gUELuGsZNFIAUyQ83d4K+7bIG3xK2e8tOeHUizF4Nnx+1ienG93blkvDKI1BCB3OuOQ+E5AFlDe//j7nPi4IS1VE91NsXWc2TwEyJiCuGzYQ3psL+I+b64LtL4bQH110OiAVzWVAT4uBYiXlktB/aEMCiE3PH9N9Fi1tQO9dC9oALRkJ2+AXM6Rj28wgE9z4ApPzuGD6yvg40hw2AGwMRySRjoLLe4f+7g4KSKqXh6mbQ46qMbcZ3HYC5q2DqMp+i94Sl7/GCeeHVR6DWZQl0rLuV80A6PHD4GNz6N/jg03T8OMKfZM8GNctDz+bQqVHWWPr03hj/Loxb6MOx7KHo1QtOhc7PA1KqdKiC5CxJUftqbxJ2EzrFIMxk2MOPzp4LRqLz/dmWVYegl1zY2BCd6Ii+1qUlE7cONJd6oUnUSoXuOma35zkrVwzu7O6rL1+S/7vwLZ39nf4SPvoMJi+BCQujoyVN1JyVLQqP3g5NLk8cXC1RfXP3SQ0PTFwIP9P+1oKmw4vyxWBAR+jWFAqf5z1xvmEo4Pj8CMxYDi9NgK17LRjs/3VR30htkP/tbZJFAWsVtZdNjg76KrmBvhH0W/Wgjl00Asfbs0mKwDkhmrw8YI8I0eTXpsT2ISo71xLvAT1byo5IP+aaCLJeWRuR6D4f7gvXtoJ8efx7HT0BS9bC/wyBbXtsYri5sC+uqgl/uxsuddCsrC0Yd3WWPPDFaejzO9iwI0u3Cf1iFbvf1gUGdv7+TIneHaPmwt+HwRdWnX2dCb7NdwWwLMe0FM4ii0IEWiOT7tqgcIborJztAReMmLEeugCTIujKq8DtEdhNJZOqKanqYWD7A7cBpawZvBTdLysJnRvCwaMwf41tqsfnd7XeevWrwA3toN2VicXAWzO5rqPGeUAB/m2P25Yx8N1Yugi0qw/XtYEqZb/JBasmZPQ8GD4HPtlp0wGGcsBzvAOlpwGxCzg4VrgPzB3eqnopXJNfW/uLx6b1+wjsprxJF4yYsQQeAv4TQVf+5NkUC4hryfeAIHhSlr3Tw6T2C2gL3fOXfL9/Y0HB1eUV4KaO0Lpe1gr2w+y3s5U6Hli5AX75oh/029gK54MeQe3Zps/grWmw9lObNK2VCVkZUPSOCmo5bZwJ2/vcHpD2Wtjt5eAbHbbdlLfnNkNmLIFXglPzsHujrIiyI66F6wEpy/41wMRK2CnsWqFwRxu1NRXeVrzUpzJWJkRBiWvOA6Z6QMXdNz/mZ0jsEfsz1Zvp7ZdqNsUu+ZiXyR6c3ovc75LmgTIeamNb0u5+4RtPBTpHYDflTbqvshlLQGngNhF0RTaVinYtfA+o0F0CS7cA9wT85uH3Is4W9Xa7ogLc2hVa1oF8oq93zXnAAg8cOgrvzIX/TvBpsl1LpgdE0fukJzo8GZDWhKPoTaa303fvS7zv4i7v0C5n+n6esF+peL2taFoSdkd3o3R5wAUj6XJTUn+kmoJVQK2kWjn/zSUzHcXpQwRDNdakghKJJ6pwTjUldrFvmerWOhXhxg7Qsi4UzGcTn5mpHnX9CtsDyops3uHrcIyeD0ccA3sCp0BwrPeA5wJ2rN0JvLe7VdY9UMA7qNviwdcVlITZFJiKUcs9bGF63SrK0ZAdE6I5QXb0UqwUok2Z0sOmYmrpm7hmhgf0AhaLiGpKlDVRoOJaej0gBrBKpXxq4o6NQEw/rjkPxMEDosSVOrn0fCQO6FpmPXAKWBsEIaoPcM1MD1zswZjXRaDCLpuNxB1pplvi2yuXGYl+bosHmZGwWZZ2BgXV7ssW/Ro4uwd6Ji8FBgIPA6opce2HPFC9DNx9jV8TkkvJRtecB2LmAWVKduyDwdPg7Vlw0lKB0eimRUHIo0EmxH33opuH9FjOHRzSivQlzCbl0boBXC9MuylvywUj0S+BssFDF7bQgdTXGzvxpugXwAV6oKJ2yYFfD4htrYSxPY2yYzXKwd09fMHCQoJjuVdalNPhbIfggS/PwNbdMGI2DJ0Fx11Q8j1eV/3H6qAmRMXJDo4VwhJNgIkcwCKgQQLulZFbaH0IMr8vIxe532bdA+7LnXUfZvUOVYLMiNKSYbZ5QIdA+T1Mu85Wxj1QyAsafwn09gSZKnpc6Kl99J8zG1QtCwM7QZcmIHiWa84DqegBZUpemQDTVsAe1V67FnjghPe+XAO87kF9xFbpIja7loYO42Z7Gi8tQ+624FnSBRNyxLUQPeCCkRCdfQFTVwTBSNgA99GesmwfwCnKRr8G0tsDQfqkU6K6EtUapdbzK0reSiXhnmugW1OXBUnvqnG/i78Htu+FNybDkNm2KZwnem70PVPhs/SzRnrvSgUlrtnpgYlA15C7fjxAjAg54lqIHkitzUyIjs2AqY4BpWDYWhM6Mbo1A/10PzXDAwpaSwcv6d9EUOAXjRfKF4df9ocrq/tihQ6OFc08OKvmeuD0l7BzPwyZCYNnwMmUYicVHGt9UBMisbz9jqLX3KWazp5JAy3sPYqC107A/HT20f0sQR5wwUiCHJmF2wzwoDeDIhC+exz4dRb67S6N3gOCbylTciNQwxPsEs42Pk1sWA2rQf92vmJ6zngNLz4T5UZinAc+3QWDp8PkJbD7kHHdS2CHxAopNkodrr3lkX4cS+C93a2i9YD2KEIBhNkE55P215AwjTpbqQbzMHPGfxwU14UdGP4C+KeZLnG9yoAH8gdF7v8AFJzY33LlgBpl4Y7ufhCSw9WE2D+pbgSReEBByaApMHFJ3MQTvwQ2AP8Chjsq1khWV7KN/tarj/xLso2cc3+tq58BT4dsN+XNhb0BTnmHn8cBjwUZirDnQtH/G25CrPZAF+B/AJEgiArR/laxBPzhFqhTGfLksn88bgTOA1F74MwZ2HnAD0oGz4TT0vuzugl/9hTwN49p8ICDY1k9l9/XeYkAi3wgzKaHQ/DnJ8I06my5zIgJayAKXKTGfQ0wzgQHuD5kyAPKfqio716gSSyYtb6GY1WHmzpCi9ouE5Kh5eB+7DyQAQ98shOGz4JxC2Hf4QxcaNxPVSOyMAhKpjldCOPmJxEd6hHRHuV54L5EDMDdI/0eCPs0Pv09S41f6jR7GHB1yMPVi7wpsCRku85c5j1Q0Pv4iuzgbq+4rl3mb2PQlYJj1SwHN3eGtvUhV06DOue64jwQUw/87//Cxzv8mpJpy2Gv1TUlypKo2PhZYIYHsbE6worpisvssFoDMyOopx0K3OzooDM7bZm7zgUjmfNboq7SBlMUu20SdcN03kep7VYeta+jr0unwyL+mTIgKtCs7LHFhE0BnZyhly0Kj98N9apCtrCJ5JIzJHdX5wHrPLD7c3jmHRgxDxSk2N0kbvigY0KyexLP6r0ED8WMdknIIxoL3OAEocP1ugtGwvX3udZKAUoxXx5yN7YCbYGPQ7brzKXfA9IRUcbsAaBhLOBY2S+C+lV9xXRR9OZ2mZD0Lwf3S+eBJHngq/+Fz/b4dMBjFthe6K5MydoAviUYslPSTtKyCeG21YNgpEwIts42sTSAQose2rWQPOCCkZAcfQEzlbysyNxANyLMnkiZVlzaTmU0TK+nz5ZqQjoDKt5Tmtp+PltlPq6sCv3aQpv6rjA9fevA/cp5IFwPKDOyYSu8MwcmL4W9ViOexIqkTeVrwKig0D1cfzprWfVAuSAYkSJ6mG1TgBxx+6MQve6CkRCdfR5TUl/XCzNsJiRhbLs7fG20k3+WdT2HeYKCdLF41IlHJiQbVLgUfj8QGlRzhenGLDfXEeeBH/CAxBOfGgFTV8Dxk2AvgkuK7KIAFk2sUAhS2LZ3NKm1cAXP0pxdGfKwdwUq7EKQuBaSB1wwEpKjL2BGtQCLIuiCMJHXAnpRuxatBwoEOiEPA8qU2V8Tku1HUOsy+Ol1fk2Ig2NFu8KcdeeBzHjgq69g9wF4dRKMXgBHJE5tbVOmRLBk6THp+7fX2pGkTsfF7a5gpGXIQ1awKhFhBbGuheQBF4yE5OgLmOkZFLCH3QsVQ98atlFn71seKAL0BgYCjWIBx7roR9DiCujVElrXdXCsuC946VXMfw/GvgvNakHXJpA/b9xHnXrjE3xr/acwdoEflBy0WuRcB3Dvewc/bwaK7XtSb0KtGvEEoFsEPdY3eVkEdlPWpAtGop160bS+EHIXFPX/HfhVyHadOV/XR5kQUfP+0VMOrhmLTEienFCjPPy8L1xREUTZ61p8PXDqtF9b8MwoWPABnAkSrDXKwgPXQtNakDcX/Mh9XmK1CFTovnMfPDUS5q2BA0dsHp4W7UceRPpxDwakDa+KlR1SwLwZleih6ifDbu0DWuGw7aasPfe1iHbqhWP9S8hd0Av3J8DTIdtNdXMXA8qEqSakRATc6Yn3v94ejarBr26E6uUcRW/iPWzWHb8ucN4Gfx8Mi9Z9E4Sc3UsFIKJt/n+3QOOakDO7WWNwvcm6B7QO9h+GZ0fBO/NBwam9TYdzyo78AZC+hNWiK/ZOwwV7/i9vTn4awbj6B+shAtOpadIFI9HOexQP2hkPC6kHbUS0Q08Z6wpCbgrgWCrEsz9tIDhWhyuhb2uoX83BseK+lFU7sGy9L5KnIORQOmA6qhO64jK4vg10auSyZXFcI1oXmz6DcQtg5Fw4qNpwa5tqSjYCI4GXgW3WjiReHY/iwFYevMtjOX0pXq40ezQuGIl2ft4INqlh9kLBSAePum52mEZT0FbhQDH9kQCOZX8QkjsH1K0Cd3ZzOiGpsKC/PAObd8CQGfDOPDil/VoGmzIlV10Od/WAOpUdmUEG3WfFzwXT27ITXp4Ac9/3syb2NiEHNgfw6WHepnSHg29FOpm3B8Fh2J0QoYzIDlwLyQMuGAnJ0ecxI99PCTasYfbiC6AusC5MoyliS3OqTIg0XP7pcdyXj8W4s2eDepXgkRt9lizX4u0BnXhv2wvPj4YxCxOnzF37MvjdQKhZwdE8x3UFqY7kyaEwbpEP37KbRFepHsG3VOwuKJfdo7FzzV3vMVspKAy7qa72l2EbTWV7LhiJbvbl+3eBpiF3QRgL6Zt8ErLduJuTnLgYynSSUy8WOiGCY7WvDze090+184YthxP3JWPg+KTE/dJ4mLo8OUrcF+eGupXg1i7QvLYrcjdwCWS5S8qofboLRs+DobPjQAksvQnBt54HtmTZP+4GGfFA24gKyUUsdJ8LQDMyVVn7rQtGsua/rFx9EfBBwGedlftk9FqxhtQCJOzjWtY8oOfnUuBqz5/3BHAscaPb3XJkg6tqwQ0doFENEFuWa/H1gGA2W3f7yttjFoSjvK01pbqjG9rB5RVdoXscV5eCko93wNAZMGmJ7ZTAmqFPg6JmbVRVUyLIs2vJ9YDqLBdGUGs5HOjngpHkTu7Zd3fBSHi+PteSxO2ERy0echd2BwHQ5yHbjZM5BZJFA3as38QGjqUNoqA0P7ke6lVxp9ZxWrHnG4vgWML3vzkN3pgCJyNiReraCO7oDpXLuEL3uK65vQfhPyNg+ko4eNT2Uaqu5FHg7aC+xAUlyZvRy4HlHgVz2Gl5BUASW3Rzm7y5/dadXTASkqPPY0acl5K0DZv7Uic61QLb0Y3eXsv5AOnDKBOiAgr7FdP1FmhZG27vDnUruw2hvWsz/T3XhnDQZBg8yz+xFl1rlC1PLmhbBx7sA5eVjLInznayPKAM3LbdMGI2vDUTTqp80dqmgEQq7jpBFz2/E09MzlTqG7smqMVMjoXz33WtJ0hdB8gEa0eY3YyPLReMRDeXZT0xH2FRw26bgmAk4t1H2MPOkj09J8qEiKJXdSFVAfuxS9kvgha1YUAHaFDNF6pzLb4eSNOHeHsajF8In+2PPgg519uF80GbenBbNz8oyaYkpGux8kAafGvUHJ+l7chJm4enoGQ7MDnQ7hIxjDtNT9yM6rurPUuhxN0yXXf6LDhsdMFIutyV9R+5YCTrPszsHa4CFmT24ixcp5dm1yxcn0qXaickgcJrAuGlKrEYfMG80KAq3NQJmtSEi9yGLxbzeqFBKAgRTGb6cnh5IuxQ2ZjhTeQJ/dtC37Y+fMsFJYZPWCa791nA2iZK4L3W6w2KHOa/wFvAh8CpTHrFXfaNB/IGh7ZFQnaKghDZjgi7GvJoDTDngpHoJuFm4PUIzD8DPBiBXdtM6kV0RxCEVLCt8+ftr572dvXhgWuhRjxYh2MxL8kcxMlT8M5ceGEc7LFws5c3J1zfCu7uCYULJNNT7t5RekAsbqpbemsGfGV90l5BidTcf+9BendG6daY2BbZjohiwm46iFSNrWsheMAFIyE4+QImHgNU/Bx2E3e2OLRd+64H9DyoJkTqq7d5J1yVYwHHynERdGgIt3SG6uVdTUgqrHxpPIxfAC9N8nH6Zyze4OmpLFYQOjaEu66G4oUcuUIc1/DpL2HrHr+mZPhsOGZ1YiGtpmRWIJ632sG3Mr1o5wbF5Jm+QSYvlASCGE9dC8EDLhgJwckXMKFU7oAIzLePiLc7gqGm26SegzIBRa+yRqoJsf/ZKJAHml0ON3eB+hqSa7H3wIHDMHsVvD0dPhQTacya1rTW8zVXQeliIDiXa/HzwObt8PpkmLMadh+0fXzKlEi477WAGcrqIpkIJiOqvVI3YFIE401Jk+5NHs20y+/TvJoRBQZht4pO8PBbLldh3A0BdE0sY/Y/E7lzQLOacG8vXzHd1YSE/YyFb0+ZkHlTGDDxAAAgAElEQVSr4ZmRsF71tDFvlxaCAe3h+rZQKJ/LlMRxulXrJPFEBSVSdD9m/R5eqZ4RXi3CE4DYmlyhe/rW7Z8DyFv6fp24XwkdoQDStRA8YP/GKwQnJcGEmJjmRKC+rpeheDOdxojPziE4lv6Ui0BUKfHLSqfEber6NSFVykCOsFmjEz8kd8cf8ICgLYs+hMffhq17QX9Plab1fkl+Xzjx5s6QX2VersXOA2Lf2r4X3poGw2bDKavXuPCSKt5aGhyAbXb0sT+4YnVYKE2XsJtg9H8L22iq2nPBSDQzfzGwCBAmMcy2D6gEHA7TqEG2RBulYnQpq6o4XRzm9rd8uX2dELFjObFC++czPSM48QXMExxrBizbEIei3/SM+sK/qVQSrm8DXZq4mpKsedLsqzd9BkNmwLRlsNf6z5jUH6d6EOGXAdVFSHfMte96oG1E0PIXAz0xNycheMAFIyE4+TwmCnr1CSsBQabCbJ8AtYDjYRo1wJbWuTJCA4Hbg8J0A7qVxS5IF6RJjW/ECrPbr7+YRY/E//IvvoSV62HQNJj9ngtCzp3xKqXghvbQubFj34rr0/DVV/DxDnhrKkxdDp9br+guxMIE4KkgY2I9Hi3BS08HiNq7hN2UjbkxbKOpas8FI9HMfOFAVbRUyOZXAU08Fi+rpW8z6LP8Hj3fvcDDniiVuMrjseavuhx+NxAqlHRFvBlcEFb+XHSnW3bCQ/+GzWLHElmPa+f1wI9+BIUuhr/dCS3qgAvS47lQVFOy6wC8MAZGzLWbMc6fIQUhOqQUsc02V1Pyf8tW+yQJH4aNwxwfaIxZTEVoz6Mfj42ZPf5O66kerg0BjWyYvV8YUOTFvXBO61p1IMqESDE9HnCsi3NBq7pwe1efotdtssJ8dqKxpaBj5UYYNMXPhJyO+6ObQDfrLVC9nF/orkyJqylJoHMNulVaoD54OkxaAvuPGNS5THVFmRIR3EiHTGxOqZ4pkcbIRiBsoaF5Xm1va8AFI5laxhm7yAUjGfNXon5dL1BfDzvS14tNdHVxbgpCdLIkUUkpptsvL54rB7SuAwM6+BS9rjA9zuvXH5uKdldvgiGzYNaqODAJRTdnKnSvU9FXc+/YCC7OHV1fnOXkeUCB+8atvkbJ5KVxgG8pCBHRzXPAbMB6PFomJ19IErGPhS18uCxAkrg0dCYnLiOXuWAkI95K3G87A6OBsL+KrwY1E4kbiRl3UsChOpybgN96L+/iZnQri71QENKsBjxyI5Qv4ehLs+hOKy7XhurQUXj0dZi8HARFcS1xHqhSGh67w88s5swRF9Bm4vwTlzsJvvXkMJi8DL44bfvZtujDJJoo5keJ8J1OsdN6Ef6siQDhsN6jYr4ccMFICO8FF4yE4OTzmNCp/X8jUPeW6vvvohlyUqxq/QryJijWPUDppFgJ+6Zix+rUEG7v5teEZLM/uRO2C620t/5TeHWSnwk54oh1kjaHep5qlIW7r4GWdSC3mNZdi50HVOj+2V54bRJMXAyHrOdtUa2nTuv/BUwHrMejpXPN5QmCMSEdwmw7gbKudiccl7tgJBw/n2tFxdTirw6b/uhnXgbhyWiGnHCrekkoqOsPSKwwbF8mfEDkzQlXN4NrW0Gtii4ISbyHzbujMh9bAmG36Stgv/V0peb5+EI9UuaxYVW4sSM0r+3gj/bMXMZ6qmyjAv0x82HUfDhqfQmGoirplAjpMDYFqPolmKXC/iikEFRvmqrwuIw9Z1n8tQtGsujATF7+NPBAJq/NymUq6H4zKzeI+Fq9lEoAfb0XsAKrsNnIkjP8AnmhUTV4+AYoV9wppifHy2bdVRukPZ/DO3PhhXGuMD3K2RH7Vsta8GAfqFoGcrlMSZTTkTTbKnTfud+Hb81bA4eOJc1USDcWm4VqKR4JalCVKYkjrlMHjZOBDiH5Nc3MQY9AoFHA5BWy6dQz54KR8Oc8R3CiEQV/tR7mGeEPOSEWxTUuKNZ9AQuZ/Ws3Rzbo1hju6wVlXRCSkFViw032HYL/joVRCxwcy6T50vNYqwI83B/qVXWU2SbNTSL7khaUiBJ4/CKQgKjdTTUlqm/4a5ApsR6Pds50CKc8ODiEDHOmlBHpHghShmk3JW3Zv6Gzb9ryAcOBLiF3XacmHYHFIdvNqjmlSe8HegYFbPYXUOTJAb1a+HAsUY86dqysrhE7rlcmZPgsGLcQPt1jR59TsZfKVLa8Avq3hwbVHHFEXNeAGOs2boOxC2DEbDhmfVAiSuAlHqH1UE9QeZCnrWV96idYevrmC17+UMhLUYV7YuYU2ZBrSfaAC0aS7ODz3L5owB3eMGTTu4M0p1gpTG+CYykToheBsiGi9LN/rUqIrXENuLenDwfJZn+Zi+kLKfL+6RRWQciM5fDsaDjg4MeRz0l6O5AzO/Ro6iu6V3HwrfS6zbrfCTKpuq0Xx8CCD+KgU6JMyaceZOsPQaH7XsvhW/r2iyXz0ZDXlljLfuztP54P2W5KmrN/g2fftJXxgoJ3A1G+MHsvBVNlRraEaTSDttLYse4EfgmIRcP+lv0i6HSlD/8oqVjUtZTwwKnTMHouPDkSDsblkDIlZu67g+xQ36fYLl3UZUrivAT2HPRrSpS9/DIWjK4KSv4IDANspejTvuDuCIICLYA/ewehf4rzkjdlbC4YCX8mKnqQo/eA/CGbXgF0AvaHbDe95lSYrgBEcKzy8RArzA59Wvl/KpfxdQ1ci78HDh/zC9OHzYate0Anr67Z74EiBaBNHbilq58pcS2eHjj9JWzeCW9OgXfmg7Kbdjed8EufROxb+mNjTYn2BVHApZ4Cfuq0RpL/ALhgJPk+PtdC7YAzO2zLUnBVMKIXkylNOKXKgIr5bwuYsuyvCSmQB9rVhwEdoUZ5yO7gWKYsuKT1QxS9h4/DjGXwyiR/M2P9HiZp3rL7xvlzQ6+WcF1rqFjKPd92z+aFe6+g5MNP4I2pMP/9OJBN6NsvZITYPMd4Ioo7LNLQaAdMiEAoWvU3twCqx3EtiR5wwUgSnXuBW7cBZoVv9uuXT68I7J7PpHbn0gmRYrooegsZ0q+sdSN/HmhxBfysr8+O5VpqeODYCZi1Ep4bA5t3pcaY3ShB7Fu3doG+baFUEUfJHec18dFn8O8RsPBDOBaLfem2QDxRVP+fW3Dy3zig970k5GU21csq9XFaI8n3ugtGku/jcy1cF7BphW35FeCOsI2ex16xoBhNfhA0y/5MiApdb+8C3ZpBhRKOHcuARRZKF8TGM3UpPD8GtuyOl1ZIuaKw6yB8oVrYBDVlCKV8vsbksrUMjlUaJUXyQ9fGcGcPKB72XimD/XU/z7wH9CwoKHlrKox+Nw7wrbRCd0G3nvXgSIcy75ykX1k9KMYPGx8pcUkhSqQ54loSPeCCkSQ69wK3ViHWC+Gb/bqILapCLLFj6WVyK9A7yIrYH4SIHat3S+jdCiqUdIrpESzqSEwePwnzVsPbM2DFBjgTEzzWRT+CKy7z2aNa1YVODydWGC5PThj7V/hsNwyZ5fvwVAKDnUgWw1lGixf0Kbul6F60kNMpiXo+kmU/Db6lNTxtKRy3nhJYD+HHwBCPPv8NQFkTCSqa1EoDM70+Vgu5U1sBMZ86LvYkO94FI0l28Hlu/ysP9/h4+Ga/VnzX6UeYTRXbCkKk/C6xwrxhGk+areKFoG0duOsaKK1Ej2sp4YFjJ2HhBzBoKizbAKoTiUNTZq9Kabi+ta99I6IFFe02vQ8OJpCKOE8umP4PKFbI992qTfDaRFi83q+3iUsrnA9u7Qrdm0IJwbfcZzYuU/udcaz9BJ4fC0vWJzZwj85h2nRrnyD4lpi4TGHfUMpxDqCa2zCbaBCrBvU1YdpNOVvuLRn+lP9PwBoVtuV+Ab1fWHalDfJEUKciocd4rLVbO8GNnRzFZ1iryBQ772+Gv78NyzfFAZ7xjVcLe+cDf7wNWtSFvLm++f+THYykWZIdCc+JTnXu+/Ep+tfbrmgBGNABbusGuRyTnimPcsL7oTUs+JbgmpOE6rG+6ZRFQYmyJFJ1NwW+JUmEZhF4t1yQLYrAdOqYjMcG0Z75kr/1gKtwO8yml0v7EArnVZguxfRfA11jI1YoReb+bf1T4zLFHHtOmCs3SltfnIaVG+G5sfD+x3DCejiG703VOdQqD7d1hea1IX/e72pnhBWMpM2vNFkUlLw5FSYtiU/9jbIi5S6Ffm18Bq6C+eJyLBPlk2mmbb0vNqqmZBpMWQInTCKuzJTLBNUS49bgIFsSNfvWeKB7pkaStYvqA6uydgt39Q95wAUjP+ShxP676iT0QGmjHmbTW1EnCsuTZFRBiNKnNwD3AhcnyU64ty1xCbSt52PAKwmy6lpKeECbCgUfQ2b6G2P7dQb8acudE2pVgH5tof2VINjUhVrYwUhaP2R3+Xp4exosXBsv+FaVUr7vOzQCQT0VFLoWTw+s2uhTAi/6MC6Cp7uBt4HXgfURSQQoKOofwYJpDcyNwG5KmXRvw3CnW5v2BUCTcM1+LXKk6H5Dgu0quBIc61HgWiAeVDLatPVqBndc7eBYCV4wRt/uq6/g4x3w7CiYujw+QYhO5yuVhJ/38zMhoqT9oRZVMHJ2v6TxIDrVxesSy+r1Q2NP9r+XLw739YSuTZwQarJ9HeX9VRe1YRv8ZyQsWBOXNbwvyJQIviUoV5iFc//2aIh/HMGU6vB4cgR2U8qkC0bCnW6xSm0O2KTCtHwEuDyBuEetmwreAMTQ1S0IQuxnxxJmfmBH6NMaShZxcKwwV2iUthSE7NgPv30JPvgEjp6MsjeJs62nVJmQX90ANS/za0LSexpvQjAiTwi+tWMvvD4FRs2DL0wj+cnkdInmuGwxuL8XtGvw7XqdTN7SXWaoB0QJvGUXvDgWpi2PQ1CionZR3Y4M6kK1pwkjKPm9JwXw5whmWbD6tyKwm1ImXTAS7nSrivFwBCqiB4JaDtnOStORat1AMV0PaJGs3MyYa0sUgg5XwnVtoJpq1VxLGQ+s+RjemQcTF8HhE/EYtjIfDar461lwLGX6MtpMCUbS+q1T5jWbYcRsmLECDiSQ5Sujvkn07+tWgutaQecmkC9Pou/u7meSBwRBHDYLZq2Ky6GH6kjGBvCt94BkFtY95B18/ieC6RQT6PMR2E0pky4YCXe6Jcst7GXYTTZLZuH0QlkPiQ09DPT1itniwWdb8GLo2ADu6A7lSjgKzrBXZVT2tLHdtgdemQjjF4Eoe+PQsl0ENcvBPddAizpZY3AyLRg5OyhRoftL42DO+3AkJgGkvsT1q/hz17AGSJPFtXh64MwZWL8VnhoJSzfA8VgoukvFXZkSQanWZWGv8X1zrppU1a2E3R4BxILqWhI94IKRJDr3PLeuA+j0IOwmsSCxaWW0KQipEoglCo6lwnT710yu7DCgvU+5WaQAXGQ/wiyjE5uSvxeQ4NBR+NcwGLcITsRiE+A/kWWLwhP3+nCsRNDImhqMpC3cM1/BvkPwryEwYQl8aYocQhafrDT41l9uhzqVIYeQva7F0gNaw5/thScGw+z3QH+3u+kNq9MB7Td+HggpJnJQPYDRXo1qOoreEupI6a48mKQAK6Edtflm9m8s7fJ+z+BhCrvXEjCS8GB6m+BkjYE7AL0ACqf3QqN/V6Yo9GjmqySLbjO9+HmjB+U6ly4PfLwdRsyByUtglw7xYtKa1YDr20Kb+pmDY13IDaYHI2n9Vpbrg80B1G4hHI5JlktBSb3KcEtnaFXXBSUxeVzPOwzVrL33EQydCTNXwNFYHJKo0H1CAG9KFHyrlccKOs3TPgk7bTgsYApNZGAV5xWdqbG5YCRTbsv0RWKCUBoz7PaHdBZ+KUWg7M39gVhhPIKQSwv5QUjftlC2uAtCwl59UdnTRnXvIRg73+f+36Wayxg0ZT4E6bmxAzStBRfnTvygbAlG0kYu6Is0HobNhOkrYF9Wy+MS79JM3TF3Dp8B7eaOULcq5HSZkkz50YaLTn/pE2i8OA6WrIsTfEtMVKq5WJhFRXftTXQPT6k11DYb6ADEhD0jVN+l25gLRtLtqoT88G+A8Idht96eDsio7zGqIKQS8C+gE2C/XLBWtj7kN3f2cdjfp6kQ9mw4e8n1gMACR4/BsNnwj2Hh8Lwkd0T+3QUnrFoKHr8HqpdLblBtWzBytv+PHocnh8PwuaANXhg8P2HMv5jR/uduqFAKsjtoaRguj8zGjn3wp9dg/gdxgG/JjdrIzw8OOjcCX2bCt5WBlUD+TFyblUs+Bqpnss9ZsZtS17pgJNzpHhSB+rpGKAas1ecZqrCXDQOhQimbxiMTIkGxPq3g2hZQxmVCwl3iEVv7/AiMXQBvz4CtosGPQZNOSJs6MKATXFktMTUhP+QWm4MRjU3937oLRs6BUfNhv9jNY9BU2N6iFtzSFepVcfVuMZjSCw7hSxW6fwpvTPGzfSeSSVQVmiOVshTU6mkv2/BuBrMNRT24lAKZsPXM9gcEQBKPdi1JHnDBSJIce57bytcqvromPJNfW9IJRMVzNEZ0rCYRxLuD/ught38tFC8IPVtA75ZQvkRyT45DnkRn7gc8oCBk0iIYOgs27QBBtGxvKl5uXANu6gCNakDeJMCxLuQj24ORtHEJj//Rdh++NXEJfB4TSuACeaBdfR96WkdBif2vb9sf16T1Xzol73/sQ01Fa306FmghbfAFf3oVmJFORXcdnu6MiM1T0LCYUPclbaVm6cbuDZYl92XoYvlaD5+KsMJs+vqKEWtXUPilVOdvAUG3coXZkaTYUhH6Jfng6qbwQG/IlzcOYVVSXBW7myrgOHoC5qyCx96Ez4/FY4iqCalRFn41AOpWjub0Oy7ByNkr4uBR+OdQmLLMpwSOQ8CqIKR9ffhZX78eToXvrsXTA1qvyvb+dRAs2RAXNsA0+NZvAvSGNvzfd5IkgcXLIpjgqsCmCOymjEkXjIQ31cpGLPcEguqFZ/JrS8Kq1AwU01VAL0avsDGXyRly/jz+qbHYhEoUdpmQ5HjZzLvqdHDCu75WyEc747OxbF4L7uzh07omgqI3s7MXx2BEvlCmZOd+GDITxsyHvTEpdJdYYqf6cFt3qCxJKNdi6wHBtzZ9Bv8d72dKlDmxv4lCbEGg56FD2wsNahbQJoLhNgjqVSIwnRomXTAS3jwrGNkAKDMRZjsETAFaAxJdtH/OixWAPq19il7VhEjszbXU8MCp0zBlMbw+1f8gxwGyoOxey9rQvy00qpkcdqyMro64BiNpftAp85ZdMGEhDJ4JB2JSUyLdJAm53tAeqpbL6Ky739vkAb0LRWutwHriYr9Oyv6m/YoK3V8I9ErO5ep+EbgrgmGK2Ee1Lq4lyQP2b0yT5Jgk3FYMVdsjwjsmYTgh31JwhKIFoUtD/+S4aCGXCQl5CiIzp42jVNKXr/dpL1d+FFlXEmo4X264oiLc2xPqV4UcBkFsvjgNzR+EQwmEvuXOCZMeh9LFEurGLN0sDer37CgfviUNmjjAt1ToLo2S3q2gZBEH38rSIjH8YmX7Nm6D/4yAZRt9CKL9TZmRJR6N7xNeJmQuoBSmoq1HvazJ7yIYngKglyKwmzImXTAS3lSX94rFV0XABBHeCJNlKXd2uKWL/+eSeCDMkuWq2N1XqsQLVsNTI+HDbfHYKGYTO1ZdeLA3VEsyRW9mFoRUod+YDG/PTCytqL42rWrDfb2gdiXzDhNEgvD2NHhtChyNiXiiAtyBHeHmLnBp2CREmVl87ppMe0BBtLR2nh4J08WAG4umAGRNUOeqzMQtHrOVsiNht4eBf4RtNJXsuWAkvNluFLBGuN10en1e4hK4vo0vWFiqqDvdS6/f4vA7nfYpE/LsGHjvYzgZA1pLwbG6NIIb2sEVlRKrmJ6IOZe2wXOjYe5q2CO0RJKaar2uqgUPXmtefYPW3ba9MHERDJoSD1IErTsFIl0b+VnlwgWSNLHutkZ4QO/KDVvhzak+g1w84FtK0armdm0gRRC2q6URpyJ715LkAReMJMmx57ltD084Z2gE6qHhjTARlgTHKlUE+rT0C9P14dTH1LXU8MCJU7ByIwyeATNXxSMTIjhWw+q++GatimYJ1mnzvWk7jJoLw+eEq/qsU/trrvKf8xrlzVIX1ynzvkPw6kSYtcpnMYrDpk4HPDd1gu5NoVghV28X57fqmTOwZjO8OgkWfgBHYpHt+0ryrxFM238DKYQITKeGSbfLC2+e7/UgWv+Jhbp5snxWohD0b+fDsXLbzzqcLDfF8r5Syhbu+ZnR/uYvDk1sWFddDndf41P0mtS0sd7zuc8o9cL4aGlCpSYugdLbukG5S83bIAuDP2IWvDgBDh+LR1CSL5dfqyQSkCIFTVqZri/J8ICCkhfGwIIP45FlToaPvv+egz1q3wHhm00diy4YCW+u/xwUXjmfn+vzgnnhgWuhcyO/SP2iKA4+wlsIztI5HtgQFF8uWe/rhsShSfvhzu5Qo0K0FL3n8+Xxk34NzoTF/um/KSQ80guSkN9PrvNP7U1qCt4OHIapS+H5MfGgBFYWukxRuKkj9GtvVmbKpLmPS1/EvqUDn5cnwNTl8cg6hzc3Ez2YWPfwzKWeJbcxDmfORZPzjCc8eE845iywIuhV6SLQr62vmq4gxMGxLJi4BHVRmRAFIYIQzFoJJ2JQE5I3JzSv7bMYSSfEJAG6r2sh9vhwrFHzk1sTktUlUigvdGsK/dpB5dJmHU4IvqWg5B35cR58GgP4lt67lUr67+IuTfx3sWvx9YB0St7/CN6e4b97j8fg3Zv82VoIXJV8M6lrwQUj4cx9buBNoE845gy2ohVXthj0ag43dIRC+QzurOtawj2gD+EnO33Yy7DZcDIGgl0SnGtcDW7tCg2qg06cTWlpIn/jF8Kb0/1MiC2tQB64vZtPYCF6WtMypqI9Hj7L13nYsd+cDFNW5veyS+H27tDxSijo3s1ZcaXx1yojqvq8VyeAstLxoAROltvF6FU7WTd3942DAJ4dsyj6kkkpH1mL0vTh/n7Rqih6XSbEjtWbqF7uPQhPDIZpK+DUF/Zv3hR09GgCt3SDqmXMyoRozk6egmdGwZBZcOyUnbAMvSMuzuULQgrKaVotmTIlB4/C1CXwzxFw+Hiinpbo7qOgT0GJqKe7NI6uH85yOB7QAdFH2+HJ4T6TnimwzXBGn14rWwHJM7iWJA8YdISXpBGacduigNJ8VczoTsi9KF0YBnbxGVykEOyCkJAnIEJzOpmXbsXrk2Hacthr0cn8hdymzXHXJnBjB5+a1iQ4ljbHKkwfOQdGzIVdB+KxudCXqkRhn55W7xJR1Zr0HpHfVdyuNS5KVTGU2c6+le0iqF7WrylpfyXkzxvhi8SZTroHvvgS1m3x1++MFXDidNJNWmRgF1DfY9TaaVGfreqqC0bCma6SHkTrA6BwOOYMsKKVdVlJ6NEUerd2glsGTEmoXdDp2ubtMGEhDJsF+4+Gaj4pxlRg3aoODOgItSqYBRvSZnjnfpi2DIbOhE92J8UFRtxUp/aqJ+nY0IdvmRSUyEFHjsOEd30Y4obP7A9KNCbBEEUJ3OwKuFioY9di7YHFa30B0EVrHXzLn+h9QAtgfaznPcLBuWAkHOeXAz4Nx5QBVvLk8DUV+reHghcb0CHXhdA8oCBEWiH6kD0/1ocH2d6U+RA7lmBCVcqYNxqJnA2f7bM8HYhB0JdeDxfO59PTShg1d870XhXe78QMN30Z/PVtf0OngNHmpqCvehn43c1Qr4p5FMw2+9bUvn/0GfzlTVi6Hs5I4iNlm1L6VwPzUtYDSR64C0aS7ODg9vVUKhaOqQitFC8I9/byix8lVmhSIW+EbkkJ02kicW9Ng7ELYVcMCnrz5vDZhaRaXaYY5Mhu1lTuPwzDZsLIeSD1dMv3uplyrr5gpYvBLZ3gmuZQwLDDDz0XCkpmroSXxsFHMUB55MwO1cvBT6+DK6s7SuBMLVyLLvriNGzeAS+O89fxqRiQjmTc/eKcvy0Qrs741e6KH/SAC0Z+0EUJ+UEbYFZC7mTaTRRw1CgH3ZpA58b+xsC11PKA6hImL/bhQVv22D926d60b+CfuF9RybwT4O17fb2LkXPh4xhsbhOxYvQlu7wCXN8a2jYwT6dEYxQlsGB0I+bAuq32nzQrY9i2LvRpDU0uN09PJxHryt3j2x5Y9CGMmA2zV6UaJbAKaO73jj5ecksiOR5wwUhy/HruXXsCo8MxFZIVpexLFYZbu8A1LaCAK24MyfNmmNGJ77GTMHkJvDgWtglSa3kTFr55LR/6o5Nfk2oRlPWQWOGkRfDcaNjxueXOTmL3VVNyfy/o0NBM+JYK3eethqfegW177a8pyX4RNK0JP+/n68KYlkFM4lJLyVsLrvXxdvjrW/DeR/HQiErfRP4e+Ev6fup+lVEPuGAkox7L2O9zBHS+Ejy8PGOXGvzr4gXg1zdBq7qQN5dZmzaD3RabrmlTLPG8Z8fBwSP2b6by5IReV8FdV0OxS8xix9KiEcxHQchTo0DQLNtZmsJ4EMQEVeIS+GU/aFUP8uQKw2r6bSiYF/xlxUZ4/C3YuN1+mJ3gW42qwS8H+LVVDqab/vVg4y9FCbx1N/x9qB9cfxn7mpLngB8DKYlTS/YSdcFIcjycB+gE3A60BuKhHlWzPPRuCZ0amQmDSM5curumeUAnutOX+zCT9z62vyBXSt+9WkLPFlCtrHlB9edHYNpSGD4HPtxi/2Y1iidJp/Yqtu7bBlrXM5OeVuKJ89+DwTP958r2QmFRALeuDX3bQr2q5gX3UazDONsUfbsK3EUnPmN5nCmBX/eofe8GnGR9EtazC0YS61QdvzUDfgJ0ABSU2N0EValwqS861v0qXyfEtdTywPFTMHcV/Hc8rNtmfxAiit529X2IYcXS5p3gihp25gp4ZaJ/Yu5a1j2gL12DqnBfT2hUw0wo0TEVujQyiEMAACAASURBVK+A1ybDWmmsWd7y5vQPru7oBhVLmUWFbblrjez+6S/9Q5OnRsJKwbdiwKT4bUdPB3oBx4z0v+WdcsFIYiZQQUhz4FmgKnFRttfJ8a9v9FlqTMLPJ2bO3F1+yAP6uKzaBI+8ANsP/NCvzf/3HNngmqbwm5vN1Eo48QXMWgG/f9Wvx3EtOR4oWwT+fp9PTmCSYGXaaAXhWr4efv0ibNufHB+EeVfBtSRW+Yv+vi6Ma/H3gNj9fv8SLFgbp7EKhzYUeMRDvWyL08BMGIsLRrI2C1J/6g3cCTSKRSZE/qhW2tcIkepu0UJxCa2yNtOpdLWCEJ3QDp4BKzfB6TN2j75gHp/x59qWcFkp89ixpBMycZGvfLxemSe73W1F73PngCurwcBO0KK2maf2gkUuXec/hwvX2p+RVFa9XT24oYN5BBFWLFrLOilF9w82w5AZMHU5nIqNorsoDMcBLwLv4d7YCVmYLhjJnBsVhHQD7gsyIgYqbmVwYFoJSqWLGrNrUyheKIM3cD+33gMKOlashxfHw/INoI+JzU2Cm50bwg3toUpZ84IQwRjmvgevT4E1n4AKQu1qCpuOABIEk8CHXhoXWTUEBSUta8PNXcwV8hN8S4rY0vBZtM7+oKTQxdCvrX9AUKa4O+yy6oHJRGcVhLz/Ebw6GRassf+74rtA7769HhJmsLdzGgS8D1j3As/EbCbtEheMpN+18pUK0RsC/wUqpf9Sg38p1hmJFd7ZHQZ0NLijrmtJ84BYfYT1/edQWLYxaWZCubHghGJ469gAfjvQvIJlQXAUhCjYe+xN2LI7FLck2Mjx4OP7D+Cds+7dxGOa+V1wQKPiMru+L81rwk/7QdWy5gr5LVsPfxsEm3bav6kT+9ZtnaF/B58QRd8i1+LtAbFv/fk1WLoxTpkSwbfGB+8+fUBdgXsmVrFdH4tMDDCBl/QPRG+uBAzjiczkKMsXhdt7+HAsV5ieSSdafJk2xuKJf34MLFkHJy1Po+fL7QsV9msHZYpCtmxmTY5OCGcuh1cn+UQA9mVC9NGVeOvfPYKOdy9QyCk68xrAz4A+QcbErHn4vt6IArhNHbizB9SsYGa/Fcyu2OATSixZb2Yf09sr7UAKF4BrmsGtXaH4Jem90v3OVg8o4752iw9LnbrMfhjwN/NwEJgMPA0sdvCtjC1QF4x8v78UdFwN3OstssZAPJT9KpX00+RSTNeJlCtOz9hTY/uvRcW47lN4eQK8+wEc0kG3xU2CmwPaQfdmZtaEKAhRYfqgqX4G6pR18DfBD2YAL3hU5XM8tkB9dH+oiUlQBzcPerhqib4qSLGniXGtxRV+UKJMiYktraZkyEz/Oba51kg7kbLFoU9L6NPGHY6ZuN4S3adTX8Dqj+HtaTB1hf3wQ98/egqlADwheF8uB2IvwJKIpeGCke96UT4pGAQff/UKleonwtGR30MpcVH03t4VejR3KfHIJySCDqgwff1WeGMyjNfBjcVNT6lOUTtfCT/rZ6bStk6wF3/oK23bSdV6FFgRZEImZmG1XAX8NqA9tw++1bsFDOzsq4ubyL6liVnwvp9xk06J7UxsBfPCvdf4hwtFCppHvZ2FB8FdegEPbNwG/xgCKzbB0dgwCerUaap3EPNYAGt1lMDf8wC4YOS7zrk2oG6rB2SPxcuj0qXwYB9oU9/MTVssnGz4ILbugVfGw6gF9mPNL87tY837toOiBc3L7Em0btk6eOYdWGmliJ1O8hZ6K/qPwPwEYaD1LtU79U+BBpNd71ZpZvRuBbd1hVJFzXzYte7WbYUnh8K7lrNvKVuvoOTHveGaFmZScZu5Cuztldav4FsvjYNpK+OSKdF8CP8sjZLHg/epvXOUxJ67YMR3riAEghKIHUsF6mKGsb9VL+sLu7WqC4Xymbdps9/D5o9g2x5/Uzx/DewX8ZHFLU9OP7OnE9PyJcw7Mf3qf2HRB/DiOJ8dS2KRdjVBDGZ6KP6ndNYOfJ6E7osERDToetdKQMyuqmWxDLapC/f3gksLJ8E9Cbjl8ZPw/mYYPB2mWQ5/UVH7ZSV8WPH1bSGXXWi/BMxm6t1CektrP4E3psC05XbDD789e4K3Cub6z+Cwx8G3zvJPKgcjGnsx76PbPihMl3K6/U1wrEql4KYOcHVzM5WG7fey2SNQYfSnu2H8Anhjmo2b4m/8qxPSUkWgfT24/1ooqL2sYU3Uq2LHEvXqfGH3rQPvHwaWesC35wL+/DAoKsUuoHo8BSUKTgTfsqdpU3xzJz9bUq64mTolWofSKXlloq8XdOSEPf49X0/LFIHbu0PXJv7hmmvx98Dqj+CFsbBsg/3r99uzNSaoKRFeWu9f6z4aiV58qRqMqLhSTC9S0hTzi/1+kMqtTpCEte3SxFxsc6JXsLvfNx7Q5mP/IXhrOrw22W52LD2RuXLCzR3gpk5QzECWHdXgvP8xPD0SFlnJaiT4wMoAOjUtIp58BSXiFP9DUJ9n19F3gTxwWxdfyK/AxeZmnxWM/HsYrPjIRha3b7/lK5eEB3pDm3oOdpwK3z9t01Xo/sIomP+h/ev3mznToY9YCVVTMjuAc6XCjJ53jPZvwjM2dcIpDwzYsWp5GD6JF9rfyhaDn10HTWs5OJb9s5m5EahY+vnRfk3I/sMgyJCtLU8OuKM7XNPcz4qYRtErv0oc8h9DfYpewQrsa4Jh6SO4yICTOX2HlBlpGhS6N7fKnToIUu1S9yZ+9i6fzroMbHpHCJP/2iSYrhjU4pYjm3/4dvfVPmzTtfh74OQXPgvkf8fB7PfilEsQUYgy008EtSUpCd9KlWDkUo/3ubOHgf4xUMc6nPL5XjPZL4Lq5aB/W58dy2Fp4/8yPneECji274WJC2HobNh5wF4fCI4ltrerm0GvllCyiHljUdAhJeEhs2DmChuJAFQ0JFiAKHpFPWliFJUT6A48FMC3DN3ZX2B5liwMAztA5yb+GjaRNl3U3h8GmPx5a+CQ5SQ/dSrBHV39w7j88WDfN+/lZ1iPdBj0xlSY/z4cN/E1lil/KVMiHadngkL3ZNTsZapjYVwU92CkkHeG2SP4sImi165iyQsFIZVLwc2doWtTl6YO4ykx0caBI34QIjztPosL07VZK1YQbmjns2MVzm+etwXH0ubtzWkwcbGNJ3LiylzmUZY/GSgF2yB0Io2nvsEB0hXW6ZSULuwzbwkyK1E/E4MSPWnC5L86ERZ8YD+larOa/nexcU2QeKVr8faAgmqJfj73Dry/BZQ5iUcTfFaHRgpKJKJo8Qc+/RMS12BE45JiumpCqlv3IbvQ/BXIDY/eAVddAfnyxqHSJf0r1f3S94CK04fOgFcmwe6DIDpEW5soen92PXRpBJcUMI8dS379ZCf87iX48FNb4Virg8MY4XJ0BG4Tfi8NviXYllSNL7NqqYsJqmgBeKCXL+QnOJeJTYrYn+6Cfw+HGatM7GH6+yQCl3LF4E+3wZX69LsWew+cPO1nrB9/239Px6cpKFkDSO/unfgM6/wjMfTtmGm3ix2rW6D6KziWiiPtbjpRq1UBbmjvs4jkForBtZTzwIHDMO5dGDEHPtph7/C1nsU+JKVlwbGKKXlpWPvitH9iPGgazFttIxGAjgil/KuTtVGAdRzD51kRolsXFfC9Af26XYXuolnv2xY6NTJXXVwnzWsCSuCZK+GIxeJzqilpcQXc1BEaVHcwZsNesUnpjoLqpWt9+NaStXDKhgRwujyhgeiU4D9BpsRiPPaFxxuXYESE74Jj3R0op9sPx1INiD5g17fxP2AOC5uupzZ2Pzp41FdXfn2Kr11hcxPRQq8W0LcNFDUwCFGWadUmGDbTh2OdsSmJ8PXCUBCij5ZqQkYEmRCbV8z5+q6g5FbgDm+Ml1snTKt3uiiB2zYwl55WrHwrN/pU1UvXwz4xj1rasmeDDvX9QLBeVXeYZ+k0Zqjbp07D/NUwaAqs/iRO8K009q3XvAOZicA+yzLd3zuNtgcjCjqUCfkXUDEWNSGarpKX+HCsJjWdTkiG3kIx+rE2BLNXwWOD4LP9dg8sR3b4+XXQuzUUMLTAVAKFDz8Lc1bDl1ZC3ySoJaZAiRYet3vBpKv3Ki7qHcC37BOdqFAc/ng7NKlhbj2J3kG7D8ATb8Mkic9ZF5x/s5AEkVNNyb8fcgd76Xq8YvAjZfre+wj+36uwaXsMBvR/Q9CDuCVgHhwGWPnBOndCbAxG1GfvTU6/4IRMFL32w7H0smxQBW7v5rOCODhWnF4e6R/LsZN+JuTF8bBuK+iFamsrWxT6t4NrWkCRgmbWOKkwXVSnooo8ah0sRYtjCfDvgB0rFYKQs58GfQuUYpNm1P0eJK22VZpRqimpVhZu7wqt6kF+Q4nDxNq3eQcMnQmj58FRi1F/eXNCi9o+uUDtyubW8dj6zjex3ypslx7Uc2N8cdrTYWi6huIIDWQD8FQAx90bitUkGbEtGCkZfHhuCz489sOxhG2tXRFu7Agt65jLUZ+kBehuG3hAKt6LPoTBM2DxOnsL01UTUqU0dGkMPaUTUtS8KT5zBj7cAiNmw+SlNir7ptWEvBiwY6UUBeQFFlSJ4NsgqG5Nq7LkCkp0EHVrF/8gylQmKB2MrNviByWz3rMbvqXAr30D6NcOrqgImgPX4u2BU1/4NYDDZ8G7a+39xn53lnQopRpBwbdGA3tshG/ZEIyoj0rJi3v+j0Blq06/LvR46+Un0SaxCemkJqdd9ZjxfmuFODqxY63fCn96FdZssYvr6Gw3KbNXKD880BN6XGUmHEs1IQePwN+HwMQlNuqEqJBReINfe2rl42JaE5LVh08CNcqSPOBBuPTfdu0yG1aFX/aHGhXMhegKrrV1j8++JVijII62tlzZ4NpW8FBvv4bnIruWi61uj7TfompfuQkefws27QD9PR5NQYngW48HNYOHbApKTA9GLgEGAL8AysUiCNGmTexYP74Orqzm4FjxeAlkfBRi/hAd4T+H+XSEKrqztV1WHO7o4RMtmEo5vWEbvDDG1s2TPjIrAorH6UFNiMUA/qQvdH3XFIio0F3sWxWs+naoxqpqafhFP2hY3dygRJmS7fvg1Ukwdj4cs1jnIZ8yJfXgrquhUumkL1BnwAAP6Jv7wSfw97d9nRKbafK/7U59G3RoJfjW67YUupsajCjlfv1ZNSHZDVi6We9C4xq+Ynrz2q6ILuvetPMO+oALt/rGFFiwxkbaWN/vgmNVKwPXtYKOjaC4zg0Ma8K6f7wd3pkD4xbBfutYgXRkt9SjtBAca1LwUTHMycZ3R9okEk8UtNeurHqu7NC6Lgzo4GtmmAol0iZuw1YYvxAmLvL1j2xtEmC9uhlc1xYqXGouuYCt/jWx36opUZ3myDn+YVV8jnlUU7I+CEiGegyEn5no/rQ+mRaMpDGkKBNSw7oU+/lmWtSCNcrB3T18scK8uU1eD65vyfKAUsEffeaLFc5YDicszYQoCBFF74D20LMFFMxnXmG6Nke7DsCQmb5ApH16CQpC1nnw1H8GhYkpocCbrEcvyIpcCvwkYBzTf9uDx5GQX5s6fvaxRnlzMyWCb+3YBy9PhKlL4cARezd2hfLAwC7Qu6V/0OLgW0l8PA25tYKSpevgmVGwfpvdaIXvZko2BbpTYt9SobtxIZdJwYhOsKQyWdeqlPqFnqOvC3lLwa9vhMY1zT3VMuQ9ENtu6AP90Xb45xCY/6GvoG5rE+X0g9dCt2bmwgsFG3llAoycZ+PHRHCsDwPKxqmBboitq8XEfut7pxSeam5u8T7OBrIrfI/blBlpVBV+d7MPJdI3xsSmd96RE/D8aF+k1b7DgG+8KlbLAe3gzh5wic5KXYu9B3SYJfjWo6/BmlgpuisAkWCiMsWigDeqmfI2E753kAdJ6GqUdzLbmUbVfeXXppc7OFZmfRiH69Z/6guHTVsOhyxmXRV+XawzHRuaqZiuV6yoR4fPhMnLYLd15FIawaIAjiUxK8uFZYx/eEUFL8jWjQEU2K4igUvyQcvacFMnnwnK1JYGkxy3AIbPhoOWvgO1SypbHHo3h2tbmwlJNXUN2Nyvoydg+XoYNsunfjcul5Bp5wqudRMw16QMiSnByEMBJMHe2hDBseqIorcDtKjjgpBMPyeWX6iakI93wJAZMGkxfH7MzgHp1LViCV8tXZmQIgXMO4mVr7ftgWGzYcw82H/UNl8Lq/d+INw3Pji1sm0MNvc3LSgRHbBOC0Udb8o38Yf9WiAPdGoIN3SAauXMzb6nFbq/PhmmLoO9IvmxtEk7Sf7u0QyKSjvJnuViqcej77bY4hZ9AK9P8UUURT5jf5M+VVuTBHJNeJKE3V3syds3tHJ+pRNS6zK49xpoJYSZaynpAZ0C7trvc/C/OMFeFwgKUq4I/KSvnwkxESstGMiBw/6J1XNjbRSxUhCiwsK/ACPjoqBr76L/uueFgwOxXkABq4IS9X5gRxjYCUoXNfOZTVscR477IqOq5zp4DPTetLHlywWP3ACdm/jaYC4osXEWM9ZnLdVVG+Gvg2DdZ3ZDrkHfoCsC0cSM+SFJvzYhGMkZOET0i/Y0ea7FFXB7d6hTyVyhKns8am9Pd+6H1yb6EKG9B+1N59YqDwM7Q5v6fmbPhLfDuatiz+d+1umd+b6v7dvMvBdsegXHEu2Qpbsxex/X7+m5xJ4E3xId8ECgoFWjLFoA2taDO6+GcsXN7roK3ScsgkGTYa+l/AzZL/KDPwWCVzeHAheb7XPXu8R44NhJWLHBh2DPWwM6HLOz6T33gildN2G7kcvTElGlf1lTnPK9/dDJsYKQ/u2gYQ242LFjWTFvie6kXkD7DvkvpDEL/DoFG99JOtET29vNnfzMnolFmgo49h/y1enHvQuf7Uv0bCb7fmIt+CiAY0khd0eyDbr7Z8kDCkp0aiidEgUlqlw24VuZvkEVLwidG/uK7iWKgLStTGyCb+m9KUVsvUN3qLbWwib/Vi0DfVpBn9aQO5dNq8VChxvS5eMn4d0P/Czf4g/hjHUbgL95JCm/McSbRrxgdZwggRazT6Hy5AKdHN/XE5rWcmlZU1Zw2P3QB1S0sTNXwFOj4LClRZmqcapcEm7p4p/qmahhkAZ9m7AQnh0NJ63D6ioVvsE7aHkFeNZjybKUzznsh8woe2UCOF0369i3xAT1YC8/MClZxMxnPG2qDx+D1ybDiNmw/4iNGU9/JBUvhYeug6tquUyJUY9xEjuj79SStfCf4T58SxTBdjQXjJwzT2YHIzpUalgVHugD9aqAON9dS00PiJb3xXF+XYiKMK07CAmmTYXp9/aE9g3M1b35/Ai8NRWGzYF9h21MhW8G/uHpJYnXXfRetq6W1HzWvz1qvfRrAQ8DfQBBi+1o+n4Vzu/rZdzT0+xMvrLNB4/A8Dl+XYmt5B866LmsBNxzNXRqZK4ujB0r2J5eKggR+9ZLE2CxZKKMby4YsSIYEXylRS2fPrFBNbNf4saveYs7+DVn/nEYNRdGzIVPdoF4yG1soui9qwc0r20mHEvb9WMnYPA0f0OyzTo4lhZGWhAiFgPBsVwQYuOzcv4+5wHqeZn8Oz0Cgn6APRhdQYlKFIa+raFvOygksVJD4Vtfi5bu94UTVR+21br3gL96VFMikUq9c9vUc0FJfN4D3z8SUQJLPPHNabB4rclZPheMGB+MFMoLf7gFujQx94WdKg92VONMqwmZvRJengSf7o6qJ1mzK7a36mV9it6eLc38IMrXuw/AjBX+qdIu63RClJdf6xU/vxUUBFrK55y1pZZiV18J/MLj6m8DGF4tfs7MlCoMd3SHtvXhUsPVxXU4IepuMedt3WPyxu77l3+Tmn5d3pXVoUDeFHtUUnS4gnTPXQ1PvA2bjdw/uGDE+GBEp0hNasAfboUKJVL0SUrhYQsDOnUJPDkcPt1rpyN06llZUIFevhZBDkPhhadOw8jZfhCy07ogRFmPXcBjwBve5tQ6oRM7F7dRva4dsKOJs1809fa0Yvnhrqvhxk7mFrmneVNBydj5PpX33sP2+PjcntarBA/18QWRTc1M2etds3quQzYdZj7+FnxqZHbPBSPGByNpHRTWtnsTuP9aP63tWrw9oI3xRNFNTvWFC20VN5L45gPXQv0qcLGhHPhiIhE71tDZIJpPu6BvCkK2AI8Ck4E9Tisk3q+GHxidPg4SmXoE6OgFp2LjsqOl1TcMaA89W5hNUZ/Gqjd9OTw3yl5K4Ly5oGZ5+GV/qFXRbGIBO1axWb08fQbmroSXJsL6rXDSWN4SF4ycs3L0Itfporkk3SUu8UUNOzT0lahdi5cHxIglar5XJsJ7H9s5ttw5oE5l6N8W2jaAXAbuh3RSJCayacKCz4RPjExdf9/866vyAfCmx5szCNhv52JxvU6iBzp737N7gFZAoSTaSfytRfGtoEQ6Q/rOmXxyr3f2O3Pgnbnw0U4bCS58+l9lrQWhrV8NxH7mmr0ekP7Iyg2+Uvu7H9qwJl0wcs5qE6WvxL/Mb3Urwo/7QMOaICy+a3Z7QOwXenmINnbFRza8PL7rbxVJqibkjh7Q8UrIZui61It62hJ4YRxsUSLBqqbC9E8Cet5XgUNW9d51NmwPCK7VMuDw1/9KS8ueJra9X/SDZrXMzpTIo2LdG78ABk2HHftty7D6a0K06u3qwgO9oVJpULbKNXs8cPpLWLcFnh7l647YozfighFrgxF1XCfOTavD72/11VdNPj2y53EOt6c6oV+1CR4bBBu32wvHqlwK/nQr1KgASv2buBZFhzxlCfx7JOw8APq7PS2tJkSUrlMBqbJZSqVmj9Nj1FNVKjfxNLSeBC7XttOasanGTEGJDt8khmryBlnwLcE+56tYeIi94okSUL6yCjx6JxQvZOb73JoFHEJHtY/4ZCc89iYs32iTvkiac1wwYnUwktZ51ZP0au5T/4oy0cSNYAjPo1UmTpyCFRvg7Rkwfw3oRMO2pk2CakEGtIOWdc09udSJpeBYouj9QOUVVjVFTGuA14ChQU2IVQNwnf3/7J0HuBbF9cZ/EUUFpChiV8SOBQsWbKjYK2LvGrtGjSXGGKMpJraoURMTjYkVG/aCDRs2xI6ISrGhYkcEC6LJf1927z9XvHDbfrsz3/fO8/ikuDtz5rf77Z0zc857giIg9Yj+wEFZ+FZcksD63uy5aeqUdJC6ccBNMuxDnoVrHoBX34nzpERRF9usnUowq7aZ1xZhvXDKCXl5HAx8AB58AbSuiLPZGakKZ6RuEipudPC2sPmaMI8l+4L8TWo3fsQ4+Ndd8MhL8F2Em9sKx1Ji+l6bp4W0Qt2pnDQlZXz1vfBylE6IKqYrFOsK54QE+WuO2SjlRW4GHA+sAQS+sq+HWgqT662YhoOuunT4+Q2q6H7PsLTWw7gPQDKrsbV55ob+68Eem0L3hZzoXvbzk8jKWxNSR/f2x+HLaJ2QOpJ2RqrKGdFktHOx5ALwj+Nh8QW8k1H2R6NufB2jvvcJ/OEKeEyxnBH+QdJcus4Dfz0WenYPMzFdNortIy/Aby9PpTfFPq42OXE+jgJuTRaL+u/RTSAu3DVtrXJI1gP+DiyjvyDR0JBTssJi8IeD0u9R6Lv2ygsc+mL6Xfo0UuVtnZRI1VOlBuaOK/0omve6MUO1yXb6lXDvs/GGdf94jnZGqs4ZqZuQdq+3XCs9KVl+icZeb//7ShHQScjIN+Hfd8PjI0HJ07G12WaDvqvAvpvDGsvBnIEqrUj///5n4Ir7YPT4GIuSjc4KFQ50OFZsP5Lo7ZWS5PbAkcBaqtkdzYzazg69l4Mj+sMqS4W7SVIHVCclD7+QyrZLbjXG0/FO7WC7dWHvzWHJhaJ5VaI1VLlI4z9MJejvGgafVJ1uiZ2RGV5OFY16KdoXtiHD5+8Eu2+S/tM1LnXH6J/D6++ksrF36BhVhbEja5LoXXsF2LMfrLsytA1QoldI5YQ8OTL9UA9/LbY/7jr1eAO4NssLkVKWmwmURWA+YDvgZ8nJXK+onJK550gruSuUSLkloar51T1ZbUw9+Gxa0f3ZMWU979aNu9C80H99GLAhLNYt/NOp1s22nLsnfAq3DIXrH4SPqs4JqWNqZ2SGt6sfMKScN67Co3ZuB386BDboBdpJcqsMAcUDfzwJ/noT3P4kTI0xMb0NLNAFzjsSVlwyzJwQLeGnTYOX34TT/g1j3qvM86xcr4rTU/nmi4DzopEUrxwP9xwWAcXgDEiKJv4xyVtaPCr1rTZZTslJ+0D3BcPPb/h2GgwbBb+7Iq19FONJyZyzwyHbpSI6HdvZKWntb1mhxVO+Tp2Qi2+Dz79sbY+h329npGacEU1UMba9loLjd0uVMUJNPA79Z9OQffp4vPtxmph+99OgQlixNcVcb7gyHJwlhkotK8QmxZBHX0zrhIx9D6QoElfT6cdlWWL6+3GZbmtrjMA8WfjWr4AV9FckmvlLYnyjXnBYf1hmEVC4achN3zWd8P7j9lRwI75ct1QGeO9NYae+jsRo6bsm9cfBT8Eld8FHE2slY9DOSE05I3WT1XH2Nn3gp1unhY3cWkdAqhY3Pgz3Dof3IiyErZOy9VeCXTeGtVdM64SE2JQAqljrGx+KNRxLkl5XAtcA40JEbJtMoAECSmrXHwpJAh8MrBxVonvn9tBvddi9X5pTEnqb9GVap0R/U55+LXRrf2xfnYjOjhvA9uun5QbcGicgKeibH4XbHofXxsfpjDY+y5ldYWekJp2RuknrI62kv+3Xg84dfLTanB+SwrG0g3H9Q3DlvTApwpMQFc1caiH45Z5pYnqoJyFyQiSHfNZAeOWd2D7SOrb5ELgaOFt1mq2O1Zwfmq8NjIBWlgcAhyUne92jyilRDpwWyBJ1WWDe8CMDvv4WHnkeLrwV3vsYpk4L7FVogjnzd4QT90zrwqjcgKIz3P5HQKdfyh0a9gpceBO8Hl24cV5P085IRZ2RnDRqagAAIABJREFULvNAn57w4PPhfkj0bdBH4vQDYePVwk1SzuuVz6OfT7+AWx+Fi+9Iq+3GJryqnat1lk/D9VQxPdRwve+/h+fGwPnXw4i3YquYrjdNIViSTNU/ER6Z5fFjcR9VSkCFrPZN5CN+kZz2LRnVSclcbWGXDWH/rWDRbuE/HhXEHfEGnHcdPDs2fHsbsnDBTnDEANhmXegQT53NisJWrtCjL8Hvr0zVsaSYFUObrz18mnsOi52RGZ79Voms4eDc3gcdT95zFrz8Rrp7/tCL4e7qatdojWXh0O1hzRW8g9HQSyBJxivvSXNC3vogPidEGvGSe5b6yWrLQvtA/yioTsjjI1IlMu0YfR3djqDCsf6VKWQpPySSvzK5ffncUW0QUBKGwrd2T07/Ds+cknhmrr/Pm6yWhitLCSr0poTmZ19L1bdUzDWWxWsdV2166SR+141ghw1qtzCzoipUBPOGh+GlcfBNJH/fll8M9ugH83aEoy7M+9diZ2QGoicA5+RGWR+7B85N1at0xHrXE/Dve+CNCeF+SFSfZM9NYe/N0g906El/uT2smXSkY9TPvkhzFS67C95UxE1kTTtRdTr8Kg4WajiWEjhfeQv+eQc8MRKmRVUYUrJpOmO/LikN+VdgAhDVBCJ7q21uWAQWTd75Q4G9E3EG/fdA1S8agKZCrjol0a79gl3C/5untcQTI+Bf98DL4+JTbFQ0xspLwoHbwgarpDmKoReszOO3pr9vel5/vwOefjWOwsdtZksV6XbpCwP6Qqf2MPxV2OdPeRCp34edkRmISjEkP8r1nZG6gXQ0d8U9cNGtYVfPbD8nHD0Adt4YOsyd94sXR39KKJMTcvrVoKTC2JpOQhQmqJjdZbQ+CLRpp+iFMfCXQTD89UCNnKlZOvX4BLg4CXg8N6uYHtscbK8J5EVAS83fAgcCC0cVvqU6Sj8fkO7az9cxjgXyiLFw+lXw8tug72hsbcHO8Jt9Yf1eoPC5amwqfPzqW3DmNfGE2elX3KUDHLRNKtdcv8aYnZFC3tLKOyOahj4aCvNRBVapJ3wbqDSpks0kiSip163WDje3oBKvhhSbrrkfxrwf7inWzOatD8k266SFLldZOtyKxDp1enpUKoesol9fTa3Ek6xkn+9m+SBXZSchgf6QK4nAfZvAjwi0yWqTSH3r5OSksGtUjBbpCjuuB4fsEO63sz5QhW89PxoGPpDmIMQWFKoaJdosO3JH2LBXda0zXhyb/n174pU0UT2G1rUjHLg1bLk2LDTfj51yOyOFPMVinJG6qSgx7YXR8Lfb4ZnXwj22U+jWhqvA4f3ThGftuFdj0+mH6ldcfR+88na4z2Nm7BWOte5K8NOt0mKFoVZMV5iBqtNfeV9agTiunBA5HArHujyrE/KOw7Gq8WPgOeVEYDngIGAPYKFo6pQobGjx+dNw5S3Whm5dIHQhKKlvPfdaqvD4+Mug/x1TU06JTvK1ibb+yjBXoBLzjTHVuu718alzKLn/GDbZ9G7P3wm2WzcN019k/pmfDNoZaewNyOXfF+uM1JmsY7zbH4NL74J3Pgp3J14v7D6bwb5bwqKzeFlzeRQFdqKPxYuj03CscQr1j6wp5nbt5VOZZp2EhNq+/Q5eezs9Ebx7WLjvecP8FAOhkxCdgvwZmBQqZttlAgESmC8J2fpdVqskHqdEILVIO2bnNNldybsx5DdINOcvN8LzY+NYDM/4wq65bFqsUqI6c0filGgdp5pj1w2BgQ/Gc0LVqV1a3uFnA9ISD401OyONEcrl35fjjNSZLslYhQddeEu4CzV9iLt1gv22hL02iz/O86Hn4JI74NXx4covz+zVlnO4RW84YBvouUS4JyEKxxo9Hv52Czw2MsY/jh8D52W1Qj4AHI6Vy+fWndQYAR2pSwZYksAnApGsMnWeo5OSrum3VsUTY2jKTx31Fvz7brjvuRgs/qGNqoO12lJw7K6w6jJh2y9p3rMHwiMj4skvVYTLnv1gt37QfQFo08SIFzsjhbyLZ2UfyXwGayiBvbGeJWv65oRUQvb2J8JVypBTslJ3OGAr2Kx3uAvhhniriN5TI9MwoedGhy0k0JD9CsfadA3YZSNYuQfMGWjin46rX3kT/j04DRv4MqqcEJ2EfJZIl/4z+0fhWHZCGvt++d+bQOMEpLTVAzgS2AvQqUkcTepCyy0Gu22cxtQ3ZSe57Jl9MzWtU3LtkFSQJRYp2TpuOvlfZ0XYbwtYfZlw1hqSVlYxymsfgLuGwUefl/2kmza+eG6xZrp2W2qR5ufo2BlpGudWXnUzMKCVffzv9pY4I/UHf/JluPBmGPkWTAt0HaTd+a3WggO2hhWWCFc2VlwlradK3soJeeD53B5zYR1J3WKDleHAbWD5JQobttkDKRxr5Btw48NpOJb+dzxN6Z/jgduA85Nq02+7Tkg8D8+WRkegZ1Y4cQtgwajUtyTuctQA6LNSWjMj9JwSvRrDJRhydxq+9cVX0b0s04VZ9t8Sll+8PKdEAkQTPoXBw+Bvt8WTmzPPXNC3V3q6t2L3locb2hkp5HcTljOiKU/9Fh56Ps1n+OSLQiC0aBDtGO2+MZy4R5iJZ6++DWdeDc+MiS8xXX/k+q+bqrt0XyjsgpQfToS/3AC3PRluqOHMX3Ad3fwNUEUnnYTEpkvTop+ubzKBkgnoC6dkN9X5OqRkW5o3vCIEll0Ijtsd+q7a8gVe80Zt3dWKvhgzHi69A+4e3rq+yrhbie4brQy/3AcWL7hYpU77VQfrmgfg0yllzL5lY67XE47eBXot1fp31M5Iy55BM+8KzxnRBBRz/+FncMvQdFdjSqDhLvowLzwf7LEx7LEpdGjXTPw5X66PrmJm/3lnWrFWKk4xNcV07tw3DQlYetFwT53E+e0Psjohr8HnU2JaxsvhUDjWpZlClqqnR/aixPRS21YTmCkB5ZAoOUDqW/snJ5OdomGlb7Xy9hRKtGnvcENn6wNVTsnY99JK4Lc9Fl/4Vuf2sOby6emU/j5qQ7RSTX/Tbh0K1z4I734cx0ab8pzWWymVTNZJUl5CAHZGKvWW/aDfMJ2ROhPllIx7Hy6+NdUTnxKwbrViO6VVvf4qxSe56zRp1Ntw/YOptF5sMbLzzgMbrAT7b52GY+mjEmKTesjod+DmoWl+0+SvQ7RyZjbJCdHpxy2ZI/JaTMbbVhOocgLrA0cAm2U5JYF+BGd4CvpWS5Z2782h97LQPpKCwS+OSaVoldv3WUQ7/sKvTdD9Nocd1oflFs/PKdFfiIlfpGsI1RyLRWmzbRtYc7lUaGGTNZqfE9LYh8XOSGOEcvn3YTsjdVP8/vu0WNzvr4S3A5YCVn2SvqvAyfuCCklVWhJRztpHE+GCm9LF8XeRVaSdaw7YfA04aDtYdrHK82rpT0actTt02Z1w46Nx7BL9cK6S5b06qTF7ATC2pRh8nwmYQEUJSN5n1UQ44jfSDQTmquhoeXauv3XrLJ8qQanmk0KLQm/KhdBJyUU3waMvxxdJ0H5O2HptOHpn6Nq5dZt4ErlRePw/bofXpegeQdPJ0JILwgm7wwarVO6dszNSyMsQhzMiFFoQqj6GfjBnXxe2kkNH6Vj3gSMHpDrteTexUH2WCwel0npffh1TmBDIaeu/fpqYvli3cMOxpB7ywWfwh8vTiumTv4qJs/a55IRcklVNf9/hWHn/EN2fCVSEgMK3VsiULlXVPZLjBtJv+fKLwq/2TuVpKxlKlBd65UUo7PaKe+CWx+PKsdT5Wcf2sNkacOwuqVPSnKZQ7sdegnNvgHc+Bp3+h94050USQbrfHgCrZadxlTxHtDNSyBvxQrYTk89grVXTaqoV73+ShiTd9EjYSVVLdEvl5LZaJx9JxLpcBRXR01HqxMiOl+dTOJaO9LdI1S1mq2DMa1PfpYau0zJ+zLtw66Nw09DYVFhkvba2bkhqHFwJjGwNCt9rAiZQGgEdLyh863BpOGrZWZolzR1YcqpSMtprU1h5qeJDl5trr67X5tNLY+DmR+HREWFveDY0v26dYacNYft1ofvCsz4p0QbmYyPSnBAttmORLlF5hZ36wo4b5JcT0ti7YmekMUK5/HvJeC6eS0/qpChnRGPpdOC1d+DCm+DxV0DJaaE2VVdVUtVaPVu+UyR970GPpPKxn04OdaYN26XEu63Xgt03DT8c671P4KaH4bqH4PMv4+IMHwE3ZepYo62OFdvjs70m0CABnZT0TU42fw2sFVX4lk7BN1eh2q3TGlGVDl3O4wWanqv6XnpScv9z8RT1q5u7ijRrwa4izV07/ZC51kkvjk2VxZ58Bb6PwAvRO7NoV9h/C9h2vXw2dpvzntgZaQ6tFl8brzNSN2XVIxn1Jhz2Z/gs4MWj1EdW7QHnHJk6bU35KOujOOnLNIF/0KOpvrf+v1iaEsukjiVHTOFqwZ6E/BemfA3nXp9K9KpoVkSYE4lQHZGpWOGZwCfa44vlFbGdJmACTSag4okrZfWANgAiSMzI5qbwrfV7win7F5NP2WSks7hQOSWffpH+/ZUCVwwL97rpaH3Rri0c0R922wTazwWj34VTLoNX34kjHEtzmXN2OGlP2GED0GlbU9ZNeTz7+n3YGcmbaIP9xe+M1E1Li0lJ0UkP+60PC4HXokG0U9F/vXTXYuGuDXehhfAHn6ZhQrc+nsZyxtTmbZ/uYEiiVxVPy/iANJXX2HfTY/m7nwbVDImrKRzr2qS681XAq3ZC4np4ttYEWkhAie1yRlTRvR/QoYX9FH+bTsk3WjWVBF5uiZZHChRpuTYAX38HBj0Mg4fDZ5FFJiyxAHTvBsNehamRFORdZN5UHWv79dPN2zKbnZFC6FePM1KH692P4F+D4c4nw5ZeXWpBOGhb2GzNtJptXVN9lbueTEOy3gzYqWro9ZRE7xa9YY/NYOlFwv1Doz8u4z9KnZBbHosvNhg+yMKxdBqinBCfhBTyufQgJhAUASW2K5fk58C6UZ2UdJiT6dXF990yrZkRQ9PfjdHjU0ng+56JMYw3fMoLdkkVwhTSLScqhGZnpJCnkL8zct855Ser6aMx4TM48W/w3DjQcWuobamF4C9HwaLdYMiz8Icr4YuI6ldIxWLOOWDLNeHEvUAOSagnIXovdIIm8YNzB8UV8pYGjikcayDwq2QB8nmor7TtMgETKJSAwrfkjFwI9JSmVaGjt2awNj9Jk9wP2wG6zBNuKG/9OervyBdfwhnXwL3PgGRx4wrrbc0Tq8y9bWdP80oVxjdPYOJxdkYq88zr9SopI1VfXiy3kaQtvmVv2H8rWCmAZDXJ1j0+Av5+G4x8K9wPxlxtQUoY734StuM044vSaW7ov2H6x2TxBcJ1QmS3TpykvqaTEHGOqykxXcpYlwHjkjoEEegvxgXY1ppAFRBQuNYmiaT3sZlz0jaaOc3XEbZaM1VaXHKhaMz+/xP2Gx8KW9kzVKLKa9l5ozSkO9QTMjsjFX979OFSAbT8z8LqwnX0YVlq4fIXqYrxvO0xuPp+eP/TioOt+gG6dEiP2PURWWbRyhUbygOk8kD07G8ZGnYuUcNz/QIYlFVMf9bhWHm8EO7DBKqeQCdg80TM4mfAhlHNduF50xpUu24CCyW1JGJokgR+58M0p+TOp2LMPSyecoe5YJPV09IHeVaRr8RM7IxUguoP+pwnc0a6VWwkqSft0w/23BwWnb/8Resnk+DP18MDz8KUbyo27arseLafQKf2aU7I4f1hgSYqgpUBQ2F5n30B9z8D59yQFsuMp+nAXyFYD2Wx4CpWGHCcYTxgbakJ1BgBJbrvBJwMLKWA2mjmLyVGFfHbdl2Yr1O4+YczAtXfnYtuhnuGp0qYclTc/kdg7raw5nJw0t5p9fRQFTZlsWSQ3/ogjayRcEG+7Yzsd5lvry3srZI1I5tiUuWdkTorJCu3XZ80fKv7guWelOjjoCS0P18Hj48MN3SrKU+wqGvm7ZAeo0orXtVeQ80JEY9JU9IEw4FD4BMdLETVpE19fVLc7DzgdYdjRfXsbKwJhEqgPaBK7scDq4Vq5I/s0t8ZncLv2Q/22aL4+hKtAfXRxOzv0AMw2RufaLW7yWpw2PZpCH/ITohygl59G/52CzzxSlpSIf9mZ6Qe0+KckbpBF+icyfptmUq+ltm++AoeezFV3npFefxuPyLQsR3stzls1Sf8XQw5IZJ2VkXZ8R/HtiMlJ0QSvf8GFI4Vif6ifzMmYAKRENByUFEQWwBHA2tEYndq5nKLppXFpbLUIbAE55mB/P4/8E6m2qhQ4Y8nRYU8F2MlUNBnRTh4W1hl6bRWSKhNh1hPjEhzS4eNgokVrVtnZ6RUZ6RucCUt7bEp7LhBmqymxPeympQw/nUn3DgUPvisLCvCGXf6n6wuqTrWIdunR+Rln+HNjI7CsSZOhkdeTI9Sx0eVmK5Pnwx+NHE+TslCJp2YHs4vwZaYQLUSUL7oPsBRwNJRqW91aQfH7QYbrQbzdw77lL7u7dFOu8K3rhsCNw0FnZrEVECxJb8CqWOt1B0O2Q7WXwVU9DLUppD90e/AP++Ch18sSmXTzkgQzkidETqGPXx72HeLVNavzPbx5/DXm2HQUNCORi02JZXt2hd+tnNasTXkJidSu00XDILPKrqDUQkKckSuBk4HxlRiAPdpAiZgAo0QkNqWktzllHSPitb8neAXu8PW64S90J0R6jfT4Kp74Ip7qld9a6kF4Ff7wnorhR2OpWfz5Eg474Yy1FbtjNT7baispeLSZ1IGvKBPkxKjF+gCm68BB22X7sqX1aZ9By+MhkvuTPNJaqXN0QaO3AG2XCctNBRyPOeUr9JihTc+kqpjfRfVYcJXyU7kNZk6ll6wqDLra+Xn4HmaQA0R0Lm3qg5uA/w6++9xTL/NbLDsImml7p02Av0di6Fps1NRGIOHpU5JfLmNDVPWSchPt4b1Vg47v0d5w0OeSdm/8k5aJ6b4ZmekHvOFgVeAzsU/h5mM2LUj7LZJKu23yPzlKWjo5XzwWbj4dnjzg+o9KVlkvlQda/9t0jonoSam6+Px+WS4b3gqz/zGhJiEB+rCsR4AzskqpjsnJJiPjg0xARMgDcbVWuBAYN9EUnxFQLXIwm+yXCUElBy9QS/o1CHc0OL6NBW+9ekXoBolNw+F9z4tKkQov2cqh3DphVOZ//4bgPJMQ2xi/fkUeOJluHYIPD+2bNZ2Ruq9JzoZGQ2EJ+atF/zI/jBgQ1iwRAnZb6bC5ffA5femMn3V0HQSJYWSbfukVW/n7Rj2rL78OpXo1VHqR1GqY90MnA2MIiYXKuy3wtaZgAlUjoD+KEgOeK/kFFeblnE4JeKxypJw6PZpnoKKCcfSJn8FV90Lgx6Fjz4PfwNU6wjVk5MDuMvG4bLWVqDWEHJCFIY/Wkr5QTQ7I/UewxzAq5n+eBBP5wdG6GXv2gk2WwOO2SWtcVFG05Hq+I/gsjvT6t0xJ551agdHD4DN1oSuncs7eWrKcxT3O59Ij1LHvg/TogrHUviVckL+ljkhpZwDNwWzrzEBEzCBBgjIAVH41i7JJsppQMlJnc14RnPODsssAofuAP3WCPvvXP1pKQLg00nw0HNw/qBKqzk1A+gMl0rq/4j+sNU66Wam1mohtm+/g2sfgOsfTE+d9L/DaXZGZngWOpK9NPidjwW7wO6bwI4bpvklZYQTKTfhudfgH3fC06PicUr0nei+QHrKtMP6aU5OGfya+hH44ss0RE4SvSPfBilmxdG0BzMRuC1zQkZYojeOB2crTcAEZkpATol0+PfLwrdUPDGOkxItktdcHg7eBtZYPmxZ2fr4FVKkv4N3PZn+HRz3fhhn6gt2TtdhA/qGu44QO50s3T88zS19dXyoP+0/JMWMTw3FuBDcSZ1jPgH0DgXKLO2Yv2MqFaed/bLCt1SV847H4bLB8PaH4daz0Id4oflgx/XjKBilOiGPjYDL74aR70TxOtYz8tPkN3QXcH5S8fhlV0yP7fHZXhMwgSYQWDDZcDkmc0r03+NxSvqukqp2rrpsPE6JHoicEi2qB2WCLWUofao+3DZrw35bp+uuEJucEIkCPPAMXHonfBx8SPduwI2hoAzBGRGLtZNktUHAYqGAmaUd2tVXovtem6axoWUoP2kPXDGeA++DC24tOxHqx7jazwkn7JYeo3ZWMl8or9pMnuw9T6fxnG/IuYvmJESTUezYwCwxXSGPUcWSRfF7t5EmYAIhEagL3zo8WSofB8STmKF6Zqv2gF/vAyt0D//vYt1T10L7q6lp2PI518GUgkQYtaG5Vz84eDuYv0u44Vhy0C6+DW54KFUmE6+wm1Q1ewLBVNsOZYU4PZAnS1jbOSh1rVm9UFpgLz5/qrwlWT+FbxXd9CN4433492AY/HRZEnHprPUUF54X9t0Stly7vHC2pj6Dr75JdzGuuA9GvxubRK9K6cqBvwh4LfntOCekqc/d15mACVQDAVWxU8iWiifunyW6h7KmmTVf5ZSoBsZB28LKPaCt0mcjaF9+A0edD09IC6WCTUWpd904/af7gtAmUMlk5fIOHAKDn0pDs4L3Qf7/mQ1OIih2Ar6p4FNsVteh/XC147E+cBCwZRL3Pn+zZlPmxXJK9toMNl8zDU0q4yTg0RfTCp7PjyleCWPJBWHbdWCvzcsvHtnYe6AP6pMvp7sYquUSzwdEM/sckESvEtMfczhWYw/b/94ETKDKCWgdswxwJLADsHi2NRb+tOduC5uuAXv0gxWXDFcRqo6kNvCO+gs8rooMFWhS2VxvRdhnS1h16QoMkEOXyt0d9x7c/2yamB5fjZbnM5U6bWIG00JzRurAyK5VgD8CmwJzBkOsMUPmnweOGAC7qACSNm4KbqpPIhnaPw2EiZMrO7gcLlVMP2oAbLdeKrMXctNHRAUlz74WXn47hqPU+jQlw/Fg8kf2d8BTIWO2bSZgAiZQAgGtG5bIknL3jGrdoHCkrXrDiXuHHVFQKWdEpRQ2WTVVLV16kXI2cxt7Yacn9X8F598Atz0GXweljNWY9fr3ij9/LjtJVLHxoFqozkgdJMWCLguckMiT7grMHRS9mRmjD4uqiO+/BWzVp3hJYP1o5IhcNyStUTK5QidxvZaCi48NW1pPz+ibafDMKLhAGt/vwtRpUbxGmZFTMifkt1k4VoUeZkxIbKsJmIAJzJSAdgG1rf6zbAc4nKLKjT20eeaGtZaHY3eFHguHJwlcCWdEcz7zENiwV5jhasohfe0d+Mft8PRrIKGbuKIplODzQiL28PssmkJriuBa6M5IHTAFVOqE5KeJ8tZmiWJQp+BIzsygFZeA3TaGTddMF+1FEtePaNTb8O+74KEX4euc0wr69IQrfhXuo1A41mMvpUWcnhwZrupYwwR1rHV3EnLwb+ARICoPKtyXwpaZgAnUCAElGqwGHApsC0h9K47WuX0a8r33ZrDMouWI5DREqhLOiEKzrvoVLKvouoDatO/glTfTyvT3Dk9PReJqqpKtUO7LkvSHIYDyTINtRS6N84CgHY8Nk9oJpwDrRnMMOz09vxsc3h/69YYOBR/wyCkZPAx+8y/4KkeHJFRnRIWFXhgDf70Jnh0TmxOiL96jybutgkTD7ITk8dlwHyZgAjVMQLmoKyX6k8dnBRQL/gPcCvLKKZFDopyShbuWH75UC86IwrlHj0/VsR55MbZix3rZFD2hvJDTk/XyQ0BB0meteM+jSfL68RwVviX1LSkJ9Y3GKVH4VrfOcNSOafhW+7la9/Sac/c7H8F+p8P7qomXUwvNGZGy2Ktvwe+vhFfejk0dSx+QocnuxbHAWKtj5fSOuhsTMAETSAloM1M5JWcBWwHtogCjzcx2c8HWa8HRO8P8nctzSqrZGZm+fngbfn85vBZdOLdeZTkdiqKQ0123hogmoCy2k5EZvx1azW+UhW9tE83HRU7JcouldUq2WBs6FvBNlATdvlXqjOgk5KmRcN2DMOxV+DqKjYC6d1nxm3dk4ViPx7KLEcUfcRtpAiZgAj8mIEGcdbLwra2jCvtesAtstXaq3LlYt+KfbTU6IwrHkhKpCjs+NSr/cPbKPyUpbN6X1On7V8wh3bE7I3WPWTklG2cFkOScxKG+JaekVw/46dawfq/KVmWtRmfku+9gxBtw+eD0OPXbqOr9KZ7z4aSmzl+SPKgnQtL7rvy30yOYgAmYQOkEtG6QU6KK7vGclAjbIvPB7v1gh/Wg27zF5aJWkzMi5dEXx6ThWCqHMC2q9YPeApV4lxNydlIz5OXYNzKrxRmp/1VTwtqVwArZsWzpX7wmGdCtI/z+QFh/lcpIAleTM6Lj1DHvwol/h9ffbRLegC5S0s6TwIHAGwHZZVNMwARMoFYJLJadTivsO5IKhNmjOmYA7L1FMREW1eCM6CTk2dfgpEvgAx0qRNeUV3ovcDTwXnTWz8TganRGNFUVvOgHHJLUZNgikTRTAlv4TXVJllkEfroVbLx6vonu1eCMKLFs2Ctw5b3w3BiQWlY8TR8QhWNdnCi7PAt8HY/pttQETMAEqp6A4qVVdPmobN0Qh1OiVdziC8CufWHHDWG+CoqNxuyMTPkKhjwH1z4II98svjB0638+HwPXJedi/0xKXYyqtoLH1eqM1D32jsku9ObAEdlHJo6PS5ufwGpLp8ewyilpm0PxxJidEdVNGfkGXDsE7n4KpkZ1nKoEFkn0XpLJ7NkJaf1H2T2YgAmYQKUIdEhqO22Q1SlRKYE41g2isewisOtGsMMG0LF9/nxidEYmfwUPPANXP5DWGdOmZlxtAnBntpEpJ6QqZf6r3Rmp/8opp+TcLHxLOSVxzH3hLnDq/rDOijB3K1JhYnRGdJz69gdw/iAYIqW6qJrqhDyd7bK9FpXlNtYETMAETEAElFNyTnKqvXo0AjmyWvmofzoI+q0B87TLT30rFmfkP6qWPgWeGAlnDoSPgi6x0dAvTR6bYdftAAAgAElEQVTTp1nKwR9DrxGSx6cijgV5HjNN+9BWwSZZrJ3CuOKYv05GVuwOR+wA664Ms6uWUzNbTM6ITkJezhLTh74MU6I6TNBJiHYxlJj+nBPTm/me+nITMAETCIuAVDuVS1JX3yyOsO82s8FSC8I+W8IO68OcORzwxOCMTJwMtzyanoR89HmM4VhvZvlLVwFKiv1PWD+HylgTx2I8/7l3ziqyqqbDqtHklMw5O/ReLi2CtMkazaMSgzMiJ0QVT6++Hx5+ASZFVfFUOxm3ZvGcqnoalQfVvJfJV5uACZhAzRGYL8tFPTIL+47DKZltNlhxCdhtY9huPZhLZdpa2EJ2Rj6dBLcMhdsfh7ETQOuJuJocj79neSFv14oTUveIatUZqT//fTJpv55AgVUIW/krWW2ptADSKks1LdE9ZGfk22nwxvtw2d1w11MQ1zdEdUJeSE7ZfpdVO43L+la+hr7dBEzABGqMgNZNOwM/zzYzCygUlhPhHgvCyXtDr6VbFr4VmjMiZc0PP0vXDRfdHJu8vx6q1DXHJMU4L88ckah2YHN6K6d3U+vOSB3LuYH+iU7zr4CVouGiY1jVKTl6J+gjs2fRQnVGVBn+ktvg9qdAOSLxNDkdqnZ6RlYvJCrj48FsS03ABEwgSAI6YpBAzmlJaK5CFeJYT+mkZIXF4PD+sFnv5oENyRn5cCJc9wBc+xB88WVsm5jiLmn/PwMDs5ohzXsWVXZ1HD+e4qDrGFYVWY9LQm56RfNxadc2zSk5eDvoq6izBlpozsh7n8Clt6eJ6Z+odk80TfGbckLOz9SxosuMi4a0DTUBEzCB8Al0zYomngCsEr65mYXKIVH41hH9Yb2VQU5KYy0EZ+SDz+Bfd8J9z8KH0dUJ0SbmS1lO6f3AB4kz62iKaBbbjf1A8v/3CtfaI3lRDss+LvGEb222Buy7Bazc44fqWyE4I5LUe/N9uOFhuO5B+C6qvCypYz2TOSGDay2eM/+fmHs0ARMwgaoioHCt/YADgJWjCvvecBU4YKs0fKv9LJY7ZTkjCuUe+24ajnXNEJganbrtl8ArwD+ynJCoiqQV8Sv1ycisKUtLd/9EEekklRWKJtH9Jz+BfqvBodtDz+6p+laZzohk9t77OC1WOOgR+CaqD4mMfQo4C7jHuxhFfJY8hgmYgAlES0Drhr0SEZNfAksBLZC/LGHuWjes2xMO2wHWWBbaNGB20c6IckImfAL/uB1uewKmRVcjROsHqWpKHvquLEekhIcb/pB2Rhp/Rjq7nBcYkLxIJyeJRks0fksgV3SYG1btASfuCe3mgn1Ph/cn5mdcn55whdJsZtEkrXfRIHjgOZiozYFomo5OVSdEielPOqYzmudmQ03ABEygbAJ164ZNk/okZwOLlW1Qk8efuy2sswKcsDsstcgPa5QU6YyMeit1Qoa9GmtOiNYNZ2Zh3RK6cTjWLF5COyNN/oVOT05TTsluwKHJUdtyQCs08po+cKuv1I7HWsvByLfgyxxPB2fmjGg3Qycx1z+YhmR9pdIb0TR5TE9kyhaqFxLdVkw0pG2oCZiACVQ/gfmTZOV9sxCu5aOp6K7CiVusmZYSWKlHKglcaWdE/b/6Nlz7IDzwbIzhWHqbtWZQqN4NPglp+o/bzkjTWdW/shPwU+DwRAlhmZZ1UQV3zeiMKBxrwqdpwaHrH4otMV11QZQTcl4WjiXJPTcTMAETMAETyIOA6psdAhwYVfiWii5v0RsO3BYWnR9+fiE8rvSHnFqXDnDpCfD1VLjyHnj4JdBaIt6mZNg/JOb/Nt4pFG+5nZGWM9cx7J6AqmTWJsf6zsiUr+DSO2DgQ+npSzwFh+rULU7MTkRqVue75T8F32kCJmACJtAEAlo3SH1ruyx8SyHgcTSFb22wEoz/GF4dn5/NKlGwyLzw4aRYT0IaYiHFrA0d3t3016Q2F9FN59PYlcdk6kq1yXHt5eH0g2Hg/XDP07HJ7MnpeDwJvbsIeCCpMRNVLFljL6b/vQmYgAmYQLAEtGbolkVYHAR0j0YgJ1ikQRmm9UU/YFhQVgVsTG0uovN7IEpO0o56bXLs1C6VD/4gx6T4/J7NzHrSR0LhWBdm4VgKz3IzARMwARMwgTIISKlTeai72ykpA3/FxpTgkYoiuzWBQG0uopsApomXXJd9QJp4uS8rkYDCsRTo+vNM3cKJ6SU+DA9tAiZgAibwAwI6KVEeqhaxcYjj+AHOisCDQH9ASlpujRCwM9K6V0SqS+u2rgvfXWECOvlQnZA/Zf+p/x11dlyFebl7EzABEzCBcggop2ThrL7ZwVl9s3Is8aitJSAnZP2s4npr+6r6++2MtPwRz53VoVClVbfwCKjY0KNZxdN7gaiKnISH0xaZgAmYgAkUSGCFLHxrJ2CRmg0HLxB4BYaSqtapFei36rq0M9LyRyrtcJ2M1K60b8vZVfLO7xKVs9GZtN7tSRVc54RUkrb7NgETMAETqBQBrdGWTDbTfpGFhKusgNdtlaKdf7/Dk9zUtfPvtvp69Evd8me6LPBwdqTa8l58Z14E5IQoJ0S7EIrVVKK6w7Hyout+TMAETMAEyiKg8C2djhyXlRRQfolb+AQmJdEZCwI5VpsOf9ItsdDOSEuopfesmeSL3A+okJFbeQRUYEgnVP9MnsndwGflmeKRTcAETMAETKBiBOSUrJhJAu8HdKnYSO44DwISypFozl/z6Kya+7Az0vKnuzEwGJir5V34zlYQUIV0nYScD9yZ/OA/b0VfvtUETMAETMAEYiEwe+aU/DKpZbFltinq9VyYT0+lBLRedN7qLJ6PX96Wv7ySbLu15bf7zhYSUOjVKOCUzAmxRG8LQfo2EzABEzCBqAloDbdoVs19++Q/20U9m+o0XiFavbPN0+qcYQ6zsjPScoiS3bu05bf7zmYSUDiWqpnquFMV0z9p5v2+3ARMwARMwASqkcAcgJQ9DwF2c/h4cI/4KIdqzfqZ2Blp+Tv7a+D0lt/uO5tIQBK9L2QSvQrHshPSRHC+zARMwARMoKYIqFii8lmV6L450L6G1bcURRHKGveuTA3NoVoz+TmG8qBi/FqcncntxWh7DDbLCXk1O35WpXudjLiZgAmYgAmYgAk0TmAV4IxE9bNv5pQ0fkd1XKGwKEnqSlFTDpmS/stuKjGwRramKduWIMe3M9Lyx3IFIDULt3wJaDfj+eTjeU4WjmV1rHz5ujcTMAETMIHaIKDizL2AY5O/q8opqWbBHYnaSOH0okxh80jgj0kEi5L9Q2iy5+IQDAnRBjsjLX8qkpHduuW3+84ZCCgRXaoTlyTJXjrS/NR1QvyOmIAJmIAJmECrCSixfZ0sp2RHQOFc1dJ0EqIQbi30nwWmZBNT7sxVAc31jiTkfIdqgZ73POyMtIyodheGJDv367Xs9tzvUkiTEthibDq+lDqWPiT6cKh4oZsJmIAJmIAJmEC+BLTmU+jSiVluyTz5dl9Yb4qg0Ialaozp9ENOyIxFjjcE7gvoNGgisAQwuTBKEQ1kZ6RlD2te4KHs+LNlPeR3l44mFReqivA7BbQL0NgM9eFQnZA/ZMUKndjVGDH/exMwARMwARNoPQGdjGgz9dRkLaNFewh5FU2dldY8yiM9N8vBmNkG5jLAiwHJHSv6Q6Faiv5wm4GAnZGWvRILA0OBpVp2e653aUEv9Qw1JUgdnjklc+Y6Sn6dKRFd6ljnZadLHzscKz+47skETMAETMAEmkigY+aUSHp2s4DyKxoyXycL1wLK1x0JKDxrVq1NVgy5QxNZFHGZImq2BaYWMVhMY9gZadnTWi6redG5Zbfnepd2NnS6UNe0wyGn5ASgH6BTnBCes358I4B/Zh8ThZa5mYAJmIAJmIAJlEtAa4TtsnXD6gGpb2nzcgJwW7KWuRAY3UxM2uzs2sx7Knm5Qsu0efxmJQeJse8QFqkxcls1S7YuW6VBoU76cOgocsamZ6uqn4oNVdJUWTklsvHdzGG6ugm7GTG+D7bZBEzABEzABGInoNMEqW6dlhVRLDN8S0qa2rxUPuk7LQT7NrB4C++txG0KMds/CzOrRP/R9mlnpGWPbotEmeLelt2a610PJo5I/3rqEQ11LhUNVWY9PnNKilLRqHNC9FFTEpl2N2ZMMMsVhjszARMwARMwARNoFQGtCxVRsW7Sy2+TUwltvhbplEzK8mAHZU5Ia0RtXgJUbyWkNjDZoD3IG7M/fCR2Rpr/iorZAcC/mn9rrnfIw94b0A+2KU0fE4VtKTZURZAUK1qJpiQthWPpFESJWio85GYCJmACJmACJhAXAUVU7A4cCKxdQWUqrRteB64HrmzFSciMdJ9MNkP7BIZcuS8K1RoXmF2lmmNnpPn4xex04OTm35rrHTq21Av9UTN7lVMiaT8VQdoAUFGkPJo+Jm9lielKMvs8j07dhwmYgAmYgAmYQKkEVM5AdTtOApbOMdFd6waFUmlz91Lgk5xnqeiRTXLuM4/u9kk4XpNHR9XSh52R5j9JLeZVD2Ov5t+a6x066lMFeP2YW9LkhCjf5M/AWq08hpXjoTAwFR7Sx8ThWC15Ir7HBEzABEzABMIkUBe+JdUtJZMrMbw1a0jlhBxdT1VTyep5t1sAFXkMrWn9psgWt4xAa16kWoUoZ+SBkr1tVRhVyNXwHB6CkvC1cyD9a/XZvol91oVjXZ6pY7mQTxPB+TITMAETMAETiJiANjP3TcKpfpqpdyrxvSlNqpovZ4npCsn6oik3teIanbYc3Ir7K3WrNm11wqT8GLdWerW1ClA/Ov2YVigRgOIg867+rrokm2ZOycaziA1VMpliHaVwoY9Jc8PESsTmoU3ABEzABEzABHIioER3FVs+DlCRwZk5JcpxfT7LI1UEhSRui2h/Smp6/KqIgZo5hjZzlYej/Bg3OyMtegcUOzkqeYmWbNHd+dykGiKqPlqJppOSjYC/ZR+XutMzhV7p9ENjq/qpKqY7HKsST8B9moAJmIAJmEA8BDplwj7Kp60fXaE1wvvZJqdUNRsrVJj3jI/I1jJ595tHfzcmSft7AJUIT8vDvkL7cJhW83FLhUqqDws2/9Zc7lB+huqHVFqJQSoa2ulQtXkdyX4IqNq7nBA3EzABEzABEzABE6hPQNXOJaW7QFZlfHxWqLCsiuO7AFr0h9jeAFYrIFQtxLn/yCY7I81/TFKweizRwVZYUxntCuCw7Idexvge0wRMwARMwARMwARCJ7Ah8GigRqrsgRTK7grUvkLNsjPSPNxKXleIkrztMtgpzlDVUQc3z2xfbQImYAImYAImYAI1RaBHAVEkrQGqnJFDvblczoK6NQ+u7Ht7JspTQ4H5SjJkdCKDt34Sf/lxSeN7WBMwARMwARMwAROIgcBiSdHG14B2gRqrPFytK98N1L7CzCpjd7+wyVVgoJ8ljshFFei3KV3qVERJ61KGcMJTU4j5GhMwARMwARMwgVoloNyVZ4FFAwagaBcpjNV0szPS9MevxKxbM/nbpt+V35VKXF8xU6bIr1f3ZAImYAImYAImYALVR6ALoCrsShQPtf0jEQg6PFTjirLLzkjTSfdJJG8fAdo2/ZZcrxwCqPKpmwmYgAmYgAmYgAmYwKwJSP1UObZ512XLk7uUSpeo9bwROyNNf6XKruSpEDHV/nAzARMwARMwARMwAROYNQHVhbshE/4JlZVC8AcAd4RqYBF22RlpGmWpaKmuR/emXV6Rq/oBD1WkZ3dqAiZgAiZgAiZgAtVFQGtcbSQfFPi0LslKNgRuZuXMszPSNLZbJzGHtwOqTl5WkyP0dlmDe1wTMAETMAETMAETiIzABcDRgds8KkliX6OECvXBYLEz0vijUPXx+5IkqA0av7RiV0zKktffq9gI7tgETMAETMAETMAEqovAacl0fhv4lKYAO2drzcBNrYx5dkYa57pqkjj+RMk61W8BawMfNW6urzABEzABEzABEzABE0jWTUdEkm+rcLKjgG9r8anZGZn1UxefUwPwqp8BNgck7+tmAiZgAiZgAiZgAibQOIG9gasbv6z0K6SqpfINn5ZuSQkG2BmZNfT5E0m4B5L6Ir1KeDb1h7wH2An4umQ7PLwJmIAJmIAJmIAJxEJgG+CuCIzViciGwNMR2Jq7iXZGZo10B+AWQGpaZbZrkuT1A4DvyjTCY5uACZiACZiACZhARATWAZ6KxN7Tgd9EYmuuZtoZmTXO64DdcyXess4uikANomUz810mYAImYAImYAImUBkCqwAKdS+rYHVzZqVQrR7AV825qRqutTMy86c4Z6JN/S7QNYAHLTWI3wdgh00wARMwARMwARMwgVgILAMMA+aNwOD/JKc4WwBDIrA1VxPtjMwc5wnAWQGEaMnCI4GLc33y7swETMAETMAETMAEqpvAosBjJRetbg7hPwO/aM4N1XCtnZGGn2IH4FFg9UAe8m7AjYHYYjNMwARMwARMwARMIAYCEiJ6JFlD9YzBWOCFLJFdtUdqptkZafhRr5W8DA8B7QN5EyTrK1UvNxMwARMwARMwARMwgaYR0Oay1k9KZI+hfZY4JBJPejwGY/Oy0c7Ij0nOnhQ4PDup6fFzIAQ+/01k6XoDz+f10N2PCZiACZiACZiACdQAAamhDs5yMWKYrtZ8Z2SqWsohqYkWwmI7NNDdkwKDTwILBWLYpKz6+uuB2GMzTMAETMAETMAETCAWAoOAnWMxFhgBrJvkjnwZkc2tMtXOyI/x7ZckOl3RKqr53jw+UVZYH3gn327dmwmYgAmYgAmYgAlUPQElhR8biCBRU2BPBtYEamYT2s7Ij18LVepUxc5Q2migL/BBKAbZDhMwARMwARMwAROIhMBhgOq1KQw/lnYK8MdYjG2tnXZGfkhw2UzJoF1rweZ4vyqHKoG9ppQVcuTnrkzABEzABEzABGqXwF7A5cnifo6IEHwELFkrBRDtjPzvzRQLJa4fH0jiep1l9wFbAzWTyBTRx8KmmoAJmIAJmIAJhE1gg6yQYAxV2OtIas23XlawMWy6OVhnZ+R/EFVx/Rlg5Ry45tWFVBWuAvbPq0P3YwImYAImYAImYAI1RGAxQCHvc0U255Oy4tuRmd18c+2M/I/ZlsBNAdUWkWXfA39KTkVObf6j9R0mYAImYAImYAImUPMEugDvJtEvIYXgN+WhqPi21qbfNOXimK+xM5I+vbmBfwOqdB4Sk++AI4FLY37JbLsJmIAJmIAJmIAJlESgI/AmMG9J47d02E+zMP3hLe0glvtCWniXyWz5RIN6JNCmTCMaGPvbpArnpsBjgdllc0zABEzABEzABEwgBgLtszCthWMwtp6NCtVXZMzpkdndbHPtjKTIdPrw12bTq/wNU4FetaQ1XXmkHsEETMAETMAETKCGCChXZFSmThXbtJ8ANgIUKVO1zc5IehoyDOgd4FNW9U0lXk0M0DabZAImYAImYAImYAKhE5Ck70vACqEb2oB9Wv+tCEyI0PYmm2xnBDYGJJ8bov70J4maVo9EbljVON1MwARMwARMwARMwASaR2A24Pks0qR5d4Zx9a8SJbAzwzClMlbYGYFLgEMqg7fVvY4HlM/yVat7cgcmYAImYAImYAImUJsEnkw2nvtEOnWtBbUxXbWhWrXujEjuTSFaqrweYhubyA2vBCh3xM0ETMAETMAETMAETKD5BAYmSex7Nv+2IO6QmJFCtbQmrMpWy86I5q5ign8HVPAwxCaFr9Wq2RsOEbptMgETMAETMAETqCoC5wHHRjojqWodThrJU5Wtlp0RSb0NBjYM+Mk+DawTsH02zQRMwARMwARMwARCJ3BCUtT6nNCNnIV9Q4DtqrUAYi07IzryeiYreBjq+3l9Iuu7R6jG2S4TMAETMAETMAETiIDAjsAtEdg5MxM/y+rOvRDxHGZqei07I6ckRQ7/EPhDPRv4ZeA22jwTMAETMAETMAETCJnAWoCiTWJuxwHnxzyBmdleq85Ip6waZ7fAH+oxwIWB22jzTMAETMAETMAETCBkAktl6z7J/Mba7k7qpeiEZ1qsE7Az8kMCepg3AaG/lDsAd1TbS+f5mIAJmIAJmIAJmECBBBYFXgTmK3DMvIdS4cNVgY/y7rjs/mrxZEQOyDWR5GKsDEhRy80ETMAETMAETMAETKBlBBQJozCt7i27PYi7pKp1KPDPIKzJ0YhadEaWAx5MHuYiOXKsRFcqdNgTeLsSnbtPEzABEzABEzABE6gRAqorNzSr3RbzlJ/NijdWVQHEWnNGNF8lACkxPPQQLR3DqcbI+zH/amy7CZiACZiACZiACZRMoF2yiL8PWL9kO1o7/ERg+WoL1ao1Z0QvoyquK/wp9DYqOcHZAJCcm5sJmIAJmIAJmIAJmEDLCMyRbPDenoRqbdWy24O5SyciB2TpBsEY1VpDas0Z0UnDY0nhGxU8DL09CWwOfBm6obbPBEzABEzABEzABAIncAOwa+A2NsW8e4CdktIPXzfl4hiuqTVn5CpgnxgeDKCXTWpaVSfhFgl/m2kCJmACJmACJlA9BP6WhDcdUQXTURh/X+C1KpjL9CnUkjOyODAGaBvJw3P19UgelM00ARMwARMwARMInsAZwEnBW9k0A/cDtMFeFa2WnBHF2P07oqd2UZIvcnRE9tpUEzABEzABEzABEwiVwPHAn0M1rpl2qUSF1rVVoapVK87InMAtwNbNfNhlXv4b4PQyDfDYJmACJmACJmACJlAlBHSacEWVzOUdYC3gw2qYT604I32Au4B5I3poRwF/jchem2oCJmACJmACJmACoRLYLZHFVQh8tTSdjFSFc1Urzsg5wAmRvX360dwYmc021wRMwARMwARMwARCJLBRkvj9cIiGtdCm+5NyFVsCqswedasFZ0Qyvk9FUluk/su0aVYpPuoXzMabgAmYgAmYgAmYQAAE1sickXkCsCUPE95Lkth7AN/m0VmZfdSCM6IQLdUWaVMm6GaOPRnYGHiumff5chMwARMwARMwARMwgR8TUMHrh5IQ+K5VAmdqVgJCleWjbtXujMgBUcX13pE9pQnAJtWkIR0Zf5trAiZgAiZgAiZQXQSWzCJO9J/V0BSedVNStmKv2GvSVbszouOrVyOqLVL341A9lH7A+Gr4tXgOJmACJmACJmACJlAyAZ2IPJioq65Ssh15Dv8BsCbwbp6dFt1XtTsjSlo/O8Lijs9nJyOTin4hPJ4JmIAJmIAJmIAJVCEB5RDLGVm7yua2c5IXfXPMc6pmZ6QTMCTCEC29T49kJyP/ifnlsu0mYAImYAImYAImEBABrQsVeVJN7e+AykF8H+ukqtkZ2QK4HVDBw9iaJH0l7etmAiZgAiZgAiZgAiaQD4GrsxyLalr/KqR/deCTfBAV30s1PYz69GYDLk1yLg4sHmmrR1RCkoodHt3qntyBCZiACZiACZiACZhAHYHzgJ9HGL7f2BPcJUtmb+y6IP99tTojSlIaDsSomKDQrBOBc4N8Y2yUCZiACZiACZiACcRJQLnEZwHatK6mdhlwcKwTqlZn5BBAMXQxvmyK+dsbuD7Wl8p2m4AJmIAJmIAJmECABCSDe2VkteeagvE1YIWmXBjiNdXojLQFXoz4ocgZUfV1JbG7mYAJmIAJmIAJmIAJ5ENA+cR3V6Ez8jWwbVbUMR9SBfZSjc6IPMNnAEm4xdi+A3oBo2I03jabgAmYgAmYgAmYQKAEVsw2rGcP1L6WmqV8Y534KFRL68ioWjU6I38Gjo00REsvzzdAT+DNqN4kG2sCJmACJmACJmACYRNYGhgZqdJqY2TfyAogftbYhaH9+2pzRhbPjqiWCg10M+yZAiwLTGjGPb7UBEzABEzABEzABExg1gSWSEonvJoksc9dhaCmAtsD98c2t2pzRnYHBkZ8KqL3R1XXpQI2MbaXyfaagAmYgAmYgAmYQMAEuiUiQWMTxdJ5AraxpaYpVOsM4NTYCiBWkzPSJouXk1JCzE3Hazrh+TLmSdh2EzABEzABEzABEwiMQEfgLaBLYHblZc4YYO3YNrSryRnpkRxPPQ90yuuJltTPh8BCgDxcNxMwARMwARMwARMwgXwIKDxLFcvny6e74HrR2lGKrA8FZ9ksDKomZ+R04NcxwZ+JrcOAPlUwD0/BBEzABEzABEzABEIioHWvcnIXCMmonG1RUceTcu6zot1VizOi4oYjAEm2xd4GJbK+u8Y+CdtvAiZgAiZgAiZgAgESUPmH3gHalZdJWg+vHlPeSLU4I3qpHgXa5fUkS+xHJzy/KXF8D20CJmACJmACJmAC1UrgzqxAYLXOTznHKoAYTfHsanBGVHH9quw0oRrms182n2r9kXheJmACJmACJmACJlAWgfOyenRljV/pcZU38lfg54my1n8qPVge/VfD4l01RZ6uomSk1bLqoHk8X/dhAiZgAiZgAiZgAibwPwLHAH+pciDDgb5ZIe3gp1oNzsghifrUJcGTbpqB32bV18c17XJfZQImYAImYAImYAIm0AwCA4Cbm3F9jJd+DvTLVGaDtz92Z6Q9cCuwWfCkm2bgp8l8egHvNe1yX2UCJmACJmACJmACJtAMAhI7GtmM62O8VOFZyj+Wstb3oU8gdmdknSxxXXkj1dDezhQePqmGyXgOJmACJmACJmACJhAYAdWlG5VUK58zMLvyNuf1rADipLw7zru/2J2RvwFH5A2lxP4kx7YeMKVEGzy0CZiACZiACZiACVQrgUWBl4B5q3WC9ealTXvlVQfdYnZGZs8822WCJtw841TwUAlHyh1xMwETMAETMAETMAETyJdA10T69llgiXy7DbI3FT9UqFbQLWZnRIUBJelbTcdsQ6oo/yXoF9/GmYAJmIAJmIAJ1CSBToA2f5evgdnL6VoLkNxvsC1WZ2TupLrkHcCmwZJtmWFyrlRnxM0ETMAETMAETMAETCB/AlpDPp5VKc+/97B6VNj/JisocFQAACAASURBVICqzgfbYnVGVgCeAuTdVlM7HziumibkuZiACZiACZiACZhAYAQeSgSQNg7MpkqYoxOR04A/VKLzvPqM0RmZLauceTag/15N7RTgj9U0Ic/FBEzABEzABEzABAIjoOia7QKzqVLmPJzVHAk2VCtGZ2S+5MhpaFYcsFIPrqx+D6uiAo5lMfS4JmACJmACJmACJjArAlfUUFj8x1moVrC1VWJ0RrZKknEGV+lvbIcsF6ZKp+dpmYAJmIAJmIAJmEDpBKQwdWLpVhRjgE5EjgcuAFQMMbgWozPyT+Cg4Ei23qCvkgSjbYBHWt+VezABEzABEzABEzABE5gJAUnenlFDdF7JVLW01gyuxeaMLAA8DywcHMnWG/RpIjW3ZaZ93fre3IMJmIAJmIAJmIAJmEBDBBQW//caQqP6db2A10Kcc0zOiGw9AfgToIKH1dbeyWqMjK62iXk+JmACJmACJmACJhAQgZ2BQQHZU2lTFKq1N3BtpQdqSf8xOSNzACoKuGFLJhrBPaMymbmPIrDVJpqACZiACZiACZhArAS2AO5MFEy1tqyV9lioa+iYnJHemTNSbbVF6n4Ew5P5rQ9Mq5VfhedpAiZgAiZgAiZgAiUQWDcTQyp6TamcjTmTuh9tSpjzZGAD4KUSxp7lkLE4I/JcFZ4lNYBYbG7us74vyxlp7n2+3gRMwARMwARMwARMoOkEVga07lqo6bfkcuULSa6K8p/LyH1WqNaxmapWLpPJq5NYFvZdAeVUzJ3XxAPsR3F8ewVol00yARMwARMwARMwgWoisFQWbdO94Em9CcghGVDwuHXDqTSGlFuDarE4I7skRQ5vDIpc/sZI81pSc24mYAImYAImYAImYAKVIzBvkqf7KLBS5YZosGcpp2qtpzIVZbQJmViSpH6DaTE4I7MBNwP9g6FWGUN+HuLRWWWm6l5NwARMwARMwARMoDQCUmV9HFi7BAtWTca9p4QQMU1VRQ8PBf4FKGwriBaDM7Ji4sU9ARSdZFT0A9oHuKboQT2eCZiACZiACZiACdQgAZ2MlKHQ2gc4ADikJOZSpt06JMGkGJyR04GTqzhxve5d3DRROXiwpBfTw5qACZiACZiACZhALREYCOxZwoT7Ah0yaWFF/xTdFCrWEwimlETozogS1qWLvEbRT6rg8XRUtk7iqUre180ETMAETMAETMAETKCyBM4FjqvsEA32ruT1Z4DngG4ljK9Qre2Bu0sYu8EhQ3dGdFpwa+ZBhsKsEnbIGZGX+lolOnefJmACJmACJmACJmACPyBwWvK/flsCE+VsXAlcnqz7di8p8ueRJGdGa+zvS5j/j4YM2RlRURjJ3ZYlf1bk85EzInk5yRe7mYAJmIAJmIAJmIAJVJbAwUm9j0srO0SDvdcJFm0L3AC0K8GGKYCKib9ewthROSNanI8E2ocAqsI26MhsPuDzCo/j7k3ABEzABEzABEzABNJQpdtLAPH7RMlKpzJzJRvuI4BlSrBBm+AHZqczJQz/wyFDPhnZG7iqpOOroh+MjsnaZpJrRY/t8UzABEzABEzABEyg1ghsnKhpPVTCpC8BDsvG1cnIriXYoCGvBvYPYe0ZqjMyR5Jc83wJxWhKeh8YW5JnXNZ8Pa4JmIAJmIAJmIAJlElA4khKJC96LXx9Eh61RzbxvUos6zAO2Bx4o8yHoLGLfgBNne9GWUEYHWHVQrsP2LIWJuo5moAJmIAJmIAJmEAABJZPTiVGlbAWVhkHJY+rqRL8mOw/i0aiqBydjJRe4y5UZ+T8JH9CCT610v6e6D0fUSuT9TxNwARMwARMwARMoGQCiyeL8bdKcEZeAlSFXU11Rq4AVPi6jHYTsEsZA9cfM0RnZEFAkmPLlQ2nwPGVRPTvAsfzUCZgAiZgAiZgAiZQywS6AJ9kDkGRHKScukS9AXcDFLpVRhufrbe/LmPwujFDc0Zkj6phSntZeSO10vqVlERVK3w9TxMwARMwARMwAROoT0DCQVqEF10FXWPWl/NdKit6rZCtoptUtZQaMbTogeuPF5ozohfjfqBvmVAKHlsxezquk4yxmwmYgAmYgAmYgAmYQDEEVG+j6BISU7Pach9kU1R+tJStdi5myj8apfQCiKE5Izq2kuZyx5IeSBnD6ocgZ0SqBm4mYAImYAImYAImYALFEBgOrFnMUP8/yrdZwcGX642rvA05JCr4XXRTjbsVgfeLHrhuvNCckROBs8qCUdK4H2XOyISSxvewJmACJmACJmACJlCLBJTAvVPBE/8O2AEYXG/crkki+StAt4Jt0XAqvL3dDPYUakZIzogexAvAooUS+N9g3wDyVos+lVEik05GJpY0bw9rAiZgAiZgAiZgArVI4KIkif1nBU9c4fmHA/+sN+7sWZqCCjGW0WTLoUlleOWQFN5CckbkJcpD1QMpugn+LUkCzyaA1BWKbKOB1YCvihzUY5mACZiACZiACZhAjROQmullBTPQScRJSa7KOTOMe9AMDkqRZqn49maZ1HGR404fKxRnREoGkrbdr3AC6YDK2zgqUTc4G5i/YBukN60qoPKU3UzABEzABEzABEzABIohoE1oFSEsuv2tgRMZRea8DXQu2pgsVGtX4OYSxg7GGVk2O56qr7tcJA+Fh+nITJXQOxU5cDbm1tmLUPDQHs4ETMAETMAETMAEapZAL+DFEmavquf7zhAWpQMCRQgNKMEeDalDAZ0UFd5CORkpO3H9T1mhxVtLkHiTesL+dkYKf/c9oAmYgAmYgAmYQG0TWCZzRurX/SiCiE4gdBKhkK36rexQrVWy2itFMPj/MUJwRtoAjwPrFDrz/w0mveeVs/EVN6haJ0W284Hjy0oaKnKiHssETMAETMAETMAEAiKgiBxFxxSdLzwE2LKBEP2VgCeBeUpgJJWvtYHnix47BGdEFSelbVyGtrJ4K3Fd3ulxmaxw0UxOBs60M1L0q+/xTMAETMAETMAEapzAQpkzskDBHJ5J0hPWBeQA1G8qwDgI2Kpge+qGuxHYreixi154zzg/Ja4PBHYveuL1xhN0HZf9MTma+mUJdhyQVOK8ooRxPaQJmIAJmIAJmIAJ1DIBJYvrZKR7wRBUU0RKqtMaGFc5zJIcVuRQ0U3lJpRHo0KIhbWynZGFk1OJUSUkjdcBFvT1ARUevKQENS+FiOlU5o7CnrgHMgETMAETMAETMAETEIG5spyR5QrG8W5ScX2prL7djEMrj+XZEureyQ7V3JPEr9InCmtlOyN7JQ9DCdxl2KGkIXmeyteYO/EElby+aWHk04G+yFQTypCVK3iqHs4ETMAETMAETMAEgiKg0wedjCh3uMimTfAVE3nfTxoYVGkLw7KC2EXapLFUd0+yw0cXmT5QhhNQB1bKBYpN26Zo0tl4cgT6ZCczSlxSwtDyBdsyIRl3c2BkweN6OBMwARMwARMwAROodQJKF7gnW4sVyeKzLGfk9ZkMqlCti4s0qN5YKsbdD9DpTSGtTGdkzazGRtEKBnVglTykEK1vs0KHryYnJfMVQv1/g4wD+gLvFTyuhzMBEzABEzABEzCBWicgZ+TaEpK2JwOqMTezcKgyCyCqCLcS6B8o6uUo0xk5I4lNO6moiTYwjtSzJKurptyVMhwCnYhIRu2rEjl4aBMwARMwARMwAROoRQJaB/81yR0+ouDJa923CzB4JuPKSXo02zQv2LTpw0nlVWqvCtuqeCvLGVE8nJJzpKdcRlOsXg/gy2xwxe2VESqlmECFirmZgAmYgAmYgAmYgAkUS0Dr4F8nylV/KHbY6VE5KnCovOmZNdl1esF21Q2nPBpJDyuhveKtLGdEsWj3JpBnr/gMGx7g8qzkfZ3HJ+BPlGDLXcB2JYzrIU3ABEzABEzABEzABOAo4MKCQWj9eSLw51mMu1biENxfkuKs6p+oGPlzRXApwxmRA3J3CclCdTwVC9cfkCNQ17bInKMimNcfQ3LChxU9qMczARMwARMwARMwAROYTqAsZVedepwGSN21oaa8ESm9blLScypsjVqGM7Io8FLiharyehlNXp6ShhSqVddU+PD6EoxRTN6vShjXQ5qACZiACZiACZiACaR1NW5JTik6FAzjUtJTGYVszaz9Aji7YLvqhlP6ggozzlglPndzynBGjgHOLamypLxPxeCdNUNSzqHAP3Kn23iHPwcuaPwyX2ECJmACJmACJmACJlABAlJWVfHpotVdla6wc7385YamtkaWRqBc66KbSmBskNTDG1HpgYt2RiSde2eJSduTEuUCxeBJQ7l++11yTHZqpWE30P++jSQvlWCShzQBEzABEzABEzCBmiGggof3AQsVPGOVmNCpjNamM2s6rVE0kUSXim5Ka9CpzCmzCCXLxaainRFBV3EZVbwso0nPWVXWp84w+GVZQnuRNil5acssOanIcT2WCZiACZiACZiACZhASkDlHYYmm8NLFQzkrWSDXicfKoA4q1amqtaL2br500qyKdIZ0VjnAQpNKqvJGRrSwOBKqFceSZFNIWNS8Xq6yEE9lgmYgAmYgAmYgAmYwP8TmCfZHFaphZ4FM1GuyOLAh42M2w14MzmlaFewfRpOa1WFsT1VybGLdEY6Z7U8FqnkhGbRt0KzVNdkWgPXvFxCzRM9YL34r5fEw8OagAmYgAmYgAmYgAmkErarlwBC4VdyNGbVpEIr+1YpwT4NqeKHElyqWAHEIp2RQ5J4PMmEldV0KnP8TAbXEVnRiUuKxVN84sdlAfG4JmACJmACJmACJmAC03NGNi+BgxwMbYjPqmmtrqKMCtcqow0HNgK+rtTgRTkjKmv/SJaVX6m5zKrfr7KXrKHChp2yI7KilQoklaYxZ6YvXQYnj2kCJmACJmACJmACtUbgBmDXEia9IfBYE8btkyXZK6Ss6KYTEZ0aKX+kIq0oZ2SZLDei6NOHOmjyeAck1S7llMzYdET2KtC2IoRn3ukbJSRLFTxFD2cCJmACJmACJmACwRO4ONmYPrwEK7dqYtFtqWpJCni9EmzUkCqJcVKlxi7CGZFy1h+BE0pS0ZJHdzDwr5lA3DhTtFJMXpFNnrA8YjcTMAETMAETMAETMIHyCCgMShK2RTedxgxq4qBl2SjzpDbWt4l2NvuyIpwR5UU8CXRvtnX53CD9Zh0v6SSioabq6wNLcJSuBPbPZ4ruxQRMwARMwARMwARMoIUEtGF+Tgvvbc1t2ixXeYmmNOW03JVs8M/RlItzvkbSvms2Idm+RcMW4YzsCNwMFDFWQxCuSeDtN4vcjJ8BF5ZgnxKR/tSip+abTMAETMAETMAETMAE8iKgItTaJC66yQk6t4mDKsdZBRCXaOL1eV4m0aXTsnVr7qpalXYQ5L3p4e6RJ5Fm9KXihr0akc8tq/r63tmJTDOm40tNwARMwARMwARMwARyJrA9cHvOfTalu/OB45pyYXZNmaFaqounen2Tm2Fvky6ttDOyZCZZ1r5J1uR/kSR75QzNnVXYbChJffmSQsieBT7Jf8ru0QRMwARMwARMwARMoBkEuiYhUL2bcX1el76TqHiNmklnUl2dkCSOfwOMBd7PoniuKyG1QCZ+mSh6SdWrMSniZrOptDPy2+xYp9mG5XhD3XFSpeeao8nuygRMwARMwARMwARMoMYJ1K1h9Z91/xQtuFT3CDT+EcA/8n4mlVygq7aIysevlbfR7s8ETMAETMAETMAETMAETKBQAlrXS4VWaRC5tUo6IzrKkSZyx9ysdUcmYAImYAImYAImYAImYAJlEJgGrASMznPwSjkjys1QXQ8labuZgAmYgAmYgAmYgAmYgAnET+CYTIU2t5lUyhlZHBgOLJCbpe7IBEzABEzABEzABEzABEygTAKKelLl+NxapZyRPYGrSsr2zw2OOzIBEzABEzABEzABEzABE/h/Ah8A682imHizUVXCGZGMrrymDZttjW8wARMwARMwARMwARMwARMIlYAKIP4yyQk/L1P4arWdlXBG1gaeBKSm5WYCJmACJmACJmACJmACJlA9BB7KQrW+zWNKlXBGzkgKtJyUh3HuwwRMwARMwARMwARMwARMICgCCtVS6Y7xeViVtzPSIfGUVC6+Zx7GuQ8TMAETMAETMAETMAETMIGgCKg6/F7AoDxCtfJ2RiTlexkwZ1DIbIwJmIAJmIAJmIAJmIAJmEBeBB4AtgVaHaqVpzMyR3IiciPQP69Zuh8TMAETMAETMAETMAETMIHgCOh0ZBngrdZalqcz0gMYBszfWqN8vwmYgAmYgAmYgAmYgAmYQNAE9gWubq2FeTkjUs46EviLVbRa+0h8vwmYgAmYgAmYgAmYgAkET+BmYJfW5o3k5YwocX0UsFjw2GygCZiACZiACZiACZiACZhAawm8nxVAbFWoVl7OyKaJMUpkcTMBEzABEzABEzABEzABE6h+AsobOTwTr2rxbPNwRtTHxcBhLbaigjf+5Cc/YY455qBt27bMNpvrMFYQtbs2ARMwARMwARMwARPIgcB3333HtGnTpv8TeLsuk/n9b0vtzMMZUWjWE6GEaMnh6NmzJ2usvgbLLrcsCy20MO3btWOeeeahTZs2LeXk+0zABEzABEzABEzABEygEALfTP2Gr778mslTJjNu7FjGjhvLCy+8wBtvvFHI+M0YZBywNvBpM+75waWtdUbaAn8FfgoUvtKfc845WXzxxVlnnXXos04fevTowSKLLMJcc801/RRE/+hkxM0ETMAETMAETMAETMAEYiTwn//8h7p/Jk+ezPjx4xk7dizDhg1j2NPD+OCDD9BJSklNRzc7AXe1NJG9NSv1uRIH5A+JJ3RUkUUO5WjI6Vh33XXZqO9G9O7de7rz4WYCJmACJmACJmACJmACtURg4sSJDB8+nKFDh/L08Kd58803+f7774tGMBgYAExtycAtdUZ03z7AFUBL+2iWvbPPPjurr746xx13HKv2WtUOSLPo+WITMAETMAETMAETMIFqJqBTk0cefZQLLvhL0U7Jf4C+wOMt4dtSR0Lez7+SuiKdWzJoc+7p0L4DOw7Ykf3325/FFltseiK6mwmYgAmYgAmYgAmYgAmYwA8J/Pe//+Wbb75h9JjRXHDBBTz22GNFJcG/m5T52BV4qrnPpCXOSC9gUFYCvrnjNfl6hV5tvPHGHHzwwdNPQqyE1WR0vtAETMAETMAETMAETKDGCXz77bc88sgjXHnllQx/ZngRTsmTWRFE1R9pcmuuMzIPcF/yT58mj9CCC5dYYglOO/U0NtxwQxSe5WYCJmACJmACJmACJmACJtB8AnJKbrnlFs46+yyUY1LBJnlfVWXfC/i2qeM0xxmRV3Au8DOgIgU75HgcfvjhHHzQwXTs2LGpc/B1JmACJmACJmACJmACJmACMyGg8K0JEyZw5llnctddd01X56pQU/b8AcA1TVXXao4z0j8JzRoItKuE8d27d+fXv/41G2+0sU9DKgHYfZqACZiACZiACZiACdQ0galTp3LjoEHTk9w/+eSTSrFQx9s3NX+kqc6IChvenvyzWiWsVp2Q3/3udyy37HKV6N59moAJmIAJmIAJmIAJmIAJ6Ljiv//lqaee4jen/oZx41SzsCLt7ixca1JjvTfVGbkS2Lexzlry77facqvp2f5WyWoJPd9jAiZgAiZgAiZgAiZgAs0n8MUXX7Dnnnsy8pWRzb+5aXf8AvhzY5c2xRlZHXgkyRdR8npuTfkhBx14EMceeyyqpO5mAiZgAiZgAiZgAiZgAiZQHAE5JMcdfxxDhgypxKAfAKsAH8+q88acEdUReRCQQ5JrU6L6MUcf4+KFuVJ1ZyZgAiZgAiZgAiZgAibQdAKfffYZZ5x5BoMGqXJHrk3qWjcA+8+qOvusnBH9O2XDq7hhbk31Qg477DBO/MWJufXpjkzABEzABEzABEzABEzABFpG4Pvvv+eoo4/innvumZ5TkmOTutY2WWmQBrudlTOyMHBvohe8cl4G/eQnP2HnnXfm9D+c7tCsvKC6HxMwARMwARMwARMwARNoJYHPP/+cQw87lKeffrqVPf3odiWz7wl80VDHs3JGfp7VFcmtpki/Tfpx3nnn0alTp7wn6f5MwARMwARMwARMwARMwARaQeCdd97hZ0f9jBEjRrSilx/dOi1T1mowDmxmzkhbQFbkprWrOiI33jiIbvPPn+fk3JcJmIAJmIAJmIAJmIAJmEBOBEaNGsVuu+/G5MmTc+pxejdPJnnoGwA/qrY4M2fkGOB8oLEE9yYZ2aZNG2644QZ6r9G7Sdf7IhMwARMwARMwARMwARMwgXII3HLrLRx//PF55o/ICVkPGDbjjBpyNhRD9QSwYh7TV8L60UcdzZFHHskcc8yRR5fuwwRMwARMwARMwARMwARMoEIEvvrqK3550i+588478xzhgawy+zf1O23IGdkRuB5QqFarm6qrX3XlVS5q2GqS7sAETMAETMAETMAETMAEiiEwadIkdtl1F0aPHp3XgFOAvolD8vysnJF2wBXALnmMqpOQmwbdRK9evfLozn2YgAmYgAmYgAmYgAmYgAkURODGG2+cfkKSk9yvNIPPA34JSPJ3epvxZEReg0K02ucxx4MPOpiTTz4ZSfq6mYAJmIAJmIAJmIAJmIAJxENg6tSpHHb4YTz88MN5Gf02sD7w7syckV8l4Vl/ymM0yffeecedLL744nl05z5MwARMwARMwARMwARMwAQKJvDCCy+w8y47o8KIObW9gYEzc0aeSgodrtPagZS0ftJJJ3HgTw9ESlpuJmACJmACJmACJmACJmAC8RHQ6cgpvzmFm266Ka9wLTkickimt/rxU8sAo4DZW4upa9eu3DP4HuZ3TZHWovT9JmACJmACJmACJmACJlAqgREvj2DPPfdkyhTloLe6fQp0bcgZ+V1SiOTUVnefBIEddNBBnPyrk9EJiZsJmIAJmIAJmIAJmIAJmEC8BKZNm8Yhhx6SV+6IEtn3qQvVqjsZ0WnI/cDGrcXUoUMH7r7rbpZYYonWduX7TcAETMAETMAETMAETMAEAiAwdOhQ9j9gf/7znx8VUW+JdddmoVr/rXNGJOn7BrBAS3qrf8/mm23OpZde2tpufL8JmIAJmIAJmIAJmIAJmEAgBOSEbLnVlnnVHRkBrAVMrXNGtgBuAeSUtKqdf/757NhfdRPdTMAETMAETMAETMAETMAEqoXAueedy0UXXZTHdCYCvXUYImdE/yhf5NdAq5I8OnbsyODBg1l0kUXzMLJifXz99deMGTOGV199lXFvjGPixIlMnjyZLl26sEC3BVhmmWVYYYUVpoeahaQG9t133zFu3DhGjRo13f7PJ33OpM8n0blLZ+btMi8r9FyB5ZZdbrrds8/eah2CXPireqcqd4r1m2+9yeeff47iDjt37sxCCy3Eij1XnM574YUXdj2aXIi7ExMwARMwARMwAROoDIGXRrxE//7981DVmqo0c+AaOSIdgJsAnY60qg0YMIAzzziTtm3btqqfSt38zTffMOzpYVx04UUIphb3M2vt27dnk0024eijjqZHjx6lOiXffvstr732Gqeedur0Rb0k1mbW2rVrR58+fTjxFydOt3uOOeaoFM6Z9qsqnV9++SV33Hkn//jH33n33XdnGV8oR2qbbbbhyCOPpFu3bhY+KPyJeUATMAETMAETMAETaJyANpl332P36evRHNpfgWPljChP5Hlg4dZ0qhOEs88+h50GDGhNNxW5V4vjESNGcPQxRzN+/PhmJd7MNddc052S35722+kL5SKb7B4zbiyn/uY3PPfcc9NPFJra5IT07duXU075Dd0LFBNQQZx7772XM886czrr5jSdrO21514cffTRzD333M251deagAmYgAmYgAmYgAlUmIDyRrTGyyk//ElgGzkjqwIvtNb2Oeecc3rF9WWXXba1XeV6v6ANvHYgF154IR9//HGL+15pxZX4/e9/z+qrr97iPppzo+we8uAQTjvtNCZMmNCcW39wbY8le/DHP/2Rdf6PvfuAlqQo9DBeIgrIIpIzD8kgOUgQJEhckmQkSFrCknNeMiwSHisgIElAkCxJ8i5ZyZKFBQFJIiA5SNR3vvYNLMvee2emqme6bn91zh59zzs91b/qmel/V1pk0dKHQdHzdMyxx4bf/e78wFC4dgqhdvHFFy962KaZZpp2DuFrFFBAAQUUUEABBUoSuGn4TWHw4MG9jjBq8q3fDiH8gDAyMIRwTZMv6vHPpphiinD9ddcX8y6qUnhKf8mll4aDDz4ocKMcWxj2dMrJpxSB6xvfGHW/yNgjf/X19Ihcc801YY8990hSb3oZTj/t9PCjH/2otHrje/LJJ4cTTjwhCcbCCy8chh0/zECSRNODKKCAAgoooIACaQRe/vvLYYUVViiG5CcoC3FHvWUI4YzYgy2+2OLhnHPO6cochZ7qfvPNN4ettt4qEEpSlYknnjjceMONgV3myyoMydpiyy0C4/JSlUkmmSScdeZZYd555011yC+OQ3gaNmxYEUT476kKw8xOPeVUh2ylAvU4CiiggAIKKKBApMC7774bVl9j9fC3v/0t8kjFy1cnjBwaQhgSe7RBWw4KBxxwQOxhkr0eIDZmSQT1lXqtudZaYegRRwbmk6Qu9DCss+464bHHHkt96LDkkkuG35z1m+QrbT388MPh55v+PGl44uQZsrXNNtuEPffYs7QeneTIHlABBRRQQAEFFOjHAsxh5r7vrrvuSnGWWxFGzgohbB5ztLHGGiv86qRfhZVXXjnmMMley3yLoUcNDaeffnqyY456IG6SGfbExPaUhV6Fiy++OOyz7z5JexgadaSdjj322LDWmukWGWClrzV+ukaqVRW+xskSwDdcf0NgGKBFAQUUUEABBRRQoPsChxxySPjN2b9JUZF9CSM3hRCWizkae1rcPOLmMP3008ccJtlr//nPVg89FQAAIABJREFUf4ZVVl0lvPrqq8mOOfqBlllmmXDar09LOizttddeC8stv1yg+6uswopVd9x+Z5hwwu8meYv7778/rL/B+kmHwo1esS233DIcsP8B9o4kaTEPooACCiiggAIKxAlce921YYcddmhphdoe3vE0wsjjIYQ5Y6rEviJPPvFkZfaHOOOMM8LhRxwec0p9vpb9PC6//IowW8LVw5i0vv0O2/f53jF/QHA8/7zzwyKLLBJzmOK19EDtu9++4aKLLoo+Vm8HoFfkyiuuDFNOOWWp7+PBFVBAAQUUUEABBfoW+PODD4Z111knfP7v6HnZlxFGngkhzNj32/b8F9ws3nP3PTGHSPZabpAHrjKw2CSw7DJkyJCwxeZbJHtiz6aG5557bqnVZhUw5mHss/c+0e9DT866660bnn/++ehj9XWAC353QbGZo0UBBRRQQAEFFFCguwLMyWY0T28biDdZw+GEkbdCCN9r8gVj/DP2g/jjnX+MOUSy177//vthmWWXidpTpNnKMFSLFapSLPPLxPUtttgi/Oku9n8ptyy5xJKB3iP2hokpD5KK11s3xYXYZzWGDDkwbLnFFn3+nX+ggAIKKKCAAgooUL7AbLPPFj7++OPYN7qTMBK9FusPfvCDcM0forcqiT2Z4vVvvPFGWHqZpcN7772X5Hi9HWTOOecsNnpkQntsYX7LhhttGJ55ho6qcgv7pDBUa7LJJot6o+HDh4dBWw2KOkazL956663Dfvvu1+yf+3cKKKCAAgoooIACJQosuNCCxX13ZHkmSRiZa665wh+u/kNkXdK8nJv6pZZeKslmgX3VaOaZZy42emQeRmz5+9//XoSRMpYiHr1uM8wwQ7jwgguj52Bc9vvLwu677x576k29fp111gnHHnNsU3/rHymggAIKKKCAAgqUK7D4jxYP3L9Glmf7XRh5/fXXi56RRLtC9uo7yyyzhOuuvS67MPL9738/MAcjdkL4FVdcEXbZdZfIa7C5l2+80cbh8MPLXZSguZr4VwoooIACCiiggAKGkR6ugbfeeqsIIyl3L+/pcpt3nnnD5ZdfnmQVsTfffDNs8vNNwuOPs7hZuWXeuecN55x7TmAPj5jyxz/+MWy08UYxh2j6tSwft8fuezT99/6hAgoooIACCiigQHkChpEebP/10Udh2WWXCa+88kp5+v9/5PXXXz8cNfSoJBPYP//887D1NluHESNGlF7vlVZaqdikMnauy5MjnwwMn2LRgLLL0b84Oqy33nplv43HV0ABBRRQQAEFFGhCwDDSAxK7mG+62abh9ttvb4Ix7k9OPeXUwI19qnLSSSeFY48rd14EK38dfNDBYdNNN42uNosEMM/l0UcfjT5Wbwf41re+FS7//eWBuUkWBRRQQAEFFFBAge4LGEZ6aYNbbrklbDloyxS7Qvb4LtNNN124+OKLw1RTTpXsanjggQeKpXLZK6WswgaVN1x/Q2DeSIryq1/9qghQhMCyCqu1XXThRWHAgAFlvYXHVUABBRRQQAEFFGhBwDDSCxaT19dbf71S519svvnm4cAhByYZotU4lU8++SSsvc7apfY00LtwxeVXJJl0T71feumlsPwKy4d//etfLVy+zf/pWGONFU444cSw6iqrNP8i/1IBBRRQQAEFFFCgVAHDSB+8F1x4Ydh///1K6WWYZJJJwnnnnR/mmH325I08cuTIsPoaq6fYROZrdfvud79bDHeaaaaZktWbXpz99t8vXHjhhcmOOeqB2BPlqiuvCuOOO24px/egCiiggAIKKKCAAq0LGEb6MGM+wx577hluuOH61nV7eQWTvg868KCwySabJO0VabwlE9n33mfvcNlllyUd+sRckUFbDgr77bdf8nq//fbbYf0N1g8EqZRl/PHHLybaL7300ikP67EUUEABBRRQQAEFIgUMI00AshELy/wy/ClVWX755QPzJL79rW+nOuTXjvPuu+8Wy/w+/PDDyd5j2WWXDSeecGLgBr+Mcvfddxe7sadcWWvXXXcNO+24U/LwVMb5e0wFFFBAAQUUUKBOAoaRJlubHc1ZMvepp55q8hVj/jN6FgYOHBiOPHJomPC73406VjMvfuGFF8Juu+8W7r///mb+vMe/od4/XPiHYdiwYWGqqdJNth/TG954441FnWMDCb1PO+60Uxi8zbZhnHHGiTp/X6yAAgoooIACCiiQXsAw0oLpk08+GY444ohwx513tPCqL/+USdSDBg0K2w3eLnqjwFYq8I9//CMMGTIk3HrbreHTTz9t5aXF3zLPYsUVVwyHHnJomHDCCVt+fTsvuOuuu8LBhxwSRo58sp2Xh4kmmigMHjw4bLbpZoGVvywKKKCAAgoooIAC1RMwjLTYJh9//HE499xzw4knnVg8uW9m+dyxxx47TD311OGYo48NCy+8UJKd1lusdvjss8/CZb+/LAwdOjQwfKuZetOzMMEEE4Rjjj4mLLPMMslWzmq27swhGXrU0HDllVcWE/GbWfYX63nnnTcMPfKoMOusszT7Vv6dAgoooIACCiigQBcEDCNtor/xxhvh5ltuLiaIM3Trrbfe+srNMhvssXcIS+D+bMOfhQXmX6C0eRatnAI3+LffcUe4+uqrwmOPPRboNRn1Jp/hWOx9Mvvssxc7lS/yw0WKQNKtQmhi2d9rrrkm3DT8pvD0008HFhUYtdDzMf3004fFFlssrLfuekXd8bcooIACCiiggAIKVFvAMBLZPkxqf/nll4swwn9yY8/k7skmm6z4N/nkkwd6GKpWGK716quvFv9ee/W18NnnnxVDsAZMMKCYEzLZpJN1vCekLyN6ol555ZVAEPznP/9Z9O6wzPCkk04appxyyjDxxBN3pdepr3r7vyuggAIKKKCAAgqMWcAw4pWhgAIKKKCAAgoooIACXREwjHSF3TdVQAEFFFBAAQUUUEABw4jXgAIKKKCAAgoooIACCnRFwDDSFXbfVAEFFFBAAQUUUEABBQwjXgMKKKCAAgoooIACCijQFQHDSFfYfVMFFFBAAQUUUEABBRQwjHgNKKCAAgoooIACCiigQFcEDCNdYfdNFVBAAQUUUEABBRRQwDDiNaCAAgoooIACCiiggAJdETCMdIXdN1VAAQUUUEABBRRQQAHDiNeAAgoooIACCiiggAIKdEXAMNIVdt9UAQUUUEABBRRQQAEFDCNeAwoooIACCiiggAIKKNAVAcNIV9h9UwUUUEABBRRQQAEFFDCMeA0ooIACCiiggAIKKKBAVwQMI11h900VUEABBRRQQAEFFFDAMOI1oIACCiiggAIKKKCAAl0RMIx0hd03VUABBRRQQAEFFFBAAcOI14ACCiiggAIKKKCAAgp0RcAw0hV231QBBRRQQAEFFFBAAQUMI14DCiiggAIKKKCAAgoo0BUBw0hX2H1TBRRQQAEFFFBAAQUUMIx4DSiggAIKKKCAAgoooEBXBAwjXWH3TRVQQAEFFFBAAQUUUMAw4jWggAIKKKCAAgoooIACXRGoVBiZZpppwh6779EVCN9UAQUUUEABBRRQQAEFOitw8CEHh3feeSf2TZ/9RgjhP7FH8fUKKKCAAgoooIACCiigQIsChpEWwfxzBRRQQAEFFFBAAQUUSCNgGEnj6FEUUEABBRRQQAEFFFCgRQHDSItg/rkCCiiggAIKKKCAAgqkETCMpHH0KAoooIACCiiggAIKKNCigGGkRTD/XAEFFFBAAQUUUEABBdIIGEbSOHoUBRRQQAEFFFBAAQUUaFHAMNIimH+ugAIKKKCAAgoooIACaQQMI2kcPYoCCiiggAIKKKCAAgq0KGAYaRHMP1dAAQUUUEABBRRQQIE0AoaRNI4eRQEFFFBAAQUUUEABBVoUMIy0COafK6CAAgoooIACCiigQBoBw0gaR4+igAIKKKCAAgoooIACLQoYRloE888VUEABBRRQQAEFFFAgjYBhJI2jR1FAAQUUUEABBRRQQIEWBQwjLYL55woooIACCiiggAIKKJBGwDCSxtGjKKCAAgoooIACCiigQIsCacLIJJNMEtZee+0W39s/V0ABBRRQQAEFFFBAgRwFzj///PDBBx/EVj1NGFlwwQXD/fffH1sZX6+AAgoooIACCiiggAIZCPzP//xPeOGFF2JrahiJFfT1CiiggAIKKKCAAgrUTcAwUrcW93wVUEABBRRQQAEFFKiIgGGkIg1hNRRQQAEFFFBAAQUUqJuAYaRuLe75KqCAAgoooIACCihQEQHDSEUawmoooIACCiiggAIKKFA3AcNI3Vrc81VAAQUUUEABBRRQoCIChpGKNITVUEABBRRQQAEFFFCgbgKGkbq1uOergAIKKKCAAgoooEBFBAwjFWkIq6GAAgoooIACCiigQN0EDCN1a3HPVwEFFFBAAQUUUECBiggYRirSEFZDAQUUUEABBRRQQIG6CRhG6tbinq8CCiiggAIKKKCAAhURMIxUpCGshgIKKKCAAgoooIACdRMwjNStxT1fBRRQQAEFFFBAAQUqImAYqUhDWA0FFFBAAQUUUEABBeomYBipW4t7vgoooIACCiiggAIKVETAMFKRhrAaCiiggAIKKKCAAgrUTcAwUrcW93wVUEABBRRQQAEFFKiIgGGkIg1hNRRQQAEFFFBAAQUUqJuAYaRuLe75KqCAAgoooIACCihQEQHDSEUawmoooIACCiiggAIKKFA3AcNI3Vrc81VAAQUUUEABBRRQoCIChpGKNITVUEABBRRQQAEFFFCgbgKGkbq1uOergAIKKKCAAgoooEBFBAwjFWkIq6GAAgoooIACCiigQN0EDCN1a3HPVwEFFFBAAQUUUECBiggYRirSEFZDAQUUUEABBRRQQIG6CRhG6tbinq8CCiiggAIKKKCAAhURMIxUpCGshgIKKKCAAgoooIACdRMwjNStxT1fBRRQQAEFFFBAAQUqImAYqUhDWA0FFFBAAQUUUEABBeomYBipW4t7vgoooIACCiiggAIKVETAMFKRhrAaCiiggAIKKKCAAgrUTcAwUrcW93wVUEABBRRQQAEFFKiIgGGkIg1hNRRQQAEFFFBAAQUUqJuAYaRuLe75KqCAAgoooIACCihQEQHDSEUawmoooIACCiiggAIKKFA3AcNI3Vrc81VAAQUUUEABBRRQoCIChpGKNITVUEABBRRQQAEFFFCgbgKGkbq1uOergAIKKKCAAgoooEBFBAwjFWkIq6GAAgoooIACCiigQN0EDCN1a3HPVwEFFFBAAQUUUECBiggYRirSEFZDAQUUUEABBRRQQIG6CRhG6tbinq8CCiiggAIKKKCAAhURMIxUpCGshgIKKKCAAgoooIACdRMwjNStxT1fBRRQQAEFFFBAAQUqImAYqUhDWA0FFFBAAQUUUEABBeomYBipW4t7vgoooIACCiiggAIKVETAMFKRhrAaCiiggAIKKKCAAgrUTcAwUrcW93wVUEABBRRQQAEFFKiIgGGkIg1hNRRQQAEFFFBAAQUUqJuAYaRuLe75KqCAAgoooIACCihQEQHDSEUawmoooIACCiiggAIKKFA3AcNI3Vrc81VAAQUUUEABBRRQoCIChpGKNITVUEABBRRQQAEFFFCgbgKGkbq1uOergAIKKKCAAgoooEBFBAwjFWkIq6GAAgoooIACCiigQN0EDCN1a3HPVwEFFFBAAQUUUECBiggYRirSEFZDAQUUUEABBRRQQIG6CRhG6tbinq8CCiiggAIKKKCAAhURMIxUpCGshgIKKKCAAgoooIACdRMwjNStxT1fBRRQQAEFFFBAAQUqImAYqUhDWA0FFFBAAQUUUEABBeomYBipW4t7vgoooIACCiiggAIKVETAMFKRhrAaCiiggAIKKKCAAgrUTcAwUrcW93wVUEABBRRQQAEFFKiIgGGkIg1hNRRQQAEFFFBAAQUUqJuAYaRuLe75KqCAAgoooIACCihQEQHDSEUawmoooIACCiiggAIKKFA3AcNI3Vrc81VAAQUUUEABBRRQoCIChpGKNITVUEABBRRQQAEFFFCgbgKGkbq1uOergAIKKKCAAgoooEBFBAwjFWkIq6GAAgoooIACCiigQN0EDCN1a3HPVwEFFFBAAQUUUECBiggYRirSEFZDAQUUUEABBRRQQIG6CRhG6tbinq8CCiiggAIKKKCAAhURMIxUpCGshgIKKKCAAgoooIACdRMwjNStxT1fBRRQQAEFFFBAAQUqImAYqUhDWA0FFFBAAQUUUEABBeomYBipW4t7vgoooIACCiiggAIKVETAMFKRhrAaCiiggAIKKKCAAgrUTcAwUrcW93wVUEABBRRQQAEFFKiIgGGkIg1hNRRQQAEFFFBAAQUUqJuAYaRuLe75KqCAAgoooIACCihQEQHDSEUawmoooIACCiiggAIKKFA3AcNI3Vrc81VAAQUUUEABBRRQoCIChpGKNITVUEABBRRQQAEFFFCgbgKGkbq1uOergAIKKKCAAgoooEBFBAwjFWkIq6GAAgoooIACCiigQN0EDCN1a3HPVwEFFFBAAQUUUECBiggYRirSEFZDAQUUUEABBRRQQIG6CRhG6tbinq8CCiiggAIKKKCAAhURMIxUpCGshgIKKKCAAgoooIACdRMwjNStxT1fBRRQQAEFFFBAAQUqImAYqUhDWA0FFFBAAQUUUEABBeomYBipW4t7vgoooIACCiiggAIKVETAMFKRhrAaCiiggAIKKKCAAgrUTcAwUrcW93wVUEABBRRQQAEFFKiIgGGkIg1hNRRQQAEFFFBAAQUUqJuAYaRuLe75KqCAAgoooIACCihQEQHDSEUawmoooIACCiiggAIKKFA3AcNI3Vrc81VAAQUUUEABBRRQoCIChpGKNITVUEABBRRQQAEFFFCgbgKGkbq1uOergAIKKKCAAgoooEBFBAwjFWkIq6GAAgoooIACCiigQN0EDCN1a3HPVwEFFFBAAQUUUECBiggYRirSEFZDAQUUUEABBRRQQIG6CRhG6tbinq8CCiiggAIKKKCAAhURMIxUpCGshgIKKKCAAgoooIACdRMwjNStxT1fBRRQQAEFFFBAAQUqImAYqUhDWA0FFFBAAQUUUEABBeomYBipW4t7vgoooIACCiiggAIKVETAMFKRhrAaCiiggAIKKKCAAgrUTcAwUrcW93wVUEABBRRQQAEFFKiIgGGkIg1hNRRQQAEFFFBAAQUUqJuAYaRuLe75KqCAAgoooIACCihQEQHDSEUawmoooIACCiiggAIKKFA3AcNI3Vrc81VAAQUUUEABBRRQoCIChpGKNITVUEABBRRQQAEFFFCgbgKGkbq1uOergAIKKKCAAgoooEBFBAwjFWkIq6GAAgoooIACCiigQN0EDCN1a3HPVwEFFFBAAQUUUECBiggYRirSEFZDAQUUUEABBRRQQIG6CRhG6tbinq8CCiiggAIKKKCAAhURMIxUpCGshgIKKKCAAgoooIACdRMwjNStxT1fBRRQQAEFFFBAAQUqImAYqUhDWA0FFFBAAQUUUEABBeomYBipW4t7vgoooIACCiiggAIKVETAMFKRhrAaCiiggAIKKKCAAgrUTcAwUrcW93wVUEABBRRQQAEFFKiIgGGkIg1hNRRQQAEFFFBAAQUUqJuAYaRuLe75KqCAAgoooIACCihQEQHDSEUawmoooIACCiiggAIKKFA3AcNI3Vrc81VAAQUUUEABBRRQoCIChpGKNITVUEABBRRQQAEFFFCgbgKGkbq1uOergAIKKKCAAgoooEBFBAwjFWkIq6GAAgoooIACCiigQN0EDCN1a3HPVwEFFFBAAQUUUECBiggYRirSEFZDAQUUUEABBRRQQIG6CRhG6tbinq8CCiiggAIKKKCAAhURMIxUpCGshgIKKKCAAgoooIACdRMwjNStxT1fBRRQQAEFFFBAAQUqImAYqUhDWA0FFFBAAQUUUEABBeomYBipW4t7vgoooIACCiiggAIKVETAMFKRhrAaCiiggAIKKKCAAgrUTcAwUrcW93wVUEABBRRQQAEFFKiIgGGkIg1hNRRQQAEFFFBAAQUUqJuAYaRuLe75KqCAAgoooIACCihQEQHDSEUawmoooIACCiiggAIKKFA3AcNI3Vrc81VAAQUUUEABBRRQoCIChpGKNITVUEABBRRQQAEFFFCgbgKGkbq1uOergAIKKKCAAgoooEBFBAwjFWkIq6GAAgoooIACCiigQN0EDCN1a3HPVwEFFFBAAQUUUECBiggYRirSEFZDAQUUUEABBRRQQIG6CRhG6tbinq8CCiiggAIKKKCAAhURMIxUpCGshgIKKKCAAgoooIACdRMwjNStxT1fBRRQQAEFFFBAAQUqImAYqUhDWA0FFFBAAQUUUEABBeomYBipW4t7vgoooIACCiiggAIKVETAMFKRhrAaCiiggAIKKKCAAgrUTcAwUrcW93wVUEABBRRQQAEFFKiIgGGkIg1hNRRQQAEFFFBAAQUUqJuAYaRuLe75KqCAAgoooIACCihQEQHDSEUawmoooIACCiiggAIKKFA3AcNI3Vrc81VAAQUUUEABBRRQoCIChpGKNITVUEABBRRQQAEFFFCgbgKGkbq1uOergAIKKKCAAgoooEBFBAwjFWkIq6GAAgoooIACCiigQN0EDCN1a3HPVwEFFFBAAQUUUECBiggYRirSEFZDAQUUUEABBRRQQIG6CRhG6tbinq8CCiiggAIKKKCAAhURMIxUpCGshgIKKKCAAgoooIACdRMwjNStxT1fBRRQQAEFFFBAAQUqImAYqUhDWA0FFFBAAQUUUEABBeomYBipW4t7vgoooIACCiiggAIKVETAMFKRhrAaCiiggAIKKKCAAgrUTcAwkqjFP/300/DRRx8lOlr6w4w99tjFQccaa6zwrW99q/hPiwIKKKCAAgoooIAC3RQwjCTSv/jii8MOO+wQ/vOf/yQ6YrrDfOMb3wjf+c53igN++9vfDuOPP36Ydtppw0ILLRQGDhwYZpxxxjDBBBMU/5tFAQUUUEABBRRQQIFOCRhGEkmfe+65YdNNN010tM4dhqAyzTTThLnnnjsst9xyYamllgpzzjlnGG+88TpXCd9JAQUUUEABBRRQoJYChpFEzZ5rGBn99Mcdd9yw/PLLh8GDB4cll1wyDBgwIJGQh1FAAQUUUEABBRRQ4KsChpFEV0R/CSMNDuaVTDbZZOG8884rQkljzkkiLg+jgAIKKKCAAgoooEAwjCS6CPpbGGmwEELWXHPNsNdee4UFF1wwMKzLooACCiiggAIKKKBACgHDSArFEEJ/DSMNnqmnnjoMGzasCCb2kiS6aDyMAgoooIACCihQcwHDSKILoL+HkQbTHnvuGQ4/7LAwzjjjJJLzMAoooIACCiiggAJ1FTCMJGr5uoQRekVYNeykk04KTHa3KKCAAgoooIACCijQroBhpF250V5XlzDCaX/zm98Mq622WjE0jf1JLAoooIACCiiggAIKtCNgGGlHbQyvqVMY4fSZyL7jjjuGX/ziF/aQJLqGPIwCCiiggAIKKFA3AcNIohavWxiBjSFbxxxzTNh5551dZSvRdeRhFFBAAQUUUECBOgkYRhK1dh3DCHQTTzxxuOKKK4q9SCwKKKCAAgoooIACCrQiYBhpRauXv61rGIFk9tlnD/fee6/zRxJdSx5GAQUUSClw0003hTfeeCPqkKyguNJKK4Xxxhsv6ji+WAEFFBhdwDCS6JqocxgZa6yxwsEHHxz233//wH+3KKCAAgpUR2CxxRYLd999d1SFJp100vDII4+EqaaaKuo4vlgBBRQwjJR0DdQ5jEA60UQThbvuuivMNttsJQl7WAUUUECBdgQMI+2o+RoFFOiUgD0jiaTrHkZg3HPPPcPQoUOLpX8tCiiggALVEDCMVKMdrIUCCoxZwDCS6MpIEUYY4sSSuWWUzz//vIzDfuWY448/fhg5cmSYZpppSn8v30ABBRRQoDkBw0hzTv6VAgp0R8Awksg9RRjZa6+9wqKLLpqoRl89zDvvvBNefvnlcPvtt4fhw4eHf//736W8z5FHHhn23XffUo7tQRVQQAEFWhcwjLRu5isUUKBzAoaRRNYpwsjvf//7sOaaayaq0dcP85///Cd8+umn4b333gu33HJLsYM6q6x89NFHyd5zvvnmC3/+859L6+FJVlEPpIACCtREwDBSk4b2NBXIVMAwkqjhcggjo58qQ7cuv/zyoifjmWeeCYSV2DJgwIBw/wMPhNlmnTX2UL5eAQUUUCCBgGEkAaKHUECB0gQMI4locwwjnDoB5JVXXglrrbVWuOeee6I1mPNyyCGHhCFDhkQfywMooIACCsQLGEbiDT2CAgqUJ2AYSWSbaxhpnP7zzz8f1ltvvWLzwtiy+OKLh+uvv95NEGMhfb0CCiiQQMAwkgDRQyigQGkChpFEtLmHERjYFGuFFVYo5pTElG9/+9vhqaeeClxcFgUUUECB7goYRrrr77sroEDvAoaRRFdIfwgjzCE56KCDAitixcwfYYniP/7xj6WtDJaoyTyMAgooUAsBw0gtmtmTVCBbAcNIoqbrD2EEig8++CD84Ac/CAzbarcwb+Sss84Km222WbuH8HUKKKCAAokEDCOJID2MAgqUImAYScTaX8IIHIMGDQpnnnlmlMwhhx4ahhxwgEv8Rin6YgUUUCBewDASb+gRFFCgPAHDSCLb/hRG7rrr7rD44otFyRBoTjnllDD22GNHHccXK6CAAgrECRhG4vx8tQIKlCtgGEnk25/CyLvvvhvYvPC5555rW2e55ZYLV199dRh33HHbPoYvVEABBRSIFzCMxBt6BAUUKE/AMJLItj+FkU8++SSss846RZhot8w666zFTuzjjz9+u4fwdQoooIACCQQMIwkQPYQCCpQmYBhJRNufwgiH6nifAAAgAElEQVQraW2/ww7hlJNPbltn+umnD3/5y18MI20L+kIFFFAgjYBhJI2jR1FAgXIEDCOJXPtTGIHkiCOOCAcccEDbOoaRtun67Qs//fTT8PHHHxfLRjf+szGM7zvf+U745je/2W/PvewT++yzz8K//vWv4m3o2WSZ7vHGG69YQIL/1ParLcA1yMqB/CdWH330UeAaxIulyftbj65hpL1PIJ8lvqsoXCNcG+yjReG761vf+lZ7B67Jq/79738XnzMKnzMs+ZxRmE/Kd5NFAQQMI4muA8PIVyH5kn799dfDhBNOmEjYw+Qi8P777xe9Yo8//nh45plnwsiRI8PLL79cbKY56g87P1SNHyZ+lCabbLIw00wzBYb4zb/AAmH++eYLE000US6n3ZF6vvXWW+Gpp58OTz7xROH79NNPh9dee62w5WaJgjHhBFtunrhpmnjiicMss8xSzAWbc845w3zzzx++V5PP5t///vfwyCOPFF7PPvts8e8f//hH+PDDD4swghV2BBDCCP/w4oEK1+M888xTmM0+++xf3Ih2pLETvolhpHfMTz79NPztuefCQw89FB577LHwwgsvFN9dfN4IJBTCPp+nccYZp/i/+U++s2acccbis8WS+Fwr0003XS1XkXzxxRfDo48+WvzjM4bhK6+8UnzOKKN/znhA8t0JJwyzzDxz8TmbbbbZwgILLFB4NgJfwo9AbQ7FbwHXKmGP77FcimEkUUsZRr4KOckkk4S//e1vYcCAAX0K88ScL/2YjRZ5E77AunXz+s9//rN48hNTuAmadNJJix+82MKNPqb8AMQUfjCoU2+FdiNssNHlH/7wh+IH/aWXXgpvv/1222/NjTQ/6vw4rbnmmmGppZcOk006aSV+5LGlvWOvV9qZz0lv7c17vfjSS+HmESPCzTffHO69997w6quvBhaZaPf9sZ122mkDN6irrrpqYLEJHhpw/fWHwjX/5JNPhhtuuCHceOON4amnnirCRyOstXqOuNBO/Fj++Mc/DiuttFL40Y9+9EVPSqvHa/fvqf8777zT1ssHDhxYzOGLKdzY3HLLLWGKKaaIOczXXpvye6/ZivHZ4aHJfffdF667/vpw2623Ft9ZXCftfq74/ZlyyimLYLLiiiuGlVdeuQixKb7Pmz2vTv4dnzNC/k033VT848EIfo3w1mpduA64tqaZZpri+37ttdYK8847b8c/Zz3Vm+/iN998s+u/81yf/LY/8cQThTnhmf8k+PEgin+0Ab/dPGDBlO/4HXbYodI9UYaRVj8xPfx9fwsju+66axg2bFjbOq0M0+JHcokllvhimEm7b8qNwogRI7qynPDUU09dfBnEFHoH/vrXvwaOFVveeOONsMIKK0TfgPAFQagcvfCFyNMXvhCPPPLIcPnll7f9I97MufJ0f9tttw3bbb99mOF//qerwyN40s5TPG5mYgo/ugS30cMetjxNJHiceOKJ4YorrijVlpuAA4YMCT/fZJPw/e9/P8shXY3wPXz48GJ4KZ+jMgvhZO+99w7rrbdecfPUiSXML7jggrDRRhuVei2UadbTsQnChEdu5MsuPPjiwQn7aB133HHRvzl91ZfeksMPPzwsvfTS/SLwNx7E8Dnj+ifAlVn4buR9Ntxww+KmupvDTQlaiy++eNQqo1jxwJTvp1Z6LXjQycO9Bx54IJx33nnht7/9bUvsXIe33357S+/Z0hsk+GPDSAJEDtGfwggX/pZbbhnOOeectnUMI63T5RRGLrnkknD88ccXN9ONuQqtn3Hrr+AL/Kc//WkgLM8111ytHyDBK8oMI4yvJtgdffTRxRP9xrC2BNXu8xDYbrzxxmGnnXYqhk3kUgjep59+ejjttNOK4Nzuk+1Wz7fRY0Ig2XnnnYvhhWUWw0ic7kMPPxz+97jjwrXXXls84e7UdcKQ5ZlnnjkMHjw4bL755k2NFog703JezcM29g7jZrjTnzOCKp+z7bffvuh56kbpVhh5/vnnwxlnnFEEaIa+tzPaYdFFFy1GLlS5l84wkuiq7k9hhKeyyy67bLjnnnva1mF4zR133PHFnIDeDmTPyH91qh5GeCp23333h8MPP6zogepkCBn9+plqqqmKnhK6nlt5wtT2BT3KC8sII9wY8eTqoIMOCn/6058CT3C7VWaYYYaw9dZbh1122aXS3fpcfxdedFH4xVFHFU8aY4dJxnjzQ/rzn/+8CMllDRU1jLTXQgxrPPzwI8LFF19UzK/qVuGpPr+L++67b1h99dW7+pS/FQM+Z7/5zW+Kh0/Mo+lUiBtTHflu4juf76cJJpigldOI/ttOhxGGYvF7cNVVVxXzb2LcGZLL70qVi2EkUev0pzDCh44no42JZ+0QrbHGGuGiiy76YrKfYaRvxSqHEb4Y+TFiyEHMl2LfCq39Bb0jJ598ctF93qku/JRh5MEHHyzG9zJk5KSTTupqCBldnvHaZ5x5Zphv3nk7Mgyp2Zbn+sNtzz33LObRVKnw1Jbrcamllko+lNAw0lpLcxPNXln0RsT8lrX2rs39Nb27DINmBEFV52rxBJ7J6IMGDYoe7tucSvN/xVwcPmfM3erEEElq1qkwwnV70/DhYZedd44eEtYQ5Xqjx73KxTCSqHX6Uxg5++yziy/wmMITwmOPPbapbkF7Rv4rXdUwwqTVtdZaKzz88MOVCiKN65NFEliKmp6STqzCkjKMnHPuuWH33XYrbKtYuCa5aeKGpApd/PR+XHTxxWH77baLWiChTGsmje64447FU83G0tUp3s8w0rwiN3Q8Qed3uZ1hLc2/U/t/yffWZZddVsztq1qhZ5YHEbvtumvbCz+UfU58Nx188MFht91260gg6UQY4VrdYostAp/1lNctm1gztLrKxTCSqHX6Uxjhy5HVMWIKY955ctlMMYxUN4xwc88E3eeee66Zpuza3zAue9111w0nnHBCsfJRmSVVGKHOTN5lZa4qF370+YGkZ6yb+yqwkhSTWXlY0sm5NO20DcGNVbdOOfXUMP1007VziK+9xjDSHCNLODPRn1WGujl0r5nafu973ws77rRTOOjAAzvWs9tXveipZc7opZdeWtkg0jgHfp9YuYw5FZNPPnlfpxb1v5cdRpiHw/AzentTX7fbbLttOPWUU6LOv+wXG0YSCfeXMMLY64UXXjjqqSPdzqTwtddeuyldw0h1w0hTDVihP2IJQxZeSLEiWU+nlSqMVIitz6rwmWZ52F//+tdFOO10Ydw/N0jXXHNNp9866v3mn3/+cNZZZxVLlMYOxzGM9N4UzGljniJzdxhjn0vhuthss82KkQSdnv82qhHDH5kszYMHesNzKksuuWTx3TTHHHOUVu0ywwirZHENEKDLKLvvsUc49phjyjh0smMaRhJR9ocwwlKlrFhx3XXXRanwVJBhJ82udmQYMYxEXXCjvXihhRYqxseyl0YZpY5hpOHIGG2GlqTea6K3dsKbIFTVoWx9XWMsT3rbbbcVe07EFMNIz3rcSLOoxs9+9rPK9zT2dBarrbZaR57w9/T+LK9MkGPvlRwLy62zDDqbk5ZRygojPGghTLFXSFmFIaMMaatyMYwkap3cwwhf5qxdzVwRnjDFFIbJkPCbXTfeMGIYibneRn8tTxr5YeIpaV8bNrbzvnUOI3itssoqRdjrxJAt9oRYf/31i5VgqrRwQqvXDT11DH2NCSSGkZ7VWYmOeW0s85xr4XuLMEVPWmOX906dC3tY/OQnP6ncRPVWz58llAmlLAyQupQRRhiJwvcpy7iXWX75y18WS7ZXuRhGErVO7mGEtdc32GCD8N5770WLMFmKtcib/UI1jBhGoi+6MRyA5TOZX5B6qdW6hxFumuhBZV+P7373u2U0XXFMbpDY9yS3oVk9gbDxGN+L8803X1tmhpGvsxFQ77zzzuJ65GaxPxSueYYcfec73+nI6TBnjdWW2IeiPxR6RrifYQPXlCV1GGFPqTXXXLPYyLDswnf1VlttVfbbRB3fMBLF9+WLcw0jTAS98sori027UnyZ87SUG0B2TG22GEYMI81eK63+HRMCf/WrXyVdbaXuYYQ2YCjm/vvvH4YMGVJKD8lHH31U9NJeeOGFrTZ5pf+eIYT02LWzypZh5OtNy9AWhjeNHDmy0u3eSuX4bB144IFhv/32K+WzNWpdGoGfm/ecex5H92VY5/nnnx9YICBVSRlGuF5ZjIP9WzpRGL7GdgtVLoaRRK2TYxhhR1VCCJvqpFqdhhUtWBWCFXiaLYYRw0iz10qrf0c45rPJUJ/YCcSN9zaM/FeCfV1YqIKneykLN0Xs9Mymi93c/DHlOTWOxTW4ySabFDchrS6VbBj5aoswnJj9XOgZ6W+F7y2GQjKEp8zC/kZ77LFHmW/RlWPz3bT77ruHoUOHtvw566nCqcIIAQlz5nCkXL63N2jDSIuX4YILLhjuv//+Fl9VjT+vchj58F//Cv/+/PNAt+Cbb74Z7r333nDDDTcU//i/Uxa+PP/whz+0dEjDiGGkpQumxT/mKfTdd99drGiUohhGvlRkjDbDqGadddYUtMUxGPPN+P9333032TGrdCBCyJlnnllMFm4lkBhGvmxFlp/lRpNNWDt1Q9fpa4gnxTfccGOYbbZ0n61Rz4HPLZ8zLPtjYZgbGy+vuuqqSU4vVRjhM0/YTPUAuJmTY04Vk+SrXOwZSdQ6KcIIT3lmmGGGRDX68jCvv/568YSRD9Ozzz5bhJIyCk/9WJucL7hWimGkf4YRlqlkEYNJJ5sszDzTTF8MOeDJNxNNWX6Ta5PVRNikrMyy/PLLh4svvjhJt30VwgiLRGDLqlZ8iY+62SP1Y+I3Y8H5zJd9s0HPCMOpUmw4yXfTEkssER566KHSLgfmsmHHamuNa5QbBIaGvfbaa4UZ//Arq2dmxhlnLFYtbCXEGUa+vCTYi4H9JcoMIuwBxOdrqqmmKvYummyyyYoKMLSJh3h8zrhOypw0X9ZmdVzb7Cf24IMPlvo5Y+EGPmv0BjQmlfOZ4vuJzxrf/fxLva9G46RoM84xxXLkqcJIaeC9HJj5QIsvvng33rrp9zSMNE3V+x+mCCOJqtK1w/DkmVVvWp14ZxjpP2GEQMoP0AEHHFAsxzr5FFOEcccZZ4zXJKGEH3Z+lE4+5ZTw61NPLfVp0YknnljsyhxbuhVGsOXmiM0HWWKX/95TAMD2rbfeCi+++GI46aSTihV6YlfJ68mNm3tuDlP82LEE5aGHHhrbRGN8PX7socDwDexY2GBMQ/dwIiQz3JT63HjjjaWMp2dCKRNLmy0sucrwrnbakeWYYzfXHHvssYtFTthhPmXheDg3uxgCi6ww4ZprLnXheiCgHnHEEYEHGFwnPZ1vI7zec++9YZeddw4Me04974LhzoRWHlSmKgS4fffdt9jXpIzC98H2229f7Jsx3XTT9fgAiHoQ6p544skwZMgBxXC71H6c3/4HHBAOP+yw6FPNOYywEWjMSn7ReE0cwDDSBFIzf2IYCcUPJV9ArRbDSP5hhJtiloZk4iWhlKFRrczR4EeIHbb5QTrssMOK4Zrt3HT1du2xygo3lvxAxpROhxEcWRCCIMUEaG4KWymN0MdNDWPE+bylLjw9ZjnvmE3bXnrppbDIIosUT5xTFnofmCzKcA2Wem5laBRPbAl0LHt+wgknRN/Qj3pe3GhyPdIT1EyJuVEjKDJUMaZgx14vtHXq0sp3BcuU7rrrrklvXBk2w4ape+21V1j4hz8M3xlvvJa+vxhy88gjj4SjjjqqmIOZsseG0RJ33XVX00vl99U2tOFiiy2WvDeafcX4nPEQqqeg31Pd+JwR/k8++eRir5WUQzQJuQwdjx2mlHMYYQ8ZlruvcjGMJGqduoeRH/7wh8XY8Xb2dTCM5B1GWLKUH3GemqYYqkMoYWlLbjpS3phyw8OCDTwRZIJju6VTYYT6LrDAAsWKVfzAp9jXgx9UekkYb88mpynL6aefHgYNGtTWIXnKzNNUHmjE3HSP+uYDBgwo6kObpxj+es899xS9NuwXkmr4FjdIHK/ZZdDbwg2huPlMEUa44S4jjDR7Xh9++GHxmUi5ehbznlgZjuWBW+3VH73eDDdlsvAhhxySrI6EZ27QedDXSmgbkyk3/XxPM5w6VeEBxHbbbRe23Xbb6OFQPIBitbkjhw4NNyXskWQBk9/97nctPYgY3aeKYYRrA3/+8X3H/81/jvr7xjXDymIsLlTlYhhJ1Dp1DiM84bv66quLJ+PtFMNInmGELzz2TODHN/Vu59yQPvroo8VQCYZxpSqEZW5kYp7gdyKM8KPCDyiBrDFWPZUBtnfdfXfYYP31i6f+qQo9T3ffc0+YsI29R5544olAqE0VRBhec+FFF4UfL7lk1A3I6DaEJoI3q32lePrNECCGts4zzzypmmGMx+kPYYRrg2W6CZcpek35/lp00UWLXq/Ue1I899xzxec31W7mPOyjF415LDGFa42euFSfM9zOOeec6F6H0c+JByUs8EAvU4r5JHzf/+WJJ8IUETfkVQgjPJBi/g037uuuu24x74deKL5HGqMRuB9rpfc35npK+VrDSCLNOoeRLbfcsniS3e7TZsNIfmGEtmZHV56wl/lUlzHFPMnj6XGKwlMiegbaGU7YeP+ywwi9S6wSxE1Xip6mntzY/Zc5FDyJTFH4ATz9jDPCFptv3vLh6P3hnFMUQhFzJMoaI00IYU4BS3OmKDyR54aunb1Hmn3//hBGmCjOTTmLsKQoXPuEm7LcmaTN4g6pAgnfW+y9E1M451R7WzD0jyfuKXodx3RODH3jO5B5VSnCEwvr0CPUbu9SN8MIQ83WXnvtwL5Zc8wxR5hgggmK82j3XGKuobJeaxhJJFvXMEKXOUsEtzM8q0FvGMkvjHAztttuu5X2Qz7qx/LFl14qbnCHDx+e5NM600wzFctbt9s7UmYYoYudoUAMWSoziDQgeYLLqkRsHpei8KSO8dmtDCnjJpN5HSmWGaeHjk1c559//lJ/qFkcgAnov//976NvlGhzrkduMsoq/SGM0K48DU4xRI45WPRuNTtpvp124Qb6qaeeKnp3U/RAMmmfvUfaLYS4ZZZZpljFMLYw/4AluFOsUtVbXfhO2HTTTVveLmBMx2QIHg9g2h1m2I0wQq8HAXLjjTcuRiH052IYSdS6dQwjDB/hy5GVfWKKYSSfMEKPCD8Op556aks3nDHXB69lAh4ryqQYssXTJAI0NwntlLLCCPUi5DEMqN1exnbOhxsmbPmxjS18J7AIQStL1p53/vlhk403jn3rYqw0QejHP/5xqUGkUVEm3PJeKW40eULPuPuySu5hhKfkzEk4++yzo4lYVvmWW275YqnZ6AP2cQDqzOiB2KFljQUEWK2w1UIwYk7XNtts0+pLv/b3DBNiaG7KFb56qxQrQS288MLRE+75TqVnhFDXTulkGKGunDOBee655+7o70E7NileYxhJoRhCscszN2l1KTz55IefG7rYrkLDSD5hhPbmhyh2omc7nxOuE4YGpNgsiiFmzMdop5QVRhiOxrCHboz3ZQgIk71TDIcYNmxY2HHHHZs+j3XWXTdclmBCLUNYOI9OFlbYYqf4WDd6p1gApKwQmnsYIfDNMsss0Z99AivOhMhOFYb1McSG+Q8xhd/Zw484Iuy3774tH4a9hnhomGJTaVY7ZMJ/7O9+sydBiGvMFYr9nK2xxhrhkksuaetBWqfCCK58p7AyWyd6x5tth7L/zjCSSLhOYYQnI8wR4Qs2xY+nYSSPMMLYYJaHZUx+Nwo/qHRX82MSW3jqRO8I3eCtljLCCMMd2CWXp7bdKEwY3WijjaJvmKg7vSIsH9rMWHz2vqAt6GWIKfjdeuutgZWROllY3YlJ0Cy2EFOYdMoNN5vrlVFyDyNMMmdCc2xhGCFhpNXlsWPfl/dcbbXVokMryw/zELDVeXrsgcIiCbF7zfA5o+ezrHkiPTlTb5b9jp0vRK8S37MM1W21dCKMcD/Fwxx60vhOqFMxjCRq7bqEEZaHO/roo4sfhlRPRgwjeYSRI488stgsq5uF3XRXXnnlYtfemMIT0ttuu61YJrTVkjqMcGPBEArCQDd6RRrnzyIBPKGPffrIyi4Mq2tmhTVu0pgHwJKoMYX5S8ccc0xX/FjGNcVk9osvvriwKKPkHkboaWPzzpjCZ4sbaSw6XZhjxD43rGYVU9jNnODb6hxNduCmNyh2qBifMTYNTfXb36wF30lMZmfj2tjCA7WVVlqp5cOUHUZ4eMM5MmewTj0ijYYwjLR8SY75Bf09jPDlw9MQfjDZeC1lMYxUP4wwLIunU1V4WsPk0wsuuCD6EmTtfp5AtVpShxE+T6lW3Gn1XEb9e5bQpNeLSZ4xhe8KNmnjSWZvhRujgw85JBwWueM673f7HXeEJSLnrrV7zkz+Z/J57BKkP/vZz4q9EMoouYeRRRZdNNx7zz1RNAstvHBxjE7fSDcqzTw7Ni6NuU74HuZmutVhZoMHDy7m+cUUvvtZgpubxm6U++67P/zkJ8uG9957L+rtWbmPG/5WS5lhhGuSier8JtW1GEYStXx/DiN0HbJmOk9FWIki9Ze5YaTaYYT2pjdsjz32SPRpiTsMY6+ZhBj7BJ8hX3xuW72eU4cR5q4wh6UKhaFr9DzF2jLemd2Yeyv0hjB0hVV5YgrDwnjy2+rT4pj3HPW1DHHDjKfuMYVQysaKZfSO5RxG3n777WKyeexNKAtD/OIXv4hpoqjXslAEPbEffPBB28fhu+rkU04J22y9ddPfW4R+Phv0zsQUfvufeeaZrj2QYu4NnxGGgMaU1VdfvVgFr9Uh5mWGEc6L1eLaWZwgxqJKrzWMJGqN/hpG5pprrmIHaLqYy5q0bBipdhih+5iJj2xKV4XCjyo3oLHjn1n+lfNq9eYvZRhhzgo3Kd26kR69PVmtjNVbYlctY6Ud5nD0VrjJpCcmdsgdNxX8iLfajqmuZYIbXmyIGFOmm266Ykx8GfMZcg4jLOlN2IvdZJINA5nv2K1Cjwh7j8QGffaaYMhas8tnM1+EuR6x78vnjOO0+vAmpTfnwtzBmMISuTy8aPV+pswwcu211xbXeJ2LYSRR6/enMMJ4RSbSsroP40MZX19mMYxUO4wwBIUntmy0VJWSYvMuhh0yxKbVm7+UYaQbK0D11obc8LHqDvtexBR2ZmZsO/NHeioMB1twwQXDu+++G/NW/ea13Cj/5S9/aXsfhN4gcg4j9MjTq2H5rwAPUdiotLfP1qhWDzzwQPKh1Tm3BXvLsGBGq4uXlBVGWJTg+uuvb7mnJuc2GFPdDSOJWrQ/hBFCCB+MTTbZpJjgxZOkTjwFMYxUO4ywjCOTdFvt1k700RrjYc4777ziOo0p/BjxA9PqZMGUYYSlYZmcW5XCkI799tsvejgL+40wD6a38eX0SjH2PXbyelXsYuvBmHyGIPIdnLrkGkZ4ms8GoOy3YPmvAD2A9Ao3ezPNHJOBAwfKN4oAD0oY9dFKKSOMEIxY3WveeedtpSr98m8NI4maNacwQsDgHzeXLIX5oyWWKCZ/8oNFN2yzT1wS0QXDSHXDCEMBzjn33PCzDTZI1dxJjnP33XeHJZZYImoyKNc/4/2bWYJ21EqnDCOs6NXqZNQkgL0chEnUrOwVUzBlDgU9Hz2VG2+8sbhJipnQG1PHqr2WHrqTTz652Nk9dck1jHBtsMJYzM7jqS2rcDyGdrLvSjOFvXfaWaijmWPn+jfMz2DuSCuljDDCvl0s1dzqA7FW6p3L3xpGErVUijBCOk49gYmnKKxd3xhPPcUUUxQB5Pszzhh+MOecgaUCu10MI9UNIxNPPHGxWzFr1FepjBw5sqhT7PhhjtPKbuEYpAwjLIE722yzVYm2eFJHSIiZaEvQ47pZcsklezw3bjDXWmutSp17NyvDA6IjjjiilOWzcw0jn376abGxLqHd8qUAS5wz96GZwmIS3V6SvZl6dvJv2lk0JHUY4eHD2WefHf3gp5NuZb6XYSSRboowwgoPa665ZqIa5XMYw0h1wwjhleE0zewZ0ckr7qWXXiqeDMZOGubpPXMkWimpwgg9kKxOg3GVymOPPVYMFYqdWN7X00e+79g41fKlwK677hr+93//NzlJrmGEhw1sVGgY+eol0UqP6t777BOO7uIqYskv5gQHZF+i4447rqUjpQ4jLFjBvU9VFi9pCaOEPzaMJEI1jLQPaRipbhhhSU1umFud5N3+1dDcK998880iIMXON+hmGGFI5EMPPVS5HyMmURNGWLkmpvQVRoYOHVrMT7F8KcBeIzwtTT1sI9cwwsMGlsNlfwvLlwL0KrK8eTPFMPJ1pUGDBhUbzbZSUocR9ss6//zzW6lCv/5bw0ii5jWMtA+ZexhhOAsrM8UuNcsEVlYYSjFU74033iieKGIbU/iCYOWRqhX2HGCI4YcffhhVNTZPZNW4VkqqnpGqhhF6RBhexUpjMaWvMHL44YcXy4ZbvhSgp4jFGVqdx9SXYc5hhNWjGM5o+VKAzYeZS9NMYVdvFsqwfClQhTBy5plnFhsdWv4rYBhJdCUYRtqHzD2MsMcA8w7eeeed9hFCKDaTMow0R8hysGzCFRtGrrjyyrBGixMZ+3sY4fyYVE+PWEwxjLSuZxj5qhk9I4aRr19HrYSRXXfbLQw7/vjWL8Z+/IoqhBGGP/e2wEc/5h/jqRlGErW4YaR9yNzDyMinngrzzzdf9JChKoYRhmnxhDz1sJH2r5b/vpIhROyFk/Ockar2jHRqmBaTtQ844IDYS6Ffvd4w8vUwsvDCCwfmMVm+FGgljDhM6+tXTrfDCPMFeYjZ6saL/fkzYBhJ1LqGkfYhcw8j7ObKk2T2aIgpVQwjk08+ebEBXm/7RcScc7uvff7554tVqD7++ON2D1G8rptzRhiKw47b9PBUqbBSD0P8YocdXjbaNLoAACAASURBVHPNNb3ub+BqWl9vdcPIV01cTWvM3wythBFW0mJFLcuXAt0OI3y/sut6lfbu6vb1YRhJ1AKGkfYhcw8jqVYFqmIYYVOm666/Piy+2GLtN3AJr2TTKrq4uVmJKfSwtLq8daphWtSbJ74/+MEPYk4h+WuHjxgRVl1llaigx4IHrPiz+OKL91i/K664oparB/bWYIaRr4eRFVdcsVgm2vKlQCthhNXZdt99d/lGEeh2GGHhjsMOO+yLLRdsHOeMJLsGDCPtU6YKI7PPPnt45JFHAhv1dbKkWhWoimGE/WlOO+20ym2adccdd4Sll146qjeKG2Ymwrc6WThlGGHDq1VWWaWTl2uv78WO12ySxo91TCHE3nX33WHOOebo8TAjRowIK620Uvjss89i3qoIpa22YdQblvjin/zkJ8XQtdTfYblOYGfTQ1Yd4uY7puDJvhxVG27a7jmx+APff82Uiy66qOVFOkY/LnvgzD333GGCCSZo5i0r/zesRLbHHnu0VM+Uq2mxihbXteVLAXtGEl0NhpH2IVOFEfad4In5OOOM035l2ngly3FeeOGFbbzyqy+pYhihhptvvnk49dRTK/VD/ssTTgi77LxzlDnru7/88sstn1fKMMLwib333jvqPFK+mKGGgwcPLgJoTGHoGZ/r3nqdHn744aLnJGYRAsIy4WnTTTeNqW6/f22uYYSG4al+7N4rhFWuxzl6Ccf99SIYPnx4sXFkTOFzxoIUPDghmNSxpAojPARjCCtDtSyGkeTXgGGkfdJUYYRNhBjvzo7znSpvvfVW4Gkm7xtbqhpGmGjNjWMnXXuz5IaZH9ebb745inymmWYK7MDe6rjdlGFk2WWXDfQQVKWwb8tCCy0UmMQeU3gw8Pjjj/f6hP+FF14I8847b3j77bdj3qoY6nXJJZe03I5Rb5rZi3MOI6f++tdhu8GDA712MYUHRuuvv37MIbJ8LaMF+JzFFgI/y9G2+n0Z+75VeX2qMEIwZtjhoosuWpVTq0Q97BlJ1AyGkfYhCSPsaxDzhJR3n3jiiYvJ1txkdqrcddddxQZxsXWnvlUNIwxxuPXWW3sd/98pb96HyesMyYtdSeuHP/xhoP146tdKSRlG+GFnH5eq7HD/4osvFsMxYpepXmuttcJll13WKyvLM7MIAT/yMYVemLvvvjuw8ptlzAI5h5E77rwzLLvMMtHD+dqZJ9Afrif2nGIhktgFVuhJZsGN/jJUq9W2TRVGWEnrvvvuq2UvXW/mhpFWr8ge/t4w0j7kE08+GZZcYonAl2ZM4aby+uuvj+6SbrYOPKk76KCDioloKUpVwwjntskmmwSu8SqUk08+OWy//fbRVdlll12K4R+tDjtIGUY4iT333DMcffTR0eeT4gDHHHNM2GuvvaIP1cyGXqyExhBHVtWKLXV96t2sW4owwk0oO6HTU9rJwpwiAmfs6m4MGST4d3oYbyetxvRe/E4R+mM3MWV4EaG/rntjpAojfI4eeOCBQO+x5UsBw0iiq8Ew0j7kc889VyyN+9JLL7V/kP9/5c9//vPwm9/8puWn3e28MTdTbMjFD3SKUuUwQtBj6A4/at0sDCMaOHBg0VMTWy655NKwzjprt3yY1GGEnrx77rmn68PgeBjADyRDD2MKNy1s6NXX0BBuko4//vhiImnsEJz1N9ggnHP22bW70Wy2nVKEEd6LJ+Pf//73m33bZH/H+Pqbbrop+nj8Nmy22WbRx8ntAAcffHA45JBDoqu95ZZbhl//+te1HKqVMowwrLuTIziiG74DBzCMJEI2jLQPydhxwgjDb2ILT7lff/31jtzYccPFuE9WfElRqhxGOL8tttiimNjcrTHD3LCyjDKrkHzyySdR5Mx/YenZdpbVTR1GuGbpjTj00ENbnkwfhTDKi1OtosUhWUnrqaeeClNMMUWf1WMIzioDBxarmsUUVkliHHZvSwnHHL+v1+LHv1aH/PV13FT/e6owMuLmm4shU50uLPKQovdwnnnmKYZmdmuzOX4ruEZa7Y2N9WbOH3PBYleuGzBgQDFXj40ou1G6+TlLFUa+973vFb1UDHuzfClgGEl0NRhG2ofkRmSppZZKMgmcWrCU4Xrrrdd+hZp45fvvv18sFfnMM8808dfN/UnVwwhjXbnOmTDc6R9TBJljQE8UT2djC/N8WFa3nSEbqcMI58K8HH7kl1hiidhTa+v1mLLMbuxQDt6cGxU2Am1meVp6F+lBYSGB2MJCEqwc1I3y0EMPheuuuy4sssgiYeaZZy6GMnUrtI/p/FkGlvAdWw488MAkT9hbrQef1dVWW63Vl33t7wmtPNlnMnanv8OYs/GrX/0q8D0655xzFk/GJ5tssuhzauYA9HryOWP1wNiy8cYbF6MP6AHtdLn99tuL+Rb8DtCLO/XUU3fsc5YqjEw00UThr3/9azHH1fKlgGEk0dVgGGkfkqcdbGyVohueWvAUkB+vMj/sZ599dtFTEDu8ZFS1qocR6soQDdqp013M/JDTe8CwntiJmJwHT1mZq9FOKSOMUA8m5d94442BVeE6WXhay+RerunYwg3eub/9bdhoww2bvtnjc8TNTWxhlZoLLrggrLHGGk2/d+x78vpXX301rLrqqsXQNOrADSZPPel144EFCwLwj3kP3SrrrLNOnwsKNFM3Qg2hudM38twIMleBz15soR04Bz5vnSwMLV199dWLXkB6GOg5JLTONddcxbVCkJ111llLmSDO5rA8oGOj0djCnIfzzjuvOJdOFq6BlVdeORD8eYjEpHzaknbk88X1gSWfvTKuT8NIua1tGEnkaxiJg9x5l13CCb/8ZdxBRnn1kCFDAuNkyxg2wRwRdkpONVekUe0cwgh1Zd7ItddeG2acccZk7dXbgQgf9HbxRC5FEOHp6J133tn2UIOywggGPN3nh77VXeHbbQiCyOmnnx523nnn6KFv1IEghW0rK1uleurN++NGWOampBOFYS8MIeptHwyeIHMDx00TqwYytJNQz40oN6Vcj2X3orB3DHsFxRZuoBmCx1C8ThZupnkYMWzYsCRvy8IJLLLAd24nChPn11133SKw9lSoy4QTTlh8L7HkN3uicIPGdcI1Qk9jzO8ZizwwpxLL2EK9OJdODTWiB3W77bYr9hTqqeDDdcnvE9+jPAjgoRnfSQzLwzDGzzASe9X0/nrDSCJfw0gcJBsqsRxoiptNasKP/FVXXVXsUpvyKckHH3xQfNEx4Th1ySWMcN6MveYpWycms7JBFD+ib775ZhJy5hUwv6Dd3ZjLDCOc4DLLLBMuvOiiMHnJQzgaIY+V0lLNe2pn1TXm//BEOMWcMfy44WfH7rIDHWaEEMJIOz2khBSWl2ZBhmWWXTYstuiiSb+rRv2wpJrAzHcpu3/vs88+UTd27XyQGaJDD3rskt6N9953333DEUccUZp5431Y9p3fthtuuKGd0y5629hs8Cc/WS6stNKKbX/nMpeS4dCpHqIxAoHvZoYdlVkI/KxYyXXXzv0BQZ/vfD5nDM+lB6WdewLDSJmtHIrgzfzhyPIsW3LG7UgUQnGR9PbkILKSpb7cMBLHy5hxbnBjJyaPWguGSzDhOdU4fJaW5OkWY6/bufnoSyinMMK50DXOdc8TqDIKPzzsVcETsdhlPRv144fp5ltuCT9ecsm2q1x2GOGHksmmPLnFuIyC7SmnnBL222+/Yi5OisJN05VXXhVWWKH13Z5POumksOOOO6aoRnEMbjq4dsp6gs/TZfwOOOCA6Mn31Jd24Ma4rEJvG0ExRaGXh7k5BKnYwhA3htM2M7+IeXr0GDBnIEXh+5ahmti3M3esmTqwXw8rULF8dTs30qO+B0/3eYgS477//vuHI488spmqN/U39FYzD6aszxmB/7jjjgsEx1g/vlc51q677trUuY3+R4aRttiafpFhpGmq3v/QMBIHyQ0RF2Psbsyj14IuWr6AGN/a7g8ONx6sr84PF5sqlhFEqHduYYQ6c2Ny4oknFsPW6I1KVXiKd8IJJxRzO1IGVCYXs6xiTF3LDiMNQ4bB8URwrbXXDuOOM04SWq5dgh0rd51xxhnJnjJTueWXX76Yq9VOj1Oq3dhHRaIHkxslJrrGDM8YHZ6lj9mPhWszRY8Sn6E77rijz6WQYy4AVlNK+dCAYzHHqK/lm8dUZ75PWcadgMTvJj1LzFlqptCDzgOhFEONeD96p3bbbbciVKbczI8bZ3ogdtppp2IZ8tgbaerKAhP0RMRcy08++WRxHTDsKUXhBp8eBxYFYDJ5Oz0OY6oH31P0hPP9R+hP8RvAwgGPP/54cZ/RTjGMtKPW/GsMI81b9fqXhpE4SL58Ntpoo2ICaurCl/e2225bjDnmC7OZp3DUgS9sbpIYa82NceyyiH2dV45hpHFOrHTDk13GxTfrOyYP9hEh+LH3xJ///Oe+yFr636kXvQ08zYv50exUGOHkqCf7InDDxvjnmBVsGGLIk1U+B6mGaozaAMzVoEeincJni5t7VmtKcYPfqAMTXNkkk4mv7T6MaBzr408+CY88/HDRg5NqmCbtu80224Rf/vKXbYW4Zq35XLGkaIqbusZ7Eux50LPU0kuHCQYM6PEmme92wgPXH24Mn+U7tfFQh7kRPCBotn0YcsPyvCkLw7+Yj8JwwZibfc6JYVmXXnppMQ+LnpEUhTpxTFYyjC30MvziF79I+lCNeS0sQsES/c22Y0/nwe8uD/3oUUqxul/jfbgHINi0Wwwj7co19zrDSHNOff6VYaRPoj7/gB8YvszKuOnnR5/hANyUrL/++sVT3DF9aXIjxBcgwxB4ysuPJz8oZfWGjIqScxjhPLjZoQeKm7VWx+XizhwUnrCxLCw/6KkLQzyuvvrq6D0GOhlGGgZcu4w7x5bhjK0ULDnvYcN+GR566MGkvSGNevB54ql1zIRghuEweZentykLw8d++tOfFmPO6W1qJ4jy3XT88cPCtddeU9xUpyqMt+fGixv7MgufL3oUUux2P2o96QVjsQDmOTGvgYULuDHlhpIeuL89/3y4/bbbAj0z7DpNj+foT+XppXz00UfDDDPM0BQB38t8z6T8TuaaYFgvN6w8CGmnl4Sg99vf/jacfMop4dFHHknWewMKK8Sdf/75xbLAsYW5WfRopQpKjfowjIxV5RgG1s5qi7Qnq5wRzPnPlJ8zri0ebsXMbzGMxF55vb/eMJLI1zASD8lNE0/Z7k80JrinGvEDyo8NvSRsftd4EsZa7K+99loxBpy6pOhab0Ul9zAy6o8S6+hzY8lTTOY9cIOCM/8ImzypZW+Lxk3Kn/70p6IXKuWT21Ht+aFkDgFDHWJLN8IIdeaGiZsRwgjjxgnuM888S5hiismLHhP+d246GfLIDQc/vtzo8o9hMWWEfOrFTdytt90W5pxjjljaYuhP6iWzG5XiM89NMzdM/Cf15rug0duEDzdEXIMMxfrLX/4SRowYUYRj/jthKXXhxpen1DFP45utE79R9LKlvIkf9b0JffQ+4sl7cC1i2deQIOZx0Suxww47NHUqTGDfZpttw7nnntPU37fyR3yGuHFlx3cCD/tZcN1wTtST82pcJ5wXvxcMseMfD67Ydyplzx5156EZvY4szJCiUD/maNHb2lfbtPN+rLDFdxPhlM8Zv7H4NXrM8eO3lf9kKBZL9fI5I6zye8BvQ8rSWHSBuUExxTASo9f3aw0jfRs19ReGkaaY+vwjuv2Zm1HWD2afFejiH/SXMNITIctWcsPCpNVOF276jjrqqCRLqHYrjPRmhi03LTx57uRnh5sMltHmXzs9DmM6J+YfsfBEmaVx08l8EoIyhZsNAgfLsL744otlvn1xbJ5OE8I7tRs44+VZGCHValQpgbh5pcej2R6Jxx5/PCyz9NLJFrbo6VwIq+wBQo8PvZMMN+Pzzw3zY489lmTxgt4cCanbb799OPbYY5MO4yOEMOSLjTrLLAS4xvK6GBJCXnnlleJhHw9MOvE5W2qppcNll11ahKKYYhiJ0ev7tYaRvo2a+gvDSFNMff4RX1Q8AUq5s3mfb1qRP+jvYaRbzCw/zCp9qTbBrGIY6ZYtPU0M/SFkpipPPf10WHKJJYqnzv21EIaYO0EvTacKN4AM1WKPoKoVPJgr1spKUdxIM/yurN7UKhjRw8x3V8zwx57Og13ACaeph2tVwa1RB64r5smxpHFsMYzECvb+esNIIl/DSBpInuqyCRuTOutWDCPpW5wJzKzvz7j2VE/uDSP/bSeW82RoSuqdrHl6yrAUdg0vY2hU+qustSNyHR5yyCHFMJl2Vh5r7d2++tcEEQJJGXOyYurFa1k5iVWtmi1cJyz7zTyz/lj4fBFYU9xI9+TDZrJsANnJ3tROtRW9Mqx6x4pmKTYVNYyU23KGkUS+hpFEkCEU47WZa5B6Imu6GpZzJMNIWlcm1LPsMKtnpSyGkVDsvMyOziwKkCrkjdpGjGtnWV6GbPa3J98sOcz8JYbWdbrgykawd955Z6ffus/3Y6jWjTfe2NJqTPxWbL755sXiCf2pcPPMhprMoylzPhHDtQiBDAMrY/5It9qE7yQeZrCgQOzqXo1zMIyU25qGkUS+hpFEkP9/mEceeaR4IpR635G0tUx7NMNIOk9+wI8//vjiqVjqUvcwwnXK0qyEvDJvlGi3XXfbLfxy2LB+8+SWeSJsmtqNINL4HFx//fXF5OJOL9DR1+eQG0jmYTA0qZXC3ANWmku9FHgrdUj5t3ymdtlll2L1tzKGZ41eVyaSMxKBpXn7Sw8JGx0z74xFKlIVw0gqyTEfxzCSyNcwkgjy/w/DDyVdrKyAUbUfzbRn+uXRDCNpZFm1ZejQocVTxVRPxUatWZ3DCDeMrMSzzbbbhm+ONVaaBuvlKAzTYvGB0047LfsbJYYKXnzxxYF9NbpZ6B1hUnQVhzcNHjy42Bem1cJKfPSmv/zyy62+tHJ/zzC6lE/0mzlBhu3xfUkgyb2wGtrtt98e2PA4ZTGMpNT8+rEMI4l8DSOJIEc5DKu+7L777m39OKWvTflHNIzEG7P07T777FOMx4/ZfLG3mtQ1jDC/gQcE3MimGIPdbGsTSNhQk2EruQ7ZYtfrs846q1gqtgqFm3c2KqUHukqFoEad2tnc86/PPBO23mqrYsJyjoXP1Kabblrss8HeK50uLLPLwz+u01Q73Hf6HBZbbLEiyLWzz0lfdTWM9CUU978bRuL8vni1YSQR5GiHYZgWYz/ZBKmqXcis0sTeDrH7OBhG4q4hlkilR6Tsm+U6hhE2CzvhhBOKDUPLCnl9tf5BBx1UjG2v4uTrnupOTxIbgDKngX2NqlL4LuWmn+FaVepN4CacVbVYTredwlKxTGpnmeCcCuFr1113DQceeGBXgkjDigeAPMxhGGZuc0hWXHHFcMYZZ4Rpp522lKY3jJTC+sVBDSOJfA0jiSDHcBiWHuQmiFWRqlYIIgy9YPw8X1YxpYphhBVduJmq+tNGxuCzxCzzjMqex5AqjDDBnpv85557LuayKf21jLu+5pprimVAy5is3uwJEPZZDWqjjTbKZpWtQVttVcx56dReIs1aNv7uwQcfLJZST7nbdat1GP3vmefFJojtXmvsAcINNcMJcxjiy/c+i0EMHDiwrR6hWO/RX8/njAUWttxyy0pdF72d51577x0OPuigUufYGEZSX2lfPZ5hJJGvYSQRZA+HoQt53333LcaOV6WwwzjLEDMplaee7JESU6oYRviC4AkqNwcMH6AdqlZ4IsZkdZaYbfcGppVzShVG2GyPHj+GRdDrkHrn4VbOaUx/y7AR9sE4+uijw6yzzhp7uCSv54k+q+xxw4pdVW822eCNoWVs4NiJScgxuLfeemvRm8gu81UofOewZPQUU0zRdnWYF8OytWzG+eyzz7Z9nLJfyHcXPX6LLrpoR767mj0fPlfsiM5wV66Pqo5K4Duf1cAYcljG/MBRvQwjzV497f2dYaQ9t6+9yjCSCLKXwzA848STTgqHH3ZYV5+M8pSTp7PcbDRW6+jPYYQdqSmsAsSP+x//+MdK3ATSK7XzzjsHJr2mXDWlrys5ZRh56KGHiv066Hk69NBDix25q1CmnHLKYtjItttuW9SvaoVQzJAMnn53YhfnZs+fYUZsxMfY+06F42br1tPfcaP51FNPhZ123jmMGD48cCPfzcIwG/aZSbF/zRNPPFHs6cIwuSrtPM85MpyM7y56SKtaGH7MgyiGbcU+bEt5jnzONthgg+Jzxqa2nSiGkXKVDSOJfA0jiSD7OAw/nOzOzhNHloHs5JNRhv9MMskkRRf2j370o68MB6pDGKFp6MIfcfPNYbNNNy12yO6kf+PSYHw1vVIMy5p88sk7/kQxdRhhzw4Kk0bPPPPM4mkkk7a7Yct8kBVWWKFYaYmem6oXQskWW2wRWK6Wye3deoLLNTnbbLMVw21YmrbsoYJltAshhB5GntR3el4OPZr0IHFzTijnv6fq5Ww85WfYEb0/3QpbnA+LQHC98iCLIZo5FD5TBBH2c6GXhO+pbn3O+H5aYIEFAvdbs8wyS7JrpJl2MIw0o9T+3xhG2rf7yisNI4kgmzzMe++9Fy644IJiY7RHH3209C9HVsMZNGhQ2HCjjcJEY3iSVZcw0mgeggjj91kKkqf5sZP3m2l2fojWWGONsOOOOxbDGjq9e3WjjmWFEY7Pjzy2l19+RTjzzDOKvRM6EUro7SOEEISYI9StSerNXAej/w03l9xkMmTy/PPP7+hQQuYqMQl8q622CqzkU/ZQkXZ8WnkN1x9zmAglfL++8cYbrby85b/lBp0ljzfbbLNirxBuSFKFkNErw7wYbqZPOeWUMHz48I5O0J555pmLHjOuE/57jmGV7/jHH3+88GMIXCf3AKP3aPXVVy96agkj3ficGUZa/ni39ALDSEtcPf+xYSQRZAuH4Yfz1VdfDVdccUW48KKLwr333JN03D1fgGyexOT55ZdfvtcxzIy5jv1y5uaa5UtTPDHjJoKby9iNwPiCaAzTGlPTsLgA47uvuuqqMGLEiDBy5MjkwZAnYJwLvWHc8I077rgtXCXp/7TMMDJqbV9//fVw3333hUsvvbQYIsdNYsonktz0MRRmueWWCxtuuFGYZ565KzvRuplWJJQ8OXJkGH7TTeEPf7gm3HHH7aXccDJEZJFFFil2nx+4yiphzjnm6Fowbsalnb/hOuMhD73ALBxy//33J+1RoNeNHde5QWcCPcMCywoho58/c7P4XuR3gx3fucEuo7eEc2TvE+ZdLbPMMsUqT506x3bavNnX0APJvK2rr766GF7K6mdlLIDA7y894Hz3YzjjjDN29XPG7ztD/nhYFFNYfp7f+W4s3xxT77JfaxhJJGwYSQTZ5mHoOiaYMLaVZR35743ldvmh4eny6Ddy/DDwj4m6DLP49jjjhEknmaR4Osd67zypY7hAJ/dUaPP0v/ayToWRxhtjy5jsp59+unhqxg1Mow348eKpWqMNemoH2gBrntIzHI7eD54k8qSeAFKVH/JOhZFRG5VhM9wA8LQa27feeisQBLnuub75h2tf1zi2DAsjZDNchKeM3Q53qa75UY/D9UaY47uAG2rmRDCkq3Et9uTFMRrfCTy95prEjB4QJvFvuOGGgUnHPDBoZy+MMs617GNixiRwfuOuu+66YsgOwwi59vhMNyxHr8eo3618jzLHix5mrjtWveP/180eAj4rLF/LubE3BUP9uNGk173xuWr0+Pb0uWpcI1wL3FwybJQAwgMsbqS7fY5lXxs4YcbDKB6aMISa311+C7Br9nNGTyxWfK7YawY/ehy5ca/L56zstqr68Q0jiVqISb0ME4h5cskEwgUXWCBRjep7GL4E+bHkSQY3IdzEcXPORNfGEzC+/Kaaaqpici5PXHj6PuVUU4UJBgyo1I1vu63Y6TAyej1pA55A8o8n+rTDP159Nbz37rvh+eef/+LP6W5niBs3xPwIMe6eyej8CFX1JrkbYWRUX24A+LHnGseSDewwJrC89NJLXxkyx80RqxKxG/E888xT/HdsuzHMod1rOfZ1fCdjw7VI2/31r38t/vH/I9SN2qPZuKFkNSye1tNzxBNarsUqBeJYk3Zfz7XHU3CCMJ/p5194Ifz95ZeLgDLqPBOuL3oG2Hxu7rnnLnoFCHVVNuS3gXPjH58rbqwJKpwz182oGwHyncWNM78hs842W5hu2mmLzxXnmNMQx3avgzG9jmDa+M5nSBPXBwsIFA8KX3stfPjBB1+87HsTTVQ8+Jt2uunCVFNOWQR9Pmf4ce1U5cFTSh+P1buAYcQrRIF+KNDtMNIPSb84pW6Hkf5s67kpoIACCtRPwDBSvzb3jGsgYBgpr5ENI+XZemQFFFBAgfoJGEbq1+aecQ0EDCPlNbJhpDxbj6yAAgooUD8Bw0j92twzroGAYaS8RjaMlGfrkRVQQAEF6idgGKlfm3vGNRAwjJTXyIaR8mw9sgIKKKBA/QQMI/Vrc8+4BgKGkfIa2TBSnq1HVkABBRSon4BhpH5t7hnXQMAwUl4jG0bKs/XICiiggAL1EzCM1K/NPeMaCBhGymtkw0h5th5ZAQUUUKB+AoaR+rW5Z1wDAcNIeY1sGCnP1iMroIACCtRPwDBSvzb3jGsgYBgpr5ENI+XZemQFFFBAgfoJGEbq1+aecQ0EDCPlNbJhpDxbj6yAAgooUD8Bw0j92twzroGAYaS8RjaMlGfrkRVQQAEF6idgGKlfm3vGNRAwjJTXyIaR8mw9sgIKKKBA/QQMI/Vrc8+4BgKGkfIa2TBSnq1HVkABBRSon4BhpH5t7hnXQMAwUl4jG0bKs/XICiiggAL1EzCM1K/NPeMaCBhGymtkw0h5th5ZAQUUUKB+AoaR+rW5Z1wDAcNIeY1sGCnP1iMroIACCtRPwDBSvzb3jGsgYBgpr5ENmIGc9gAAGztJREFUI+XZemQFFFBAgfoJGEbq1+aecQ0EDCPlNbJhpDxbj6yAAgooUD8Bw0j92twzroGAYaS8RjaMlGfrkRVQQAEF6idgGKlfm3vGNRAwjJTXyIaR8mw9sgIKKKBA/QQMI/Vrc8+4BgKGkfIa2TBSnq1HVkABBRSon4BhpH5t7hnXQMAwUl4jG0bKs/XICiiggAL1EzCM1K/NPeMaCBhGymtkw0h5th5ZAQUUUKB+AoaR+rW5Z1wDAcNIeY1sGCnP1iMroIACCtRPwDBSvzb3jGsgYBgpr5ENI+XZemQFFFBAgfoJGEbq1+aecQ0EDCPlNbJhpDxbj6yAAgooUD8Bw0j92twzroGAYaS8RjaMlGfrkRVQQAEF6idgGKlfm3vGNRAwjJTXyIaR8mw9sgIKKKBA/QQMI/Vrc8+4BgJvv/122GKLLcKjjz4adbbTTTdduPnmm6OO0d9e/Nprr4UVVlghfPDBB1Gnhu1ll10WJppooqjj+GIFFFBAAQVyFjCM5Nx61l2BHgT+85//FDfLn3/+eZTRWGONFSaYYIKoY/S3F//73/8O77//fsA4pmA7YMCA8I1vfCPmML5WAQUUUECBrAUMI1k3n5VXQAEFFFBAAQUUUCBfAcNIvm1nzRVQQAEFFFBAAQUUyFrAMJJ181l5BRRQQAEFFFBAAQXyFTCM5Nt21lwBBRRQQAEFFFBAgawFDCNZN5+VV0ABBRRQQAEFFFAgXwHDSL5tZ80VUEABBRRQQAEFFMhawDCSdfNZeQUUUEABBRRQQAEF8hUwjOTbdtZcAQUUUEABBRRQQIGsBQwjWTeflVdAAQUUUEABBRRQIF8Bw0i+bWfNFVBAAQUUUEABBRTIWsAwknXzWXkFFFBAAQUUUEABBfIVMIzk23bWXAEFFFBAAQUUUECBrAUMI1k3n5VXQAEFFFBAAQUUUCBfAcNIvm1nzRVQQAEFFFBAAQUUyFrAMJJ181l5BRRQQAEFFFBAAQXyFTCM5Nt21lwBBRRQQAEFFFBAgawFDCNZN5+VV0ABBRRQQAEFFFAgXwHDSL5tZ80VUEABBRRQQAEFFMhawDCSdfNZeQUUUEABBRRQQAEF8hUwjOTbdtZcAQUUUEABBRRQQIGsBQwjWTeflVdAAQUUUEABBRRQIF8Bw0i+bWfNFVBAAQUUUEABBRTIWsAwknXzWXkFFFBAAQUUUEABBfIVMIzk23bWXAEFFFBAAQUUUECBrAUMI1k3n5VXQAEFFFBAAQUUUCBfAcNIvm1nzRVQQAEFFFBAAQUUyFrAMJJ181l5BRRQQAEFFFBAAQXyFTCM5Nt21lwBBRRQQAEFFFBAgawFDCNZN5+VV0ABBRRQQAEFFFAgXwHDSL5tZ80VUEABBRRQQAEFFMhawDCSdfNZeQUUUEABBRRQQAEF8hUwjOTbdtZcAQUUUEABBRRQQIGsBQwjWTeflVdAAQUUUEABBRRQIF8Bw0i+bWfNFVBAAQUUUEABBRTIWsAwknXzWXkFFFBAAQUUUEABBfIVMIzk23bWXAEFFFBAAQUUUECBrAUMI1k3n5VXQAEFFFBAAQUUUCBfAcNIvm1nzRVQQAEFFFBAAQUUyFrAMJJ181l5BRRQQAEFFFBAAQXyFTCM5Nt21lwBBRRQQAEFFFBAgawFDCNZN5+VV0ABBRRQQAEFFFAgXwHDSL5tZ80VUEABBRRQQAEFFMhawDCSdfNZeQUUUEABBRRQQAEF8hUwjOTbdtZcAQUUUEABBRRQQIGsBQwjWTeflVdAAQUUUEABBRRQIF8Bw0i+bWfNFVBAAQUUUEABBRTIWsAwknXzWXkFFFBAAQUUUEABBfIVMIzk23bWXAEFFFBAAQUUUECBrAUMI1k3n5VXQAEFFFBAAQUUUCBfAcNIvm1nzRVQQAEFFFBAAQUUyFrAMJJ181l5BRRQQAEFFFBAAQXyFTCM5Nt21lwBBRRQQAEFFFBAgawFDCNZN5+VV0ABBRRQQAEFFFAgXwHDSL5tZ80VUEABBRRQQAEFFMhawDCSdfNZeQUUUEABBRRQQAEF8hUwjOTbdtZcAQUUUEABBRRQQIGsBQwjWTeflVdAAQUUUEABBRRQIF8Bw0i+bWfNFVBAAQUUUEABBRTIWsAwknXzWXkFFFBAAQUUUEABBfIVMIzk23bWXAEFFFBAAQUUUECBrAUMI1k3n5VXQAEFFFBAAQUUUCBfAcNIvm1nzRVQQAEFFFBAAQUUyFrAMJJ181l5BRRQQAEFFFBAAQXyFTCM5Nt21lwBBRRQQAEFFFBAgawFDCNZN5+VV0ABBRRQQAEFFFAgXwHDSL5tZ80VUEABBRRQQAEFFMhawDCSdfNZeQUUUEABBRRQQAEF8hUwjOTbdtZcAQUUUEABBRRQQIGsBQwjWTeflVdAAQUUUEABBRRQIF8Bw0i+bWfNFVBAAQUUUEABBRTIWsAwknXzWXkFFFBAAQUUUEABBfIVMIzk23bWXAEFFFBAAQUUUECBrAUMI1k3n5VXQAEFFFBAAQUUUCBfAcNIvm1nzRVQQAEFFFBAAQUUyFrAMJJ181l5BRRQQAEFFFBAAQXyFTCM5Nt21lwBBRRQQAEFFFBAgawFDCNZN5+VV0ABBRRQQAEFFFAgXwHDSL5tZ80VUEABBRRQQAEFFMhawDCSdfNZeQUUUEABBRRQQAEF8hUwjOTbdtZcAQUUUEABBRRQQIGsBQwjWTeflVdAAQUUUEABBRRQIF8Bw0i+bWfNFVBAAQUUUEABBRTIWsAwknXzWXkFFFBAAQUUUEABBfIVMIzk23bWXAEFFFBAAQUUUECBrAUMI1k3n5VXQAEFFFBAAQUUUCBfAcNIvm1nzRVQQAEFFFBAAQUUyFrAMJJ181l5BRRQQAEFFFBAAQXyFTCM5Nt21lwBBRRQQAEFFFBAgawFDCNZN5+VV0ABBRRQQAEFFFAgXwHDSL5tZ80VUEABBRRQQAEFFMhawDCSdfNZeQUUUEABBRRQQAEF8hUwjOTbdtZcAQUUUEABBRRQQIGsBQwjWTeflVdAAQUUUEABBRRQIF8Bw0i+bWfNFVBAAQUUUEABBRTIWsAwknXzWXkFFFBAAQUUUEABBfIVMIzk23bWXAEFFFBAAQUUUECBrAUMI1k3n5VXQAEFFFBAAQUUUCBfAcNIvm1nzRVQQAEFFFBAAQUUyFrAMJJ181l5BRRQQAEFFFBAAQXyFTCM5Nt21lwBBRRQQAEFFFBAgawFDCNZN5+VV0ABBRRQQAEFFFAgXwHDSL5tZ80VUEABBRRQQAEFFMhawDCSdfNZeQUUUEABBRRQQAEF8hUwjOTbdtZcAQUUUEABBRRQQIGsBQwjWTeflVdAAQUUUEABBRRQIF8Bw0i+bWfNFVBAAQUUUEABBRTIWsAwknXzWXkFFFBAAQUUUEABBfIVMIzk23bWXAEFFFBAAQUUUECBrAUMI1k3n5VXQAEFFFBAAQUUUCBfAcNIvm1nzRVQQAEFFFBAAQUUyFrAMJJ181l5BRRQQAEFFFBAAQXyFTCM5Nt21lwBBRRQQAEFFFBAgawFDCNZN5+VV0ABBRRQQAEFFFAgXwHDSL5tZ80VUEABBRRQQAEFFMhawDCSdfNZeQUUUEABBRRQQAEF8hUwjOTbdtZcAQUUUEABBRRQQIGsBQwjWTeflVdAAQUUUEABBRRQIF8Bw0i+bWfNFVBAAQUUUEABBRTIWsAwknXzWXkFFFBAAQUUUEABBfIVMIzk23bWXAEFFFBAAQUUUECBrAUMI1k3n5VXQAEFFFBAAQUUUCBfAcNIvm1nzRVQQAEFFFBAAQUUyFrAMJJ181l5BRRQQAEFFFBAAQXyFTCM5Nt21lwBBRRQQAEFFFBAgawFDCNZN5+VV0ABBRRQQAEFFFAgXwHDSL5tZ80VUEABBRRQQAEFFMhawDCSdfNZeQUUUEABBRRQQAEF8hUwjOTbdtZcAQUUUEABBRRQQIGsBQwjWTeflVdAAQUUUEABBRRQIF8Bw0i+bWfNFVBAAQUUUEABBRTIWsAwknXzWXkFFFBAAQUUUEABBfIVMIzk23bWXAEFFFBAAQUUUECBrAUMI1k3n5VXQAEFFFBAAQUUUCBfAcNIvm1nzRVQQAEFFFBAAQUUyFrAMJJ181l5BRRQQAEFFFBAAQXyFTCM5Nt21lwBBRRQQAEFFFBAgawFDCNZN5+VV0ABBRRQQAEFFFAgXwHDSL5tZ80VUEABBRRQQAEFFMhawDCSdfNZeQUUUEABBRRQQAEF8hUwjOTbdtZcAQUUUEABBRRQQIGsBQwjWTeflVdAAQUUUEABBRRQIF8Bw0i+bWfNFVBAAQUUUEABBRTIWsAwknXzWXkFFFBAAQUUUEABBfIVMIzk23bWXAEFFFBAAQUUUECBrAUMI1k3n5VXQAEFFFBAAQUUUCBfgemnnz68+OKLsSfw7DdCCP+JPcoCCywQHnjggdjD+HoFFFBAAQUUUEABBRTIQGD88ccPH374YWxNnyGMvBtCmCDmSCSj559/PuYQvlYBBRRQQAEFFFBAAQUyERhvvPHCRx99FFvbmwkjz4QQZow50pRTThleeeWVmEP4WgUUUEABBRRQQAEFFMhA4PXXXw/TTjtt+OSTT2JrO5ww8kgIYe6YI40zzjhFN81YY40Vcxhfq4ACCiiggAIKKKCAAhUXePTRRwPTND777LPYmp73f+3de6zWdR3A8TfgkcPNUFjgkA0oYNMhgeJMlwoqYEOEKMkgFEoUKsRFU3GoaFrqTOYfYok0uauNBmqAwFYhZV4OgrqFy/u0meXhIjcRTs/n6TmJR+Bcft/nnAd8fzd2Hnd+38/3+3s9svHZ9/KJZOQp4MIskcrKytiwYQOnnHJKljD2VUABBRRQQAEFFFBAgRIXWLBgAZdffjn79+/POtP7IxmZD4zNEilWRBYtWsTo0aOzhLGvAgoooIACCiiggAIKlLjAtGnTuOeee1LM8sZIRmYAt2aNNnXqVO69996sYeyvgAIKKKCAAgoooIACJSoQW7OGDRvGqlWrUsxwfCQj44G5WaMNHDiQFStWEOdHbAoooIACCiiggAIKKHD0CWzZsoUzzzyTzZs3p3i5YZGMXAT8IWu0rl275s+NdOjQIWso+yuggAIKKKCAAgoooEAJCrz55puceuqpbN++PcXs+kcyEjdpbQTic4NbeXk5zz77LH36ZLqYq8Hj21EBBRRQQAEFFFBAAQWKK7By5UqGDx/O3r17sw60FTg5EpDOwItApywRW7RowezZs7nyyiuzhLGvAgoooIACCiiggAIKlKBA3J510003cfvtt6eY3Xogv02rLfAYMDRr1DFjxvDQQw95biQrpP0VUEABBRRQQAEFFCgxgTgvcuGFF/L888+nmNlsYEokI/HnxtzPmblbtTJVLTzuuOPy50Z69MhU0D3FyxlDAQUUUEABBRRQQAEFEgpEEjJgwIAUEfcAPwAWVp8TGQg8DrTJGn3u3LmMHx8XdNkUUEABBRRQQAEFFFDgaBGYOXMmt9xyS4rXqQQiq3mtOhk5AdgEdMkafeTIkSxdujRrGPsroIACCiiggAIKKKBACQl8rV8/Nr4YR80zt1eA04Hd1cnIMUBULhmUNXTbtm2pqKigZ8+eWUPZXwEFFFBAAQUUUEABBUpAIG7Ruvjii4mihwnaAmAcUHXgdb5JKrHH5CZOnJi/Wat580xHUBK8pyEUUEABBRRQQAEFFFAgi0Bc4xuJSKKq61XAKOD3MacDk5GuuWrsb2WtNxJBTzzxRDZt2kTHjh2zvLd9FVBAAQUUUEABBRRQoIkFNm7cyHnnnUfcppWgbSuUFNldMxmJxORPwDeyDhI1R66//npuvvlmysrKsoazvwIKKKCAAgoooIACCjSBwM6dO/OXUz366KOpRl8CXFYdrGbV9RuAO1KM1KZNm3xF9pNPPjlFOGMooIACCiiggAIKKKBAIwusW7eOc889l6qq2F2VpI2NK30PlYz0A/4KtEwx1JQpU5g1axbNmtXMeVJEN4YCCiiggAIKKKCAAgoUSyAqrl9yySU88cQTqYZ4u7ALK37mW80soRXwW2B0ihHLy8vzkz///PNThDOGAgoooIACCiiggAIKNJLAnDlzuPrqq9m3b1+KEWNp5Z7cdb7XA/8PeLAli+HAI0B5ilHPOuus/Mn7uPLXpoACCiiggAIKKKCAAqUv8O677+YXFDZv3pxqsttz59Oj0PoLBwY8WDLSHngG6J1i5DjMPn36dGbMmOFh9hSgxlBAAQUUUEABBRRQoIgCu3btypfqWLAgyoEka+tyx0GGALtqS0bi91flrtyaneKa3wgWN2pFoZRBgzLXVEymYSAFFFBAAQUUUEABBRT4vMDChQsZN24ccWYkUYttWbEqEgnJZ9qhTpYfmytG8hLQK9EE6Na9OytXrKB37yQLLqmmZRwFFFBAAQUUUEABBRQoCDz99NP5Q+sffvhhSpO/AGcfLODhrrlKds1v9cCDBw9myZIlHH/88SlfzlgKKKCAAgoooIACCiiQUeDtt99m5MiRVFRUZIz0me6xKjIBmFffZKQL8BSQtFBIZFqLFy+mVau4uMumgAIKKKCAAgoooIACTS2wdetWzjnnHDZt2pR6KquA7wBxgP1z7XArI/G7yGJ+AzRPNas40D5p0iTuvPNOWrdunSqscRRQQAEFFFBAAQUUUKABApWVlUyYMIHly5enPCcSM/kYGAGsONS0aqtG2CG3v2s1EMUQk7Zp06Yxc+ZME5KkqgZTQAEFFFBAAQUUUKDuApGIXHPNNcyfP7/uner+5JOFVZHP3KB1YPfakpF4tk/hqt/kyxiTJ0/m7rvvNiGp+xfqkwoooIACCiiggAIKJBGo3LKF8VdcwbJly5LEqxHkg8JlWFsOF7wuyUj0j61aV6aeZWzZuuCCC/J3GHfs2DF1eOMpoIACCiiggAIKKKDAQQRef/11RowYwcsvv0xVVRRHT9riTuAZwB21Ra1rMtI9t1UrUqZYJUneBg4cmF8hOe2005LHNqACCiiggAIKKKCAAgp8KrB27VquvfZaXnopKnkUpa0Fvgv8u7bodU1GIs63gCjDWJRrsDp37swDDzzAkCFDKC8vr23e/l4BBRRQQAEFFFBAAQXqIbB9+3bmzZvHddddx44dO+rRs16PVgLfLBzzqLVjfZKRFsAvc9dy/TRVZfaas4ttW3GS/7bbbqNTp061Tt4HFFBAAQUUUEABBRRQoHaBN954gzivvWrVqmJsy6qewCfANcD9tc/of0/UJxmJ59sDa4Ci7adq1qwZvXr1Yvr06YwdO5bmzZPdKlxXE59TQAEFFFBAAQUUUOCoENi3bx+zZs3ivvvuI4oaFrn9DhgHHPL2rJrj1zcZif5RBHEp0LuYLxOrJEOHDiWuAD7jjDO8cauY2MZWQAEFFFBAAQUUOKoEtm3bxpo1a/K1/Z577rliroZUu/0NGJW79Ord+kA2JBmJ+JcCc4B29RmsIc/GSsno0aOZOnUqffv29TxJQxDto4ACCiiggAIKKPCFEPjoo4/yycddd93FypUrG+ud3y8UN3ymvgM2NBk5BriicOVvQ2PUa67t2rWjX79+TJw4kUsvvZSysrJ69fdhBRRQQAEFFFBAAQWOVoEdO3fy8MMPM+fBB3n11VeLeUC9JmFc4xsXXS0H6n1HcJZEoiXwC2By7md8bpQWZ0i6devG4MGDGTVqFH369KF9+/a0bNloU2iU93QQBRRQQAEFFFBAAQUOJbB7924++OADKioqWLp0KXFd73vvvdcY27EOnNJ24Abg10AcXq93y5KMxGDHAvcWCiI2yVLFSSedxKBBgzj77LPp378/Xbp0oU2bNvk/ce7EpoACCiiggAIKKKDAkSywd+9edu3aRVzNG4fQYxvW+vXrWb16NZWVcZNuk7SdwF3AbUCsjjSoZU1GYtDWhfMjlzVoBok6xYpJbN1q1aoVkaBEUtKzZ0+6d++e/+8ePXrkf2dTQAEFFFBAAQUUUKCUBeLw+TvvvJPfbhXJx2uvvcb777+f/7xnzx4++eQT9u9v8L//U736jcDdwN4sAVMkIzH+CcCtwESgSVZIDoUQB+CjRbJS/TkLmH0VUEABBRRQQAEFFCimQFVVVT7ZiJ8l2GJF5OfAr3JbtPZknV+qZCTmESskkR1NyBVHtIR61m/G/goooIACCiiggAIKlJbA1lzdwVm5xYfbs66IVL9WymQkYsYZkhnA9FiMKC07Z6OAAgoooIACCiiggAINFIgD6j8p3KabbI9Y6mSkOiH5XuFge1RstymggAIKKKCAAgoooMCRKRB7xaKQ4Q+BNbmFh30pX6MYyUjML66xOr9wwr5vygkbSwEFFFBAAQUUUEABBRpNYD0wBdjQkDoitc2yWMlI9bjdgbnAOW7bqu2r8PcKKKCAAgoooIACCpSMQGzLegy4FogK60VpxU5GYtJxsD2WdeK2rS8V5S0MqoACCiiggAIKKKCAAqkE/gX8uFBVPfONWYebVGMkIzF+jHNu7sMthVWSxho31RdiHAUUUEABBRRQQAEFjnaBOA/yZGER4YXGeNnGTgq+nFvmmVQ4id+hMV7QMRRQQAEFFFBAAQUUUOCwAtWH1O8AFgLbGsursZOR6veKOiSPAEML1wE31vs6jgIKKKCAAgoooIACCnwqEEUMIwH5UaraIfXBbapkJOYYZ0nOK7z4BSYl9fnafFYBBRRQQAEFFFBAgUwCu4FlhSKGFbk6gR9nitbAzk2ZjFRPuS0wBLgKGJgrL39MA9/FbgoooIACCiiggAIKKHB4gb2FcyGzcwsDf2yqJKR6iqWQjBzI1aeQnfUHjvM6YP8uKaCAAgoooIACCiiQWSAOpn8I/Bn4GfBG5oiJApRaMhKv1RL4KvBtYAzwFZOSRN+2YRRQQAEFFFBAAQW+SAKRhMQWrEXA48BbQNQPKZlWislINU5zoBMQFdyHAxcBXQvV3UsG0IkooIACCiiggAIKKFBCApGAvAysANYCL+Zusv1PMaqnp3jnUk5Gar5fzDUSk+/n9rkNAHoUiii2MkFJ8b+CMRRQQAEFFFBAAQWOMIFY5dgFbAH+AawDFgObSzX5ONg/8I8w83wBxRZAGXA68PUceu9chcg4ZxI/IzmxKaCAAgoooIACCihwNApsBf4OvAJsyJXKeKbwOQ6ml9QWrLrgH0krI4d7n2OBuJWrDXAC0BmIoortCgfhuxTOotTFxGcUUEABBRRQQAEFFGhqgUg6YntVZe7Q+Y7C538WfkZtkPjTJNfxpoT5LxZoZJ1T12UnAAAAAElFTkSuQmCC;" vertex="1" parent="1">
          <mxGeometry x="754.0040728759766" y="72.63555084228516" width="50" height="74.72" as="geometry" />
        </mxCell>
        <mxCell id="qBCmXweArAfsTmJJ2IWV-8" style="edgeStyle=orthogonalEdgeStyle;rounded=0;orthogonalLoop=1;jettySize=auto;html=1;" edge="1" parent="1" source="qBCmXweArAfsTmJJ2IWV-9" target="qBCmXweArAfsTmJJ2IWV-11">
          <mxGeometry relative="1" as="geometry" />
        </mxCell>
        <mxCell id="qBCmXweArAfsTmJJ2IWV-9" value="Get jobs URL&amp;nbsp;&lt;div&gt;and name&lt;/div&gt;" style="rhombus;whiteSpace=wrap;html=1;" vertex="1" parent="1">
          <mxGeometry x="912" y="60" width="100" height="100" as="geometry" />
        </mxCell>
        <mxCell id="qBCmXweArAfsTmJJ2IWV-10" style="edgeStyle=orthogonalEdgeStyle;rounded=0;orthogonalLoop=1;jettySize=auto;html=1;exitX=0.5;exitY=1;exitDx=0;exitDy=0;entryX=0.5;entryY=0;entryDx=0;entryDy=0;" edge="1" parent="1" source="qBCmXweArAfsTmJJ2IWV-11" target="qBCmXweArAfsTmJJ2IWV-14">
          <mxGeometry relative="1" as="geometry" />
        </mxCell>
        <mxCell id="qBCmXweArAfsTmJJ2IWV-11" value="Store at&amp;nbsp;&lt;span style=&quot;background-color: transparent; color: light-dark(rgb(0, 0, 0), rgb(255, 255, 255));&quot;&gt;&amp;nbsp;&lt;/span&gt;&lt;div&gt;database&lt;/div&gt;" style="rhombus;whiteSpace=wrap;html=1;" vertex="1" parent="1">
          <mxGeometry x="912" y="236" width="100" height="100" as="geometry" />
        </mxCell>
        <mxCell id="qBCmXweArAfsTmJJ2IWV-12" value="&lt;ul&gt;&lt;li&gt;name;&lt;/li&gt;&lt;li&gt;url;&lt;/li&gt;&lt;li&gt;tags;&lt;/li&gt;&lt;li&gt;availible&lt;/li&gt;&lt;/ul&gt;" style="whiteSpace=wrap;html=1;aspect=fixed;align=left;" vertex="1" parent="1">
          <mxGeometry x="922" y="548" width="80" height="80" as="geometry" />
        </mxCell>
        <mxCell id="qBCmXweArAfsTmJJ2IWV-13" style="edgeStyle=orthogonalEdgeStyle;rounded=0;orthogonalLoop=1;jettySize=auto;html=1;" edge="1" parent="1" source="qBCmXweArAfsTmJJ2IWV-14" target="qBCmXweArAfsTmJJ2IWV-12">
          <mxGeometry relative="1" as="geometry" />
        </mxCell>
        <mxCell id="qBCmXweArAfsTmJJ2IWV-14" value="MongoDB" style="shape=image;verticalLabelPosition=bottom;labelBackgroundColor=default;verticalAlign=top;aspect=fixed;imageAspect=0;image=data:image/png,iVBORw0KGgoAAAANSUhEUgAAADAAAAAwCAYAAABXAvmHAAAACXBIWXMAAAsTAAALEwEAmpwYAAAFmElEQVR4nO2Z208UVxjAp8aH2se+mLTxoX9AH3xiQWDZZee2O/fZXfbGpQJtQi1mtWphYS+yVSywahUhoGyBGO60TZMmJH1orEUbEvtS+2RjE9O0NbFNqC2iyGnO6M7MFpgbi7UpX3KSzc453/f95pzzfd85gyDbsi3bYklsUd8uvg31et/H+vgP8C/5M+Qtrt/9OzNMPaRG6BV6jFmlZjgAm/R7hF5hPqKWYR/YF44ROrA+ob1S9EVtu5CtlsAZ524hjSW4HmKBGaTuU9MsoD7mCtLoaRawA577fBe+IMSxRKDFubtgjjMJ5hU+Q96gJpnVQjmsCzTOrPJd+Ld1h7A9m3KePUa+zlyi/trIEDPKAD5DAG+bC/ibHSBQWw5Cwj4QZkpAhLCBiPNpI2zSf/BZoK5c6gvH8BlC0rGh/ouepcCh8r2WAbhe8ie1QnaQAt44CgL7y0GELAbVFUUFaRGyWNIptqOSDbVN7jR5F0GQF0w7LyTxamWNcpKBQjms16oa7dLmz9n3Rp1vmQbgT+FzsoI4asmRAyONwNvqsjRWPI7JAEIa+8o0APsh+WNOgZW33zTwBkhdS0vjfYcrTY8P7LerlhHxs2kAGK9zCoJVpaaM17/HguS1DhmAmmVBsMbcSwgGSpW9d4FcNA1AZz3LOQUhtsSw4VrBDtquJiTnZQC4jy4zIEIY3/hhrkSJRllq2TzAZfpxTkEYN264eapJdl4NAJuYwgzriRDFCvwovWIeYEJJXBHUZshoXT0uL531AKhZDoT4fcYgUJsCMMasmgZQlwrVTmtvfw2AmVlwqgCmWWAeQBWHqx36BmuoUhD/OqULQE+yIIIZmFFHkTJuhrMAMK5aQgYMNqTENc6vB2A0LEew4s0tIWaUeSRvYo9+FGoebzIMICb1E2OYUgGM0I/MAwxRS3Ie8OnngaNfHDMMwF3w6OoL+pQ8wFyilkwDsL3uuzkFsDbRM9h6pd0wADNM6eqraqxQElkv+atpAL6b+CanwHdEvxRYbwNvBAA3sp4+35FKuT/fjV83DSB0YIOygh5S12Bi/nhBAfgeUtkzaazfNIDYXsEqUQAa1I5EsStx40tohNYBsAFmXDnoQF8QK6KORMFQmabRdz8/bBhAb0ZDgTJ1BDJfRuSEy5A3lQyqHfqaBuoMA/iiTk1d3oRyFuBPE99ZBhBTrlZVMgER18bLqMbvAMn5Dn2AGe28Eqm0SZVrrr83ibZYBkASyA54l5NT5m/WfnMHZ9/RBRDS2rWQ/4BDtVeohwm7fad1ABiNThKfqjcffEMbGa8NOtaE07zoA2fRo1GaO22AydIK7AnsE2Sz4ks7X6XHlLOBXk6ojwsgNf/EeXiwqZ9reFpKs9KVimbsjzpVsPRjaHvTANIsnMAmZMVTLAhx2jX929kGCaBroROcv9H9BPyoNniYLgH0hFLCiyfRcaRQQr1JvcQM0Q/kWqbfI11YaUIMN4K521Pg6p3PgLdFJ5M7igB33q2s/SH6gT1hfxEppPjirqD6kCOkcZ1kVARu3bsuNb1+YhuaF6XEGFqLbIXwncpdkZFlYQTAf1BZ91Lc78TnkC2TBLKDO+u+rTbojaGWAfzNDumcLFed59x3Nh029cQXxV5mBzyLeRBt8PbN2MF/vWqTgs4PeBahbuRZCBvD9jCD7j/yDinnSBB265/c4PFUOIXnO3/R86cvhr6GPEuBMZrt9/yWV2WO0iBQU6Z528Zk82+f2T7PvYLFeyvhlc8Q36+pNjvxvIwbJoulEgIms7xZy5A3oQ7k3xb4rYuaYPO/4Eyx0q22FCIn//E5aoJdhWOQ50nEtsq93Fnyh/XK57wl0+v+RYxhJcjzKkLSlaCzSgUrlyBZahk+Q/4LkrDbd4od2BkYXWCDv7c8vm/LtvxP5W9RXIuemYtrDAAAAABJRU5ErkJggg==;" vertex="1" parent="1">
          <mxGeometry x="937.0040728759766" y="405.9955508422852" width="50" height="50" as="geometry" />
        </mxCell>
        <mxCell id="qBCmXweArAfsTmJJ2IWV-15" style="edgeStyle=orthogonalEdgeStyle;rounded=0;orthogonalLoop=1;jettySize=auto;html=1;" edge="1" parent="1" source="qBCmXweArAfsTmJJ2IWV-16" target="qBCmXweArAfsTmJJ2IWV-18">
          <mxGeometry relative="1" as="geometry" />
        </mxCell>
        <mxCell id="qBCmXweArAfsTmJJ2IWV-16" value="Browser" style="shape=image;verticalLabelPosition=bottom;labelBackgroundColor=default;verticalAlign=top;aspect=fixed;imageAspect=0;editableCssRules=.*;image=data:image/svg+xml,PHN2ZyB4bWxucz0iaHR0cDovL3d3dy53My5vcmcvMjAwMC9zdmciIHN0eWxlPSItLWRhcmtyZWFkZXItaW5saW5lLWZpbGw6IHZhcigtLWRhcmtyZWFkZXItYmFja2dyb3VuZC0wMDAwMDAsICMwMDAwMDApOyIgZGF0YS1kYXJrcmVhZGVyLWlubGluZS1maWxsPSIiIHZpZXdCb3g9IjAgMCAyNTYgMjU2IiBmaWxsPSIjMDAwMDAwIiBoZWlnaHQ9IjMyIiB3aWR0aD0iMzIiPjxwYXRoIGQ9Ik0yMTYsNDBINDBBMTYsMTYsMCwwLDAsMjQsNTZWMjAwYTE2LDE2LDAsMCwwLDE2LDE2SDIxNmExNiwxNiwwLDAsMCwxNi0xNlY1NkExNiwxNiwwLDAsMCwyMTYsNDBabTAsMTZWODhINDBWNTZabTAsMTQ0SDQwVjEwNEgyMTZ2OTZaIi8+PC9zdmc+;" vertex="1" parent="1">
          <mxGeometry x="411.0040728759766" y="183.99555084228518" width="50" height="50" as="geometry" />
        </mxCell>
        <mxCell id="qBCmXweArAfsTmJJ2IWV-17" style="edgeStyle=orthogonalEdgeStyle;rounded=0;orthogonalLoop=1;jettySize=auto;html=1;" edge="1" parent="1" source="qBCmXweArAfsTmJJ2IWV-18" target="qBCmXweArAfsTmJJ2IWV-20">
          <mxGeometry relative="1" as="geometry" />
        </mxCell>
        <mxCell id="qBCmXweArAfsTmJJ2IWV-18" value="get jobs from&lt;div&gt;database&lt;/div&gt;" style="rhombus;whiteSpace=wrap;html=1;" vertex="1" parent="1">
          <mxGeometry x="386" y="314" width="100" height="100" as="geometry" />
        </mxCell>
        <mxCell id="qBCmXweArAfsTmJJ2IWV-19" style="edgeStyle=orthogonalEdgeStyle;rounded=0;orthogonalLoop=1;jettySize=auto;html=1;entryX=0.5;entryY=0;entryDx=0;entryDy=0;" edge="1" parent="1" source="qBCmXweArAfsTmJJ2IWV-20" target="qBCmXweArAfsTmJJ2IWV-22">
          <mxGeometry relative="1" as="geometry" />
        </mxCell>
        <mxCell id="qBCmXweArAfsTmJJ2IWV-20" value="&lt;ul&gt;&lt;li&gt;name;&lt;/li&gt;&lt;li&gt;url;&lt;/li&gt;&lt;li&gt;tags;&lt;/li&gt;&lt;li&gt;availible&lt;/li&gt;&lt;/ul&gt;" style="whiteSpace=wrap;html=1;aspect=fixed;align=left;" vertex="1" parent="1">
          <mxGeometry x="391.5" y="505" width="89" height="89" as="geometry" />
        </mxCell>
        <mxCell id="qBCmXweArAfsTmJJ2IWV-21" style="edgeStyle=orthogonalEdgeStyle;rounded=0;orthogonalLoop=1;jettySize=auto;html=1;entryX=1;entryY=0.5;entryDx=0;entryDy=0;" edge="1" parent="1" source="qBCmXweArAfsTmJJ2IWV-22" target="qBCmXweArAfsTmJJ2IWV-16">
          <mxGeometry relative="1" as="geometry">
            <Array as="points">
              <mxPoint x="503" y="694" />
              <mxPoint x="503" y="209" />
            </Array>
          </mxGeometry>
        </mxCell>
        <mxCell id="qBCmXweArAfsTmJJ2IWV-22" value="return a array&amp;nbsp;&lt;div&gt;of jobs&lt;/div&gt;" style="rhombus;whiteSpace=wrap;html=1;" vertex="1" parent="1">
          <mxGeometry x="386" y="644" width="100" height="100" as="geometry" />
        </mxCell>
      </root>
    </mxGraphModel>
  </diagram>
</mxfile>
